HoltwoodOneSC.ufo
<glyph name="exclam" format="1">
  <advance width="879"/>
  <unicode hex="0021"/>
  <outline>
    <contour>
      <point x="54" y="1137" type="line" smooth="no"/>
      <point x="54" y="1536" type="line" smooth="no"/>
      <point x="823" y="1536" type="line" smooth="no"/>
      <point x="823" y="1137" type="line" smooth="no"/>
      <point x="695" y="512" type="line" smooth="no"/>
      <point x="183" y="512" type="line" smooth="no"/>
    </contour>
    <contour>
      <point x="119" y="384" type="line" smooth="no"/>
      <point x="759" y="384" type="line" smooth="no"/>
      <point x="759" y="0" type="line" smooth="no"/>
      <point x="119" y="0" type="line" smooth="no"/>
    </contour>
  </outline>
</glyph>
<glyph name="quotedbl" format="1">
  <advance width="893"/>
  <unicode hex="0022"/>
  <outline>
    <contour>
      <point x="830" y="1413" type="line" smooth="no"/>
      <point x="780" y="908" type="line" smooth="no"/>
      <point x="564" y="908" type="line" smooth="no"/>
      <point x="514" y="1413" type="line" smooth="no"/>
      <point x="514" y="1536" type="line" smooth="no"/>
      <point x="830" y="1536" type="line" smooth="no"/>
    </contour>
    <contour>
      <point x="377" y="1413" type="line" smooth="no"/>
      <point x="327" y="908" type="line" smooth="no"/>
      <point x="111" y="908" type="line" smooth="no"/>
      <point x="61" y="1413" type="line" smooth="no"/>
      <point x="61" y="1536" type="line" smooth="no"/>
      <point x="377" y="1536" type="line" smooth="no"/>
    </contour>
  </outline>
</glyph>
<glyph name="numbersign" format="1">
  <advance width="1512"/>
  <unicode hex="0023"/>
  <outline>
    <contour>
      <point x="802" y="256" type="line" smooth="no"/>
      <point x="546" y="256" type="line" smooth="no"/>
      <point x="504" y="0" type="line" smooth="no"/>
      <point x="120" y="0" type="line" smooth="no"/>
      <point x="162" y="256" type="line" smooth="no"/>
      <point x="56" y="256" type="line" smooth="no"/>
      <point x="56" y="640" type="line" smooth="no"/>
      <point x="226" y="640" type="line" smooth="no"/>
      <point x="269" y="896" type="line" smooth="no"/>
      <point x="111" y="896" type="line" smooth="no"/>
      <point x="111" y="1280" type="line" smooth="no"/>
      <point x="333" y="1280" type="line" smooth="no"/>
      <point x="376" y="1536" type="line" smooth="no"/>
      <point x="760" y="1536" type="line" smooth="no"/>
      <point x="717" y="1280" type="line" smooth="no"/>
      <point x="973" y="1280" type="line" smooth="no"/>
      <point x="1016" y="1536" type="line" smooth="no"/>
      <point x="1400" y="1536" type="line" smooth="no"/>
      <point x="1357" y="1280" type="line" smooth="no"/>
      <point x="1455" y="1280" type="line" smooth="no"/>
      <point x="1455" y="896" type="line" smooth="no"/>
      <point x="1293" y="896" type="line" smooth="no"/>
      <point x="1250" y="640" type="line" smooth="no"/>
      <point x="1403" y="640" type="line" smooth="no"/>
      <point x="1403" y="256" type="line" smooth="no"/>
      <point x="1186" y="256" type="line" smooth="no"/>
      <point x="1144" y="0" type="line" smooth="no"/>
      <point x="760" y="0" type="line" smooth="no"/>
    </contour>
    <contour>
      <point x="610" y="640" type="line" smooth="no"/>
      <point x="866" y="640" type="line" smooth="no"/>
      <point x="909" y="896" type="line" smooth="no"/>
      <point x="653" y="896" type="line" smooth="no"/>
    </contour>
  </outline>
</glyph>
<glyph name="dollar" format="1">
  <advance width="1435"/>
  <unicode hex="0024"/>
  <outline>
    <contour>
      <point x="1388" y="482" type="curve" smooth="yes"/>
      <point x="1388" y="162.954"/>
      <point x="1183.45" y="23.4092"/>
      <point x="911" y="-22" type="curve" smooth="no"/>
      <point x="911" y="-385" type="line" smooth="no"/>
      <point x="591" y="-385" type="line" smooth="no"/>
      <point x="591" y="-36" type="line" smooth="no"/>
      <point x="381.992" y="-23.46"/>
      <point x="212.159" y="18.0498"/>
      <point x="67" y="87" type="curve" smooth="no"/>
      <point x="67" y="494" type="line" smooth="no"/>
      <point x="368" y="494" type="line" smooth="no"/>
      <point x="423.657" y="416.937"/>
      <point x="503.99" y="354"/>
      <point x="620" y="354" type="curve" smooth="yes"/>
      <point x="712.789" y="354"/>
      <point x="748" y="404.267"/>
      <point x="748" y="502" type="curve" smooth="no"/>
      <point x="388.209" y="535.469"/>
      <point x="54" y="640.224"/>
      <point x="54" y="1033" type="curve" smooth="yes"/>
      <point x="54" y="1388.73"/>
      <point x="272.438" y="1535.63"/>
      <point x="591" y="1569" type="curve" smooth="no"/>
      <point x="591" y="1920" type="line" smooth="no"/>
      <point x="911" y="1920" type="line" smooth="no"/>
      <point x="911" y="1567" type="line" smooth="no"/>
      <point x="1084.3" y="1548.65"/>
      <point x="1232.07" y="1511.48"/>
      <point x="1355" y="1450" type="curve" smooth="no"/>
      <point x="1355" y="1043" type="line" smooth="no"/>
      <point x="1054" y="1043" type="line" smooth="no"/>
      <point x="1000.14" y="1119.04"/>
      <point x="924.368" y="1183"/>
      <point x="812" y="1183" type="curve" smooth="yes"/>
      <point x="718.994" y="1183"/>
      <point x="680" y="1121.97"/>
      <point x="680" y="1024" type="curve" smooth="no"/>
      <point x="1089.2" y="1009.97"/>
      <point x="1388" y="899.744"/>
    </contour>
  </outline>
</glyph>
<glyph name="ampersand" format="1">
  <advance width="2935"/>
  <unicode hex="0026"/>
  <outline>
    <contour>
      <point x="2116" y="504" type="line" smooth="yes"/>
      <point x="2116" y="407.266"/>
      <point x="2210.25" y="361"/>
      <point x="2311" y="361" type="curve" smooth="yes"/>
      <point x="2434.78" y="361"/>
      <point x="2521.05" y="422.743"/>
      <point x="2583" y="501" type="curve" smooth="no"/>
      <point x="2884" y="501" type="line" smooth="no"/>
      <point x="2884" y="95" type="line" smooth="no"/>
      <point x="2694.27" y="16.2451"/>
      <point x="2473.6" y="-29"/>
      <point x="2196" y="-29" type="curve" smooth="yes"/>
      <point x="1948.49" y="-29"/>
      <point x="1761.17" y="31.9229"/>
      <point x="1633" y="143" type="curve" smooth="no"/>
      <point x="1428.93" y="20.1191"/>
      <point x="1163.85" y="-29"/>
      <point x="843" y="-29" type="curve" smooth="yes"/>
      <point x="497.966" y="-29"/>
      <point x="216.433" y="75.6133"/>
      <point x="101.5" y="296" type="curve" smooth="yes"/>
      <point x="69.167" y="358"/>
      <point x="53" y="421.667"/>
      <point x="53" y="487" type="curve" smooth="yes"/>
      <point x="53" y="686.824"/>
      <point x="121.045" y="785.236"/>
      <point x="258" y="847" type="curve" smooth="no"/>
      <point x="146.354" y="886.873"/>
      <point x="73" y="991.122"/>
      <point x="73" y="1147" type="curve" smooth="yes"/>
      <point x="73" y="1289.51"/>
      <point x="159.503" y="1355.12"/>
      <point x="244" y="1418" type="curve" smooth="yes"/>
      <point x="369.297" y="1510.17"/>
      <point x="546.786" y="1559"/>
      <point x="773" y="1559" type="curve" smooth="yes"/>
      <point x="987.695" y="1559"/>
      <point x="1164.97" y="1503.69"/>
      <point x="1321" y="1433" type="curve" smooth="no"/>
      <point x="1321" y="1113" type="line" smooth="no"/>
      <point x="1020" y="1113" type="line" smooth="no"/>
      <point x="1003.06" y="1191.36"/>
      <point x="948.992" y="1251"/>
      <point x="857" y="1251" type="curve" smooth="yes"/>
      <point x="769.75" y="1251"/>
      <point x="693" y="1197.08"/>
      <point x="693" y="1110" type="curve" smooth="yes"/>
      <point x="693" y="1039.83"/>
      <point x="746.365" y="995"/>
      <point x="818" y="995" type="curve" smooth="yes"/>
      <point x="1476" y="995" type="line" smooth="no"/>
      <point x="1476" y="1536" type="line" smooth="no"/>
      <point x="2116" y="1536" type="line" smooth="no"/>
      <point x="2116" y="996" type="line" smooth="no"/>
      <point x="2500" y="996" type="line" smooth="no"/>
      <point x="2500" y="700" type="line" smooth="no"/>
      <point x="2117" y="700" type="line" smooth="no"/>
      <point x="2116.33" y="686.667"/>
      <point x="2116" y="673.667"/>
      <point x="2116" y="661" type="curve" smooth="yes"/>
    </contour>
    <contour>
      <point x="693" y="544" type="curve" smooth="yes"/>
      <point x="693" y="410.275"/>
      <point x="846.035" y="361"/>
      <point x="988" y="361" type="curve" smooth="yes"/>
      <point x="1183.27" y="361"/>
      <point x="1345.08" y="400.49"/>
      <point x="1476" y="460" type="curve" smooth="no"/>
      <point x="1476" y="699" type="line" smooth="no"/>
      <point x="818" y="699" type="line" smooth="yes"/>
      <point x="736.151" y="699"/>
      <point x="693" y="626.012"/>
    </contour>
  </outline>
</glyph>
<glyph name="quotesingle" format="1">
  <advance width="440"/>
  <unicode hex="0027"/>
  <outline>
    <contour>
      <point x="377" y="1413" type="line" smooth="no"/>
      <point x="327" y="908" type="line" smooth="no"/>
      <point x="111" y="908" type="line" smooth="no"/>
      <point x="61" y="1413" type="line" smooth="no"/>
      <point x="61" y="1536" type="line" smooth="no"/>
      <point x="377" y="1536" type="line" smooth="no"/>
    </contour>
  </outline>
</glyph>
<glyph name="parenleft" format="1">
  <advance width="1055"/>
  <unicode hex="0028"/>
  <outline>
    <contour>
      <point x="995" y="-21" type="line" smooth="no"/>
      <point x="929.488" y="-34.3447"/>
      <point x="870.444" y="-41"/>
      <point x="797" y="-41" type="curve" smooth="yes"/>
      <point x="325.955" y="-41"/>
      <point x="54" y="302.577"/>
      <point x="54" y="768" type="curve" smooth="yes"/>
      <point x="54" y="1171"/>
      <point x="260.303" y="1448.81"/>
      <point x="570" y="1545" type="curve" smooth="yes"/>
      <point x="638.667" y="1566.33"/>
      <point x="714.334" y="1577"/>
      <point x="797" y="1577" type="curve" smooth="yes"/>
      <point x="870.334" y="1577"/>
      <point x="929.579" y="1570.33"/>
      <point x="995" y="1557" type="curve" smooth="no"/>
      <point x="995" y="1205" type="line" smooth="no"/>
      <point x="759.218" y="1198.17"/>
      <point x="662" y="1007.9"/>
      <point x="662" y="768" type="curve" smooth="yes"/>
      <point x="662" y="530.098"/>
      <point x="758.108" y="334.434"/>
      <point x="995" y="331" type="curve" smooth="no"/>
    </contour>
  </outline>
</glyph>
<glyph name="parenright" format="1">
  <advance width="1055"/>
  <unicode hex="0029"/>
  <outline>
    <contour>
      <point x="59" y="1557" type="line" smooth="no"/>
      <point x="124.512" y="1570.34"/>
      <point x="183.556" y="1577"/>
      <point x="257" y="1577" type="curve" smooth="yes"/>
      <point x="728.047" y="1577"/>
      <point x="1000" y="1233.42"/>
      <point x="1000" y="768" type="curve" smooth="yes"/>
      <point x="1000" y="364.989"/>
      <point x="793.693" y="87.2158"/>
      <point x="484" y="-9" type="curve" smooth="yes"/>
      <point x="415.333" y="-30.333"/>
      <point x="339.666" y="-41"/>
      <point x="257" y="-41" type="curve" smooth="yes"/>
      <point x="183.666" y="-41"/>
      <point x="124.421" y="-34.3262"/>
      <point x="59" y="-21" type="curve" smooth="no"/>
      <point x="59" y="331" type="line" smooth="no"/>
      <point x="294.788" y="337.841"/>
      <point x="392" y="528.065"/>
      <point x="392" y="768" type="curve" smooth="yes"/>
      <point x="392" y="1007.83"/>
      <point x="294.777" y="1198.26"/>
      <point x="59" y="1205" type="curve" smooth="no"/>
    </contour>
  </outline>
</glyph>
<glyph name="asterisk" format="1">
  <advance width="1225"/>
  <unicode hex="002a"/>
  <outline>
    <contour>
      <point x="767" y="349" type="line" smooth="no"/>
      <point x="449" y="349" type="line" smooth="no"/>
      <point x="449" y="474" type="line" smooth="no"/>
      <point x="469" y="652" type="line" smooth="no"/>
      <point x="341" y="528" type="line" smooth="no"/>
      <point x="244" y="452" type="line" smooth="no"/>
      <point x="48" y="700" type="line" smooth="no"/>
      <point x="145" y="776" type="line" smooth="no"/>
      <point x="400" y="940" type="line" smooth="no"/>
      <point x="140" y="1096" type="line" smooth="no"/>
      <point x="42" y="1170" type="line" smooth="no"/>
      <point x="230" y="1423" type="line" smooth="no"/>
      <point x="329" y="1350" type="line" smooth="no"/>
      <point x="475" y="1217" type="line" smooth="no"/>
      <point x="457" y="1414" type="line" smooth="no"/>
      <point x="457" y="1537" type="line" smooth="no"/>
      <point x="775" y="1537" type="line" smooth="no"/>
      <point x="775" y="1412" type="line" smooth="no"/>
      <point x="754" y="1234" type="line" smooth="no"/>
      <point x="883" y="1358" type="line" smooth="no"/>
      <point x="980" y="1434" type="line" smooth="no"/>
      <point x="1176" y="1186" type="line" smooth="no"/>
      <point x="1079" y="1110" type="line" smooth="no"/>
      <point x="822" y="947" type="line" smooth="no"/>
      <point x="1084" y="790" type="line" smooth="no"/>
      <point x="1182" y="716" type="line" smooth="no"/>
      <point x="994" y="463" type="line" smooth="no"/>
      <point x="895" y="536" type="line" smooth="no"/>
      <point x="748" y="668" type="line" smooth="no"/>
      <point x="767" y="472" type="line" smooth="no"/>
    </contour>
  </outline>
</glyph>
<glyph name="plus" format="1">
  <advance width="1146"/>
  <unicode hex="002b"/>
  <outline>
    <contour>
      <point x="60" y="896" type="line" smooth="no"/>
      <point x="444" y="896" type="line" smooth="no"/>
      <point x="444" y="1280" type="line" smooth="no"/>
      <point x="700" y="1280" type="line" smooth="no"/>
      <point x="700" y="896" type="line" smooth="no"/>
      <point x="1084" y="896" type="line" smooth="no"/>
      <point x="1084" y="640" type="line" smooth="no"/>
      <point x="700" y="640" type="line" smooth="no"/>
      <point x="700" y="256" type="line" smooth="no"/>
      <point x="444" y="256" type="line" smooth="no"/>
      <point x="444" y="640" type="line" smooth="no"/>
      <point x="60" y="640" type="line" smooth="no"/>
    </contour>
  </outline>
</glyph>
<glyph name="comma" format="1">
  <advance width="780"/>
  <unicode hex="002c"/>
  <outline>
    <contour>
      <point x="72" y="512" type="line" smooth="no"/>
      <point x="712" y="512" type="line" smooth="no"/>
      <point x="712" y="1" type="line" smooth="yes"/>
      <point x="712" y="-307.724"/>
      <point x="504.003" y="-452"/>
      <point x="200" y="-452" type="curve" smooth="no"/>
      <point x="200" y="-128" type="line" smooth="no"/>
      <point x="275.41" y="-124.031"/>
      <point x="327" y="-81.6582"/>
      <point x="327" y="0" type="curve" smooth="no"/>
      <point x="72" y="0" type="line" smooth="no"/>
    </contour>
  </outline>
</glyph>
<glyph name="hyphen" format="1">
  <advance width="656"/>
  <unicode hex="002d"/>
  <outline>
    <contour>
      <point x="583" y="896" type="line" smooth="no"/>
      <point x="583" y="640" type="line" smooth="no"/>
      <point x="71" y="640" type="line" smooth="no"/>
      <point x="71" y="896" type="line" smooth="no"/>
    </contour>
  </outline>
</glyph>
<glyph name="period" format="1">
  <advance width="782"/>
  <unicode hex="002e"/>
  <outline>
    <contour>
      <point x="73" y="512" type="line" smooth="no"/>
      <point x="713" y="512" type="line" smooth="no"/>
      <point x="713" y="0" type="line" smooth="no"/>
      <point x="73" y="0" type="line" smooth="no"/>
    </contour>
  </outline>
</glyph>
<glyph name="slash" format="1">
  <advance width="1098"/>
  <unicode hex="002f"/>
  <outline>
    <contour>
      <point x="421" y="1536" type="line" smooth="no"/>
      <point x="1061" y="1536" type="line" smooth="no"/>
      <point x="677" y="0" type="line" smooth="no"/>
      <point x="37" y="0" type="line" smooth="no"/>
    </contour>
  </outline>
</glyph>
<glyph name="zero" format="1">
  <advance width="1780"/>
  <unicode hex="0030"/>
  <outline>
    <contour>
      <point x="1725" y="786" type="curve" smooth="yes"/>
      <point x="1725" y="255.187"/>
      <point x="1413.37" y="-29"/>
      <point x="889" y="-29" type="curve" smooth="yes"/>
      <point x="362.153" y="-29"/>
      <point x="54" y="255.199"/>
      <point x="54" y="786" type="curve" smooth="yes"/>
      <point x="54" y="1296.85"/>
      <point x="381.217" y="1559"/>
      <point x="889" y="1559" type="curve" smooth="yes"/>
      <point x="1400.89" y="1559"/>
      <point x="1725" y="1299.91"/>
    </contour>
    <contour>
      <point x="1085" y="786" type="curve" smooth="yes"/>
      <point x="1085" y="952.1"/>
      <point x="1056.13" y="1102"/>
      <point x="889" y="1102" type="curve" smooth="yes"/>
      <point x="721.71" y="1102"/>
      <point x="694" y="952.081"/>
      <point x="694" y="786" type="curve" smooth="yes"/>
      <point x="694" y="619.523"/>
      <point x="721.349" y="465"/>
      <point x="889" y="465" type="curve" smooth="yes"/>
      <point x="1056.5" y="465"/>
      <point x="1085" y="619.492"/>
    </contour>
  </outline>
</glyph>
<glyph name="one" format="1">
  <advance width="1007"/>
  <unicode hex="0031"/>
  <outline>
    <contour>
      <point x="64" y="1458" type="line" smooth="no"/>
      <point x="832" y="1536" type="line" smooth="no"/>
      <point x="832" y="424" type="line" smooth="no"/>
      <point x="960" y="399" type="line" smooth="no"/>
      <point x="960" y="0" type="line" smooth="no"/>
      <point x="64" y="0" type="line" smooth="no"/>
      <point x="64" y="399" type="line" smooth="no"/>
      <point x="192" y="424" type="line" smooth="no"/>
      <point x="192" y="1024" type="line" smooth="no"/>
      <point x="64" y="1024" type="line" smooth="no"/>
    </contour>
  </outline>
</glyph>
<glyph name="two" format="1">
  <advance width="1418"/>
  <unicode hex="0032"/>
  <outline>
    <contour>
      <point x="632" y="1559" type="curve" smooth="yes"/>
      <point x="1025.49" y="1559"/>
      <point x="1359" y="1411.74"/>
      <point x="1359" y="1024" type="curve" smooth="yes"/>
      <point x="1359" y="782.113"/>
      <point x="1218.87" y="643.729"/>
      <point x="1070" y="550" type="curve" smooth="yes"/>
      <point x="988" y="497.333"/>
      <point x="892" y="457"/>
      <point x="782" y="429" type="curve" smooth="no"/>
      <point x="1350" y="429" type="line" smooth="no"/>
      <point x="1350" y="0" type="line" smooth="no"/>
      <point x="70" y="0" type="line" smooth="no"/>
      <point x="70" y="515" type="line" smooth="no"/>
      <point x="288.609" y="594.494"/>
      <point x="555.473" y="651.48"/>
      <point x="680" y="825.5" type="curve" smooth="yes"/>
      <point x="706" y="861.833"/>
      <point x="719" y="902"/>
      <point x="719" y="946" type="curve" smooth="yes"/>
      <point x="719" y="1051.37"/>
      <point x="654.863" y="1113"/>
      <point x="551" y="1113" type="curve" smooth="yes"/>
      <point x="466.288" y="1113"/>
      <point x="403.812" y="1039.62"/>
      <point x="371" y="973" type="curve" smooth="no"/>
      <point x="70" y="973" type="line" smooth="no"/>
      <point x="70" y="1433" type="line" smooth="no"/>
      <point x="218.886" y="1511.17"/>
      <point x="396.864" y="1559"/>
    </contour>
  </outline>
</glyph>
<glyph name="three" format="1">
  <advance width="1533"/>
  <unicode hex="0033"/>
  <outline>
    <contour>
      <point x="369" y="501" type="line" smooth="no"/>
      <point x="431.053" y="422.617"/>
      <point x="517.069" y="361"/>
      <point x="641" y="361" type="curve" smooth="yes"/>
      <point x="741.767" y="361"/>
      <point x="836" y="407.263"/>
      <point x="836" y="504" type="curve" smooth="yes"/>
      <point x="836" y="574.167"/>
      <point x="782.637" y="619"/>
      <point x="711" y="619" type="curve" smooth="yes"/>
      <point x="452" y="619" type="line" smooth="no"/>
      <point x="452" y="915" type="line" smooth="no"/>
      <point x="711" y="915" type="line" smooth="yes"/>
      <point x="782.645" y="915"/>
      <point x="836" y="959.832"/>
      <point x="836" y="1030" type="curve" smooth="yes"/>
      <point x="836" y="1126.73"/>
      <point x="741.748" y="1173"/>
      <point x="641" y="1173" type="curve" smooth="yes"/>
      <point x="517.221" y="1173"/>
      <point x="430.953" y="1111.26"/>
      <point x="369" y="1033" type="curve" smooth="no"/>
      <point x="68" y="1033" type="line" smooth="no"/>
      <point x="68" y="1433" type="line" smooth="no"/>
      <point x="258.188" y="1511.86"/>
      <point x="476.968" y="1559"/>
      <point x="756" y="1559" type="curve" smooth="yes"/>
      <point x="1073.5" y="1559"/>
      <point x="1327.93" y="1453.47"/>
      <point x="1431.5" y="1247.5" type="curve" smooth="yes"/>
      <point x="1461.17" y="1188.5"/>
      <point x="1476" y="1128.33"/>
      <point x="1476" y="1067" type="curve" smooth="yes"/>
      <point x="1476" y="911.562"/>
      <point x="1401.28" y="807.846"/>
      <point x="1291" y="767" type="curve" smooth="no"/>
      <point x="1397.42" y="721.392"/>
      <point x="1476" y="622.532"/>
      <point x="1476" y="467" type="curve" smooth="yes"/>
      <point x="1476" y="213.375"/>
      <point x="1277.83" y="77.9033"/>
      <point x="1072.5" y="13.5" type="curve" smooth="yes"/>
      <point x="982.167" y="-14.833"/>
      <point x="876.667" y="-29"/>
      <point x="756" y="-29" type="curve" smooth="yes"/>
      <point x="478.348" y="-29"/>
      <point x="257.777" y="16.2246"/>
      <point x="68" y="95" type="curve" smooth="no"/>
      <point x="68" y="501" type="line" smooth="no"/>
    </contour>
  </outline>
</glyph>
<glyph name="four" format="1">
  <advance width="1705"/>
  <unicode hex="0034"/>
  <outline>
    <contour>
      <point x="52" y="848" type="line" smooth="no"/>
      <point x="692" y="1536" type="line" smooth="no"/>
      <point x="1332" y="1576" type="line" smooth="no"/>
      <point x="1332" y="848" type="line" smooth="no"/>
      <point x="1652" y="848" type="line" smooth="no"/>
      <point x="1652" y="592" type="line" smooth="no"/>
      <point x="1332" y="592" type="line" smooth="no"/>
      <point x="1332" y="424" type="line" smooth="no"/>
      <point x="1460" y="399" type="line" smooth="no"/>
      <point x="1460" y="0" type="line" smooth="no"/>
      <point x="564" y="0" type="line" smooth="no"/>
      <point x="564" y="399" type="line" smooth="no"/>
      <point x="692" y="424" type="line" smooth="no"/>
      <point x="692" y="592" type="line" smooth="no"/>
      <point x="52" y="592" type="line" smooth="no"/>
    </contour>
    <contour>
      <point x="420" y="848" type="line" smooth="no"/>
      <point x="692" y="848" type="line" smooth="no"/>
      <point x="692" y="1168" type="line" smooth="no"/>
    </contour>
  </outline>
</glyph>
<glyph name="five" format="1">
  <advance width="1454"/>
  <unicode hex="0035"/>
  <outline>
    <contour>
      <point x="377" y="473" type="line" smooth="no"/>
      <point x="439.112" y="394.542"/>
      <point x="515.701" y="333"/>
      <point x="639" y="333" type="curve" smooth="yes"/>
      <point x="774.553" y="333"/>
      <point x="838" y="368.754"/>
      <point x="838" y="506" type="curve" smooth="yes"/>
      <point x="838" y="634.274"/>
      <point x="752.818" y="679"/>
      <point x="625" y="679" type="curve" smooth="yes"/>
      <point x="475.241" y="679"/>
      <point x="333.298" y="657.749"/>
      <point x="204" y="634" type="curve" smooth="no"/>
      <point x="78" y="738" type="line" smooth="no"/>
      <point x="78" y="1536" type="line" smooth="no"/>
      <point x="1300" y="1536" type="line" smooth="no"/>
      <point x="1300" y="1063" type="line" smooth="no"/>
      <point x="999" y="1063" type="line" smooth="no"/>
      <point x="932.747" y="1122.28"/>
      <point x="842.797" y="1162"/>
      <point x="727" y="1162" type="curve" smooth="yes"/>
      <point x="569" y="1162" type="line" smooth="no"/>
      <point x="554" y="927" type="line" smooth="no"/>
      <point x="616.995" y="953.831"/>
      <point x="693.749" y="972"/>
      <point x="777" y="972" type="curve" smooth="yes"/>
      <point x="1107.77" y="972"/>
      <point x="1408" y="844.874"/>
      <point x="1408" y="516" type="curve" smooth="yes"/>
      <point x="1408" y="124.875"/>
      <point x="1079.29" y="-29"/>
      <point x="687" y="-29" type="curve" smooth="yes"/>
      <point x="450.205" y="-29"/>
      <point x="245.588" y="22.0645"/>
      <point x="78" y="96" type="curve" smooth="no"/>
      <point x="78" y="473" type="line" smooth="no"/>
    </contour>
  </outline>
</glyph>
<glyph name="six" format="1">
  <advance width="1652"/>
  <unicode hex="0036"/>
  <outline>
    <contour>
      <point x="1163" y="1052" type="line" smooth="no"/>
      <point x="1098.65" y="1112.96"/>
      <point x="1006.05" y="1173"/>
      <point x="891" y="1173" type="curve" smooth="yes"/>
      <point x="745.4" y="1173"/>
      <point x="713.267" y="1066.96"/>
      <point x="702" y="925" type="curve" smooth="no"/>
      <point x="793.349" y="932.798"/>
      <point x="871.025" y="935"/>
      <point x="958" y="935" type="curve" smooth="yes"/>
      <point x="1282.83" y="935"/>
      <point x="1606" y="839.799"/>
      <point x="1606" y="516" type="curve" smooth="yes"/>
      <point x="1606" y="85.0059"/>
      <point x="1274.95" y="-29"/>
      <point x="836" y="-29" type="curve" smooth="yes"/>
      <point x="299.383" y="-29"/>
      <point x="56" y="229.209"/>
      <point x="56" y="767" type="curve" smooth="yes"/>
      <point x="56" y="1313.96"/>
      <point x="328.994" y="1559"/>
      <point x="876" y="1559" type="curve" smooth="yes"/>
      <point x="1116.16" y="1559"/>
      <point x="1309.67" y="1512.04"/>
      <point x="1464" y="1433" type="curve" smooth="no"/>
      <point x="1464" y="1052" type="line" smooth="no"/>
    </contour>
    <contour>
      <point x="1036" y="516" type="curve" smooth="yes"/>
      <point x="1036" y="626.051"/>
      <point x="980.175" y="650"/>
      <point x="871" y="650" type="curve" smooth="yes"/>
      <point x="797" y="650"/>
      <point x="740" y="644.667"/>
      <point x="700" y="634" type="curve" smooth="no"/>
      <point x="709.523" y="499.09"/>
      <point x="726.314" y="358"/>
      <point x="861" y="358" type="curve" smooth="yes"/>
      <point x="981.835" y="358"/>
      <point x="1036" y="393.985"/>
    </contour>
  </outline>
</glyph>
<glyph name="seven" format="1">
  <advance width="1262"/>
  <unicode hex="0037"/>
  <outline>
    <contour>
      <point x="1207" y="1152" type="line" smooth="no"/>
      <point x="1055.91" y="797.165"/>
      <point x="924.774" y="419.272"/>
      <point x="824" y="-1" type="curve" smooth="no"/>
      <point x="165" y="-1" type="line" smooth="no"/>
      <point x="261.967" y="422.128"/>
      <point x="397.119" y="833.1"/>
      <point x="589" y="1152" type="curve" smooth="no"/>
      <point x="429.027" y="1152"/>
      <point x="312.736" y="1092.83"/>
      <point x="222" y="1024" type="curve" smooth="no"/>
      <point x="55" y="1024" type="line" smooth="no"/>
      <point x="55" y="1536" type="line" smooth="no"/>
      <point x="1207" y="1536" type="line" smooth="no"/>
    </contour>
  </outline>
</glyph>
<glyph name="eight" format="1">
  <advance width="1561"/>
  <unicode hex="0038"/>
  <outline>
    <contour>
      <point x="783" y="1559" type="curve" smooth="yes"/>
      <point x="1144.21" y="1559"/>
      <point x="1468" y="1478.31"/>
      <point x="1468" y="1130" type="curve" smooth="yes"/>
      <point x="1468" y="960.649"/>
      <point x="1357.31" y="857.723"/>
      <point x="1240" y="788" type="curve" smooth="no"/>
      <point x="1372.12" y="725.086"/>
      <point x="1518" y="624.028"/>
      <point x="1518" y="436" type="curve" smooth="yes"/>
      <point x="1518" y="49.3818"/>
      <point x="1163.5" y="-29"/>
      <point x="765" y="-29" type="curve" smooth="yes"/>
      <point x="380.678" y="-29"/>
      <point x="48" y="63.7588"/>
      <point x="48" y="436" type="curve" smooth="yes"/>
      <point x="48" y="624.014"/>
      <point x="192.872" y="725.082"/>
      <point x="325" y="788" type="curve" smooth="no"/>
      <point x="207.444" y="857.867"/>
      <point x="98" y="960.414"/>
      <point x="98" y="1130" type="curve" smooth="yes"/>
      <point x="98" y="1478.76"/>
      <point x="421.803" y="1559"/>
    </contour>
    <contour>
      <point x="618" y="1060" type="curve" smooth="yes"/>
      <point x="618" y="951.564"/>
      <point x="675.323" y="923"/>
      <point x="783" y="923" type="curve" smooth="yes"/>
      <point x="890.672" y="923"/>
      <point x="948" y="951.562"/>
      <point x="948" y="1060" type="curve" smooth="yes"/>
      <point x="948" y="1174.62"/>
      <point x="896.715" y="1210"/>
      <point x="783" y="1210" type="curve" smooth="yes"/>
      <point x="669.078" y="1210"/>
      <point x="618" y="1174.67"/>
    </contour>
    <contour>
      <point x="968" y="480" type="curve" smooth="yes"/>
      <point x="968" y="609.722"/>
      <point x="911.451" y="652"/>
      <point x="783" y="652" type="curve" smooth="yes"/>
      <point x="654.556" y="652"/>
      <point x="598" y="609.724"/>
      <point x="598" y="480" type="curve" smooth="yes"/>
      <point x="598" y="360.605"/>
      <point x="664.024" y="337"/>
      <point x="783" y="337" type="curve" smooth="yes"/>
      <point x="901.972" y="337"/>
      <point x="968" y="360.604"/>
    </contour>
  </outline>
</glyph>
<glyph name="nine" format="1">
  <advance width="1655"/>
  <unicode hex="0039"/>
  <outline>
    <contour>
      <point x="492" y="503" type="line" smooth="no"/>
      <point x="554.053" y="424.617"/>
      <point x="640.069" y="363"/>
      <point x="764" y="363" type="curve" smooth="yes"/>
      <point x="918.177" y="363"/>
      <point x="943.7" y="479.339"/>
      <point x="953" y="630" type="curve" smooth="no"/>
      <point x="870.468" y="612.493"/>
      <point x="788.961" y="610"/>
      <point x="693" y="610" type="curve" smooth="yes"/>
      <point x="366.414" y="610"/>
      <point x="49" y="698.177"/>
      <point x="49" y="1020" type="curve" smooth="yes"/>
      <point x="49" y="1436.26"/>
      <point x="368.044" y="1559"/>
      <point x="819" y="1559" type="curve" smooth="yes"/>
      <point x="1351.97" y="1559"/>
      <point x="1599" y="1303.1"/>
      <point x="1599" y="769" type="curve" smooth="yes"/>
      <point x="1599" y="219.189"/>
      <point x="1329.06" y="-29"/>
      <point x="779" y="-29" type="curve" smooth="yes"/>
      <point x="542.885" y="-29"/>
      <point x="339.262" y="12.2793"/>
      <point x="191" y="97" type="curve" smooth="no"/>
      <point x="191" y="503" type="line" smooth="no"/>
    </contour>
    <contour>
      <point x="619" y="1020" type="curve" smooth="yes"/>
      <point x="619" y="914.772"/>
      <point x="679.295" y="894"/>
      <point x="784" y="894" type="curve" smooth="yes"/>
      <point x="857.333" y="894"/>
      <point x="914.333" y="899.333"/>
      <point x="955" y="910" type="curve" smooth="no"/>
      <point x="944.897" y="1048.07"/>
      <point x="933.96" y="1207"/>
      <point x="794" y="1207" type="curve" smooth="yes"/>
      <point x="654.421" y="1207"/>
      <point x="619" y="1161.79"/>
    </contour>
  </outline>
</glyph>
<glyph name="colon" format="1">
  <advance width="799"/>
  <unicode hex="003a"/>
  <outline>
    <contour>
      <point x="80" y="1408" type="line" smooth="no"/>
      <point x="720" y="1408" type="line" smooth="no"/>
      <point x="720" y="896" type="line" smooth="no"/>
      <point x="80" y="896" type="line" smooth="no"/>
    </contour>
    <contour>
      <point x="80" y="512" type="line" smooth="no"/>
      <point x="720" y="512" type="line" smooth="no"/>
      <point x="720" y="0" type="line" smooth="no"/>
      <point x="80" y="0" type="line" smooth="no"/>
    </contour>
  </outline>
</glyph>
<glyph name="semicolon" format="1">
  <advance width="798"/>
  <unicode hex="003b"/>
  <outline>
    <contour>
      <point x="77" y="1408" type="line" smooth="no"/>
      <point x="717" y="1408" type="line" smooth="no"/>
      <point x="717" y="896" type="line" smooth="no"/>
      <point x="77" y="896" type="line" smooth="no"/>
    </contour>
    <contour>
      <point x="81" y="512" type="line" smooth="no"/>
      <point x="721" y="512" type="line" smooth="no"/>
      <point x="721" y="1" type="line" smooth="yes"/>
      <point x="721" y="-307.724"/>
      <point x="513.003" y="-452"/>
      <point x="209" y="-452" type="curve" smooth="no"/>
      <point x="209" y="-128" type="line" smooth="no"/>
      <point x="284.41" y="-124.031"/>
      <point x="336" y="-81.6582"/>
      <point x="336" y="0" type="curve" smooth="no"/>
      <point x="81" y="0" type="line" smooth="no"/>
    </contour>
  </outline>
</glyph>
<glyph name="less" format="1">
  <advance width="1145"/>
  <unicode hex="003c"/>
  <outline>
    <contour>
      <point x="522" y="627" type="line" smooth="no"/>
      <point x="1066" y="464" type="line" smooth="no"/>
      <point x="1066" y="-17" type="line" smooth="no"/>
      <point x="73" y="357" type="line" smooth="no"/>
      <point x="73" y="1047" type="line" smooth="no"/>
      <point x="1066" y="1421" type="line" smooth="no"/>
      <point x="1066" y="789" type="line" smooth="no"/>
    </contour>
  </outline>
</glyph>
<glyph name="equal" format="1">
  <advance width="856"/>
  <unicode hex="003d"/>
  <outline>
    <contour>
      <point x="777" y="896" type="line" smooth="no"/>
      <point x="777" y="640" type="line" smooth="no"/>
      <point x="79" y="640" type="line" smooth="no"/>
      <point x="79" y="896" type="line" smooth="no"/>
    </contour>
    <contour>
      <point x="777" y="428" type="line" smooth="no"/>
      <point x="777" y="172" type="line" smooth="no"/>
      <point x="79" y="172" type="line" smooth="no"/>
      <point x="79" y="428" type="line" smooth="no"/>
    </contour>
  </outline>
</glyph>
<glyph name="greater" format="1">
  <advance width="1143"/>
  <unicode hex="003e"/>
  <outline>
    <contour>
      <point x="78" y="789" type="line" smooth="no"/>
      <point x="78" y="1421" type="line" smooth="no"/>
      <point x="1071" y="1047" type="line" smooth="no"/>
      <point x="1071" y="357" type="line" smooth="no"/>
      <point x="78" y="-17" type="line" smooth="no"/>
      <point x="78" y="464" type="line" smooth="no"/>
      <point x="622" y="627" type="line" smooth="no"/>
    </contour>
  </outline>
</glyph>
<glyph name="question" format="1">
  <advance width="1383"/>
  <unicode hex="003f"/>
  <outline>
    <contour>
      <point x="1333" y="1087" type="curve" smooth="yes"/>
      <point x="1333" y="788.537"/>
      <point x="1125.57" y="683.637"/>
      <point x="881" y="629" type="curve" smooth="no"/>
      <point x="881" y="512" type="line" smooth="no"/>
      <point x="244" y="512" type="line" smooth="yes"/>
      <point x="243.333" y="511.333"/>
      <point x="242.333" y="511"/>
      <point x="241" y="511" type="curve" smooth="no"/>
      <point x="241" y="856" type="line" smooth="no"/>
      <point x="377.59" y="915.759"/>
      <point x="565.94" y="928.113"/>
      <point x="663" y="1023.5" type="curve" smooth="yes"/>
      <point x="682.333" y="1042.5"/>
      <point x="692" y="1063.67"/>
      <point x="692" y="1087" type="curve" smooth="yes"/>
      <point x="692" y="1164.17"/>
      <point x="640.114" y="1214"/>
      <point x="564" y="1214" type="curve" smooth="yes"/>
      <point x="468.761" y="1214"/>
      <point x="398.425" y="1165.54"/>
      <point x="352" y="1104" type="curve" smooth="no"/>
      <point x="51" y="1104" type="line" smooth="no"/>
      <point x="51" y="1450" type="line" smooth="no"/>
      <point x="208.469" y="1528.73"/>
      <point x="398.907" y="1576"/>
      <point x="643" y="1576" type="curve" smooth="yes"/>
      <point x="1021.16" y="1576"/>
      <point x="1333" y="1459.8"/>
    </contour>
    <contour>
      <point x="241" y="383" type="line" smooth="no"/>
      <point x="881" y="383" type="line" smooth="no"/>
      <point x="881" y="-1" type="line" smooth="no"/>
      <point x="241" y="-1" type="line" smooth="no"/>
    </contour>
  </outline>
</glyph>
<glyph name="at" format="1">
  <advance width="1851"/>
  <unicode hex="0040"/>
  <outline>
    <contour>
      <point x="1492" y="32" type="line" smooth="no"/>
      <point x="1333.65" y="-12.5361"/>
      <point x="1156.44" y="-40"/>
      <point x="962" y="-40" type="curve" smooth="yes"/>
      <point x="516.87" y="-40"/>
      <point x="196.809" y="179.139"/>
      <point x="88" y="518" type="curve" smooth="yes"/>
      <point x="64.667" y="590.667"/>
      <point x="53" y="670.334"/>
      <point x="53" y="757" type="curve" smooth="yes"/>
      <point x="53" y="1181.65"/>
      <point x="330.547" y="1453.7"/>
      <point x="664" y="1546.5" type="curve" smooth="yes"/>
      <point x="734.667" y="1566.17"/>
      <point x="808.334" y="1576"/>
      <point x="885" y="1576" type="curve" smooth="yes"/>
      <point x="1327.56" y="1576"/>
      <point x="1654.73" y="1345.82"/>
      <point x="1765.5" y="1013.5" type="curve" smooth="yes"/>
      <point x="1787.17" y="948.5"/>
      <point x="1798" y="881"/>
      <point x="1798" y="811" type="curve" smooth="yes"/>
      <point x="1798" y="529.455"/>
      <point x="1663.02" y="343"/>
      <point x="1379" y="343" type="curve" smooth="yes"/>
      <point x="1258.6" y="343"/>
      <point x="1127.28" y="388.158"/>
      <point x="1079" y="462" type="curve" smooth="no"/>
      <point x="1000.95" y="400.211"/>
      <point x="911.812" y="359"/>
      <point x="791" y="359" type="curve" smooth="yes"/>
      <point x="594.688" y="359"/>
      <point x="471" y="549.426"/>
      <point x="471" y="746" type="curve" smooth="yes"/>
      <point x="471" y="1034.3"/>
      <point x="624.675" y="1205"/>
      <point x="910" y="1205" type="curve" smooth="yes"/>
      <point x="1060.52" y="1205"/>
      <point x="1190.24" y="1164.53"/>
      <point x="1301" y="1118" type="curve" smooth="no"/>
      <point x="1301" y="599" type="line" smooth="yes"/>
      <point x="1301" y="553.206"/>
      <point x="1354.58" y="533"/>
      <point x="1403" y="533" type="curve" smooth="yes"/>
      <point x="1506.57" y="533"/>
      <point x="1532" y="696.426"/>
      <point x="1532" y="812" type="curve" smooth="yes"/>
      <point x="1532" y="1073.28"/>
      <point x="1337.1" y="1231.13"/>
      <point x="1138" y="1302" type="curve" smooth="yes"/>
      <point x="1059.33" y="1330"/>
      <point x="975.332" y="1344"/>
      <point x="886" y="1344" type="curve" smooth="yes"/>
      <point x="553.354" y="1344"/>
      <point x="322" y="1086.74"/>
      <point x="322" y="758" type="curve" smooth="yes"/>
      <point x="322" y="393.344"/>
      <point x="601.34" y="201"/>
      <point x="963" y="201" type="curve" smooth="yes"/>
      <point x="1156.73" y="201"/>
      <point x="1341.53" y="231.259"/>
      <point x="1492" y="281" type="curve" smooth="no"/>
    </contour>
    <contour>
      <point x="897" y="557" type="curve" smooth="yes"/>
      <point x="947.446" y="557"/>
      <point x="985.02" y="572.958"/>
      <point x="1025" y="594" type="curve" smooth="no"/>
      <point x="1025" y="1014" type="line" smooth="no"/>
      <point x="998.459" y="1017.62"/>
      <point x="964.893" y="1020"/>
      <point x="936" y="1020" type="curve" smooth="yes"/>
      <point x="796.73" y="1020"/>
      <point x="748" y="942.279"/>
      <point x="748" y="796" type="curve" smooth="yes"/>
      <point x="748" y="674.925"/>
      <point x="778.098" y="557"/>
    </contour>
  </outline>
</glyph>
<glyph name="A" format="1">
  <advance width="1817"/>
  <unicode hex="0041"/>
  <outline>
    <contour>
      <point x="1171" y="0" type="line" smooth="no"/>
      <point x="1117" y="258" type="line" smooth="no"/>
      <point x="699" y="258" type="line" smooth="no"/>
      <point x="646" y="0" type="line" smooth="no"/>
      <point x="77" y="0" type="line" smooth="no"/>
      <point x="77" y="504" type="line" smooth="no"/>
      <point x="200" y="529" type="line" smooth="no"/>
      <point x="495" y="1536" type="line" smooth="no"/>
      <point x="1321" y="1536" type="line" smooth="no"/>
      <point x="1617" y="529" type="line" smooth="no"/>
      <point x="1740" y="504" type="line" smooth="no"/>
      <point x="1740" y="0" type="line" smooth="no"/>
    </contour>
    <contour>
      <point x="785" y="601" type="line" smooth="no"/>
      <point x="1031" y="601" type="line" smooth="no"/>
      <point x="908" y="1180" type="line" smooth="no"/>
    </contour>
  </outline>
</glyph>
<glyph name="B" format="1">
  <advance width="1844"/>
  <unicode hex="0042"/>
  <outline>
    <contour>
      <point x="1782" y="459" type="curve" smooth="yes"/>
      <point x="1782" y="122.635"/>
      <point x="1581.55" y="0"/>
      <point x="1236" y="0" type="curve" smooth="yes"/>
      <point x="45" y="0" type="line" smooth="no"/>
      <point x="45" y="434" type="line" smooth="no"/>
      <point x="203" y="459" type="line" smooth="no"/>
      <point x="203" y="1114" type="line" smooth="no"/>
      <point x="45" y="1139" type="line" smooth="no"/>
      <point x="45" y="1536" type="line" smooth="no"/>
      <point x="1367" y="1536" type="line" smooth="no"/>
      <point x="1555.07" y="1490.77"/>
      <point x="1680" y="1394.95"/>
      <point x="1680" y="1177" type="curve" smooth="yes"/>
      <point x="1680" y="965.296"/>
      <point x="1589.79" y="786"/>
      <point x="1389" y="786" type="curve" smooth="no"/>
      <point x="1604.24" y="774.962"/>
      <point x="1782" y="687.054"/>
    </contour>
    <contour>
      <point x="937" y="893" type="line" smooth="yes"/>
      <point x="1065.57" y="893"/>
      <point x="1142" y="912.605"/>
      <point x="1142" y="1044" type="curve" smooth="yes"/>
      <point x="1142" y="1167.33"/>
      <point x="1058.4" y="1180"/>
      <point x="937" y="1180" type="curve" smooth="yes"/>
      <point x="843" y="1180" type="line" smooth="no"/>
      <point x="843" y="893" type="line" smooth="no"/>
    </contour>
    <contour>
      <point x="937" y="393" type="line" smooth="yes"/>
      <point x="1066.12" y="393"/>
      <point x="1142" y="413.087"/>
      <point x="1142" y="545" type="curve" smooth="yes"/>
      <point x="1142" y="667.741"/>
      <point x="1057.8" y="680"/>
      <point x="937" y="680" type="curve" smooth="yes"/>
      <point x="843" y="680" type="line" smooth="no"/>
      <point x="843" y="393" type="line" smooth="no"/>
    </contour>
  </outline>
</glyph>
<glyph name="C" format="1">
  <advance width="1621"/>
  <unicode hex="0043"/>
  <outline>
    <contour>
      <point x="1002" y="1113" type="curve" smooth="yes"/>
      <point x="793.57" y="1113"/>
      <point x="693.629" y="963.329"/>
      <point x="693.629" y="807.079" type="curve" smooth="yes"/>
      <point x="693.629" y="553.756"/>
      <point x="864.849" y="473.533"/>
      <point x="1071.49" y="473.533" type="curve" smooth="yes"/>
      <point x="1228.77" y="473.533"/>
      <point x="1406.56" y="520.006"/>
      <point x="1545" y="572" type="curve" smooth="no"/>
      <point x="1545" y="84" type="line" smooth="no"/>
      <point x="1355.67" y="20.499"/>
      <point x="1162.94" y="-18"/>
      <point x="931" y="-18" type="curve" smooth="yes"/>
      <point x="401.226" y="-18"/>
      <point x="68" y="253.913"/>
      <point x="68" y="786" type="curve" smooth="yes"/>
      <point x="68" y="1316.13"/>
      <point x="394.245" y="1559"/>
      <point x="923" y="1559" type="curve" smooth="yes"/>
      <point x="1177.67" y="1559"/>
      <point x="1376.14" y="1510.09"/>
      <point x="1545" y="1433" type="curve" smooth="no"/>
      <point x="1545" y="935" type="line" smooth="no"/>
      <point x="1244" y="935" type="line" smooth="no"/>
      <point x="1190.14" y="1031.67"/>
      <point x="1114.37" y="1113"/>
    </contour>
  </outline>
</glyph>
<glyph name="D" format="1">
  <advance width="1876"/>
  <unicode hex="0044"/>
  <outline>
    <contour>
      <point x="1837" y="786" type="curve" smooth="yes"/>
      <point x="1837" y="187.053"/>
      <point x="1413.09" y="0"/>
      <point x="813" y="0" type="curve" smooth="yes"/>
      <point x="13" y="0" type="line" smooth="no"/>
      <point x="13" y="434" type="line" smooth="no"/>
      <point x="173" y="459" type="line" smooth="no"/>
      <point x="173" y="1114" type="line" smooth="no"/>
      <point x="13" y="1139" type="line" smooth="no"/>
      <point x="13" y="1536" type="line" smooth="no"/>
      <point x="1210" y="1536" type="line" smooth="no"/>
      <point x="1586.6" y="1455.48"/>
      <point x="1837" y="1241.89"/>
    </contour>
    <contour>
      <point x="911" y="459" type="line" smooth="yes"/>
      <point x="1080.88" y="459"/>
      <point x="1180.29" y="502.535"/>
      <point x="1191.5" y="652" type="curve" smooth="yes"/>
      <point x="1194.5" y="692"/>
      <point x="1196" y="736.667"/>
      <point x="1196" y="786" type="curve" smooth="yes"/>
      <point x="1196" y="1020.52"/>
      <point x="1151.73" y="1114"/>
      <point x="911" y="1114" type="curve" smooth="yes"/>
      <point x="813" y="1114" type="line" smooth="no"/>
      <point x="813" y="459" type="line" smooth="no"/>
    </contour>
  </outline>
</glyph>
<glyph name="E" format="1">
  <advance width="1495"/>
  <unicode hex="0045"/>
  <outline>
    <contour>
      <point x="846" y="384" type="line" smooth="no"/>
      <point x="1017.54" y="384"/>
      <point x="1149.98" y="439.283"/>
      <point x="1248" y="512" type="curve" smooth="no"/>
      <point x="1415" y="512" type="line" smooth="no"/>
      <point x="1415" y="0" type="line" smooth="no"/>
      <point x="48" y="0" type="line" smooth="no"/>
      <point x="48" y="434" type="line" smooth="no"/>
      <point x="206" y="459" type="line" smooth="no"/>
      <point x="206" y="1075" type="line" smooth="no"/>
      <point x="48" y="1100" type="line" smooth="no"/>
      <point x="48" y="1536" type="line" smooth="no"/>
      <point x="1415" y="1536" type="line" smooth="no"/>
      <point x="1415" y="1024" type="line" smooth="no"/>
      <point x="1254" y="1024" type="line" smooth="no"/>
      <point x="1151.59" y="1094.41"/>
      <point x="1019.73" y="1152"/>
      <point x="846" y="1152" type="curve" smooth="no"/>
      <point x="846" y="879" type="line" smooth="no"/>
      <point x="1146" y="944" type="line" smooth="no"/>
      <point x="1146" y="590" type="line" smooth="no"/>
      <point x="846" y="655" type="line" smooth="no"/>
    </contour>
  </outline>
</glyph>
<glyph name="F" format="1">
  <advance width="1389"/>
  <unicode hex="0046"/>
  <outline>
    <contour>
      <point x="844" y="879" type="line" smooth="no"/>
      <point x="1116" y="944" type="line" smooth="no"/>
      <point x="1116" y="590" type="line" smooth="no"/>
      <point x="844" y="655" type="line" smooth="no"/>
      <point x="844" y="459" type="line" smooth="no"/>
      <point x="1002" y="430" type="line" smooth="no"/>
      <point x="1002" y="0" type="line" smooth="no"/>
      <point x="46" y="0" type="line" smooth="no"/>
      <point x="46" y="434" type="line" smooth="no"/>
      <point x="204" y="459" type="line" smooth="no"/>
      <point x="204" y="1075" type="line" smooth="no"/>
      <point x="46" y="1100" type="line" smooth="no"/>
      <point x="46" y="1536" type="line" smooth="no"/>
      <point x="1313" y="1536" type="line" smooth="no"/>
      <point x="1313" y="1024" type="line" smooth="no"/>
      <point x="1145" y="1024" type="line" smooth="no"/>
      <point x="1073.26" y="1089.76"/>
      <point x="981.511" y="1152"/>
      <point x="844" y="1152" type="curve" smooth="no"/>
    </contour>
  </outline>
</glyph>
<glyph name="G" format="1">
  <advance width="1658"/>
  <unicode hex="0047"/>
  <outline>
    <contour>
      <point x="911" y="-18" type="curve" smooth="yes"/>
      <point x="381.305" y="-18"/>
      <point x="67" y="257.193"/>
      <point x="67" y="786" type="curve" smooth="yes"/>
      <point x="67" y="1300.63"/>
      <point x="371.369" y="1559"/>
      <point x="882" y="1559" type="curve" smooth="yes"/>
      <point x="1156.19" y="1559"/>
      <point x="1364.49" y="1514.67"/>
      <point x="1544" y="1430" type="curve" smooth="no"/>
      <point x="1544" y="973" type="line" smooth="no"/>
      <point x="1243" y="973" type="line" smooth="no"/>
      <point x="1189.14" y="1049.04"/>
      <point x="1113.37" y="1113"/>
      <point x="1001" y="1113" type="curve" smooth="yes"/>
      <point x="821.271" y="1113"/>
      <point x="708" y="969.988"/>
      <point x="708" y="786" type="curve" smooth="yes"/>
      <point x="708" y="569.789"/>
      <point x="803.114" y="453"/>
      <point x="1010" y="453" type="curve" smooth="yes"/>
      <point x="1062.64" y="453"/>
      <point x="1110.5" y="459.163"/>
      <point x="1156" y="469" type="curve" smooth="no"/>
      <point x="1156" y="590" type="line" smooth="no"/>
      <point x="964" y="590" type="line" smooth="no"/>
      <point x="964" y="864" type="line" smooth="no"/>
      <point x="1586" y="864" type="line" smooth="no"/>
      <point x="1586" y="134" type="line" smooth="no"/>
      <point x="1394.53" y="54.0205"/>
      <point x="1175.66" y="-18"/>
    </contour>
  </outline>
</glyph>
<glyph name="H" format="1">
  <advance width="2270"/>
  <unicode hex="0048"/>
  <outline>
    <contour>
      <point x="83" y="1536" type="line" smooth="no"/>
      <point x="1027" y="1536" type="line" smooth="no"/>
      <point x="1027" y="1100" type="line" smooth="no"/>
      <point x="879" y="1075" type="line" smooth="no"/>
      <point x="879" y="886" type="line" smooth="no"/>
      <point x="1391" y="886" type="line" smooth="no"/>
      <point x="1391" y="1075" type="line" smooth="no"/>
      <point x="1243" y="1100" type="line" smooth="no"/>
      <point x="1243" y="1536" type="line" smooth="no"/>
      <point x="2187" y="1536" type="line" smooth="no"/>
      <point x="2187" y="1100" type="line" smooth="no"/>
      <point x="2031" y="1075" type="line" smooth="no"/>
      <point x="2031" y="459" type="line" smooth="no"/>
      <point x="2187" y="434" type="line" smooth="no"/>
      <point x="2187" y="0" type="line" smooth="no"/>
      <point x="1243" y="0" type="line" smooth="no"/>
      <point x="1243" y="434" type="line" smooth="no"/>
      <point x="1391" y="459" type="line" smooth="no"/>
      <point x="1391" y="660" type="line" smooth="no"/>
      <point x="879" y="660" type="line" smooth="no"/>
      <point x="879" y="459" type="line" smooth="no"/>
      <point x="1027" y="434" type="line" smooth="no"/>
      <point x="1027" y="0" type="line" smooth="no"/>
      <point x="83" y="0" type="line" smooth="no"/>
      <point x="83" y="434" type="line" smooth="no"/>
      <point x="239" y="459" type="line" smooth="no"/>
      <point x="239" y="1075" type="line" smooth="no"/>
      <point x="83" y="1100" type="line" smooth="no"/>
    </contour>
  </outline>
</glyph>
<glyph name="I" format="1">
  <advance width="1052"/>
  <unicode hex="0049"/>
  <outline>
    <contour>
      <point x="48" y="1536" type="line" smooth="no"/>
      <point x="1004" y="1536" type="line" smooth="no"/>
      <point x="1004" y="1102" type="line" smooth="no"/>
      <point x="846" y="1077" type="line" smooth="no"/>
      <point x="846" y="459" type="line" smooth="no"/>
      <point x="1004" y="434" type="line" smooth="no"/>
      <point x="1004" y="0" type="line" smooth="no"/>
      <point x="48" y="0" type="line" smooth="no"/>
      <point x="48" y="434" type="line" smooth="no"/>
      <point x="206" y="459" type="line" smooth="no"/>
      <point x="206" y="1077" type="line" smooth="no"/>
      <point x="48" y="1102" type="line" smooth="no"/>
    </contour>
  </outline>
</glyph>
<glyph name="J" format="1">
  <advance width="1492"/>
  <unicode hex="004a"/>
  <outline>
    <contour>
      <point x="537" y="423" type="curve" smooth="yes"/>
      <point x="639.019" y="423"/>
      <point x="683" y="532.828"/>
      <point x="683" y="640" type="curve" smooth="yes"/>
      <point x="683" y="1077" type="line" smooth="no"/>
      <point x="525" y="1102" type="line" smooth="no"/>
      <point x="525" y="1536" type="line" smooth="no"/>
      <point x="1481" y="1536" type="line" smooth="no"/>
      <point x="1481" y="1102" type="line" smooth="no"/>
      <point x="1323" y="1077" type="line" smooth="no"/>
      <point x="1323" y="640" type="line" smooth="yes"/>
      <point x="1323" y="188.752"/>
      <point x="1066.54" y="-18"/>
      <point x="616" y="-18" type="curve" smooth="yes"/>
      <point x="379.068" y="-18"/>
      <point x="190.283" y="16.9932"/>
      <point x="44" y="99" type="curve" smooth="no"/>
      <point x="44" y="563" type="line" smooth="no"/>
      <point x="345" y="563" type="line" smooth="no"/>
      <point x="383.114" y="490.784"/>
      <point x="444.627" y="423"/>
    </contour>
  </outline>
</glyph>
<glyph name="K" format="1">
  <advance width="1994"/>
  <unicode hex="004b"/>
  <outline>
    <contour>
      <point x="1920" y="1290" type="line" smooth="no"/>
      <point x="1734.94" y="1155.06"/>
      <point x="1580.73" y="975.638"/>
      <point x="1453" y="786" type="curve" smooth="no"/>
      <point x="1593.67" y="591.742"/>
      <point x="1739.43" y="383.928"/>
      <point x="1918" y="227" type="curve" smooth="no"/>
      <point x="1919" y="0" type="line" smooth="no"/>
      <point x="1127" y="0" type="line" smooth="no"/>
      <point x="844" y="641" type="line" smooth="no"/>
      <point x="844" y="0" type="line" smooth="no"/>
      <point x="46" y="0" type="line" smooth="no"/>
      <point x="46" y="434" type="line" smooth="no"/>
      <point x="204" y="459" type="line" smooth="no"/>
      <point x="204" y="1077" type="line" smooth="no"/>
      <point x="46" y="1102" type="line" smooth="no"/>
      <point x="46" y="1536" type="line" smooth="no"/>
      <point x="844" y="1536" type="line" smooth="no"/>
      <point x="844" y="920" type="line" smooth="no"/>
      <point x="1127" y="1536" type="line" smooth="no"/>
      <point x="1919" y="1536" type="line" smooth="no"/>
    </contour>
  </outline>
</glyph>
<glyph name="L" format="1">
  <advance width="1372"/>
  <unicode hex="004c"/>
  <outline>
    <contour>
      <point x="844" y="384" type="line" smooth="no"/>
      <point x="973.026" y="384"/>
      <point x="1065.4" y="445.517"/>
      <point x="1129" y="512" type="curve" smooth="no"/>
      <point x="1296" y="512" type="line" smooth="no"/>
      <point x="1296" y="0" type="line" smooth="no"/>
      <point x="46" y="0" type="line" smooth="no"/>
      <point x="46" y="434" type="line" smooth="no"/>
      <point x="204" y="459" type="line" smooth="no"/>
      <point x="204" y="1077" type="line" smooth="no"/>
      <point x="46" y="1102" type="line" smooth="no"/>
      <point x="46" y="1536" type="line" smooth="no"/>
      <point x="992" y="1536" type="line" smooth="no"/>
      <point x="992" y="1102" type="line" smooth="no"/>
      <point x="844" y="1077" type="line" smooth="no"/>
    </contour>
  </outline>
</glyph>
<glyph name="M" format="1">
  <advance width="2332"/>
  <unicode hex="004d"/>
  <outline>
    <contour>
      <point x="845" y="749" type="line" smooth="no"/>
      <point x="845" y="0" type="line" smooth="no"/>
      <point x="48" y="0" type="line" smooth="no"/>
      <point x="48" y="434" type="line" smooth="no"/>
      <point x="206" y="459" type="line" smooth="no"/>
      <point x="206" y="1077" type="line" smooth="no"/>
      <point x="48" y="1102" type="line" smooth="no"/>
      <point x="48" y="1536" type="line" smooth="no"/>
      <point x="845" y="1536" type="line" smooth="no"/>
      <point x="1167" y="946" type="line" smooth="no"/>
      <point x="1486" y="1536" type="line" smooth="no"/>
      <point x="2284" y="1536" type="line" smooth="no"/>
      <point x="2284" y="1102" type="line" smooth="no"/>
      <point x="2126" y="1077" type="line" smooth="no"/>
      <point x="2126" y="459" type="line" smooth="no"/>
      <point x="2284" y="434" type="line" smooth="no"/>
      <point x="2284" y="0" type="line" smooth="no"/>
      <point x="1486" y="0" type="line" smooth="no"/>
      <point x="1486" y="749" type="line" smooth="no"/>
      <point x="1167" y="197" type="line" smooth="no"/>
    </contour>
  </outline>
</glyph>
<glyph name="N" format="1">
  <advance width="2006"/>
  <unicode hex="004e"/>
  <outline>
    <contour>
      <point x="621" y="749" type="line" smooth="no"/>
      <point x="621" y="459" type="line" smooth="no"/>
      <point x="749" y="435" type="line" smooth="no"/>
      <point x="749" y="0" type="line" smooth="no"/>
      <point x="81" y="0" type="line" smooth="no"/>
      <point x="81" y="434" type="line" smooth="no"/>
      <point x="237" y="459" type="line" smooth="no"/>
      <point x="237" y="1077" type="line" smooth="no"/>
      <point x="81" y="1102" type="line" smooth="no"/>
      <point x="81" y="1536" type="line" smooth="no"/>
      <point x="877" y="1536" type="line" smooth="no"/>
      <point x="1389" y="749" type="line" smooth="no"/>
      <point x="1389" y="1075" type="line" smooth="no"/>
      <point x="1261" y="1102" type="line" smooth="no"/>
      <point x="1261" y="1536" type="line" smooth="no"/>
      <point x="1929" y="1536" type="line" smooth="no"/>
      <point x="1929" y="1102" type="line" smooth="no"/>
      <point x="1773" y="1077" type="line" smooth="no"/>
      <point x="1773" y="0" type="line" smooth="no"/>
      <point x="1132" y="0" type="line" smooth="no"/>
    </contour>
  </outline>
</glyph>
<glyph name="O" format="1">
  <advance width="1928"/>
  <unicode hex="004f"/>
  <outline>
    <contour>
      <point x="1860" y="786" type="curve" smooth="yes"/>
      <point x="1860" y="234.909"/>
      <point x="1511.2" y="-18"/>
      <point x="963" y="-18" type="curve" smooth="yes"/>
      <point x="408.325" y="-18"/>
      <point x="68" y="232.078"/>
      <point x="68" y="786" type="curve" smooth="yes"/>
      <point x="68" y="1320.21"/>
      <point x="429.622" y="1559"/>
      <point x="963" y="1559" type="curve" smooth="yes"/>
      <point x="1496.41" y="1559"/>
      <point x="1860" y="1320.15"/>
    </contour>
    <contour>
      <point x="1220" y="786" type="curve" smooth="yes"/>
      <point x="1220" y="979.607"/>
      <point x="1158.99" y="1102"/>
      <point x="963" y="1102" type="curve" smooth="yes"/>
      <point x="766.971" y="1102"/>
      <point x="708" y="979.712"/>
      <point x="708" y="786" type="curve" smooth="yes"/>
      <point x="708" y="591.717"/>
      <point x="766.353" y="465"/>
      <point x="963" y="465" type="curve" smooth="yes"/>
      <point x="1159.62" y="465"/>
      <point x="1220" y="591.795"/>
    </contour>
  </outline>
</glyph>
<glyph name="P" format="1">
  <advance width="1783"/>
  <unicode hex="0050"/>
  <outline>
    <contour>
      <point x="1728" y="1065" type="curve" smooth="yes"/>
      <point x="1728" y="620.352"/>
      <point x="1286.16" y="590"/>
      <point x="832" y="590" type="curve" smooth="no"/>
      <point x="832" y="459" type="line" smooth="no"/>
      <point x="990" y="434" type="line" smooth="no"/>
      <point x="990" y="0" type="line" smooth="no"/>
      <point x="34" y="0" type="line" smooth="no"/>
      <point x="34" y="434" type="line" smooth="no"/>
      <point x="192" y="459" type="line" smooth="no"/>
      <point x="192" y="1077" type="line" smooth="no"/>
      <point x="34" y="1102" type="line" smooth="no"/>
      <point x="34" y="1536" type="line" smooth="no"/>
      <point x="935" y="1536" type="line" smooth="yes"/>
      <point x="1364.93" y="1536"/>
      <point x="1728" y="1487.93"/>
    </contour>
    <contour>
      <point x="832" y="865" type="line" smooth="no"/>
      <point x="991.026" y="865"/>
      <point x="1088" y="892.726"/>
      <point x="1088" y="1053" type="curve" smooth="yes"/>
      <point x="1088" y="1210.94"/>
      <point x="989.254" y="1237"/>
      <point x="832" y="1237" type="curve" smooth="no"/>
    </contour>
  </outline>
</glyph>
<glyph name="Q" format="1">
  <advance width="1928"/>
  <unicode hex="0051"/>
  <outline>
    <contour>
      <point x="1317" y="7" type="curve" smooth="no"/>
      <point x="1372.85" y="-62.8086"/>
      <point x="1442.57" y="-143.881"/>
      <point x="1496" y="-208" type="curve" smooth="no"/>
      <point x="1496" y="-459" type="line" smooth="no"/>
      <point x="900" y="-459" type="line" smooth="no"/>
      <point x="793.493" y="-341.475"/>
      <point x="711.809" y="-187.378"/>
      <point x="663" y="-7" type="curve" smooth="no"/>
      <point x="298.085" y="79.3535"/>
      <point x="68" y="333.581"/>
      <point x="68" y="786" type="curve" smooth="yes"/>
      <point x="68" y="1319.85"/>
      <point x="430.549" y="1559"/>
      <point x="963" y="1559" type="curve" smooth="yes"/>
      <point x="1494.74" y="1559"/>
      <point x="1860" y="1318.69"/>
      <point x="1860" y="786" type="curve" smooth="yes"/>
      <point x="1860" y="352.37"/>
      <point x="1649.77" y="106.83"/>
    </contour>
    <contour>
      <point x="1220" y="786" type="curve" smooth="yes"/>
      <point x="1220" y="979.607"/>
      <point x="1158.99" y="1102"/>
      <point x="963" y="1102" type="curve" smooth="yes"/>
      <point x="766.971" y="1102"/>
      <point x="708" y="979.712"/>
      <point x="708" y="786" type="curve" smooth="yes"/>
      <point x="708" y="591.717"/>
      <point x="766.353" y="465"/>
      <point x="963" y="465" type="curve" smooth="yes"/>
      <point x="1159.62" y="465"/>
      <point x="1220" y="591.795"/>
    </contour>
  </outline>
</glyph>
<glyph name="R" format="1">
  <advance width="1807"/>
  <unicode hex="0052"/>
  <outline>
    <contour>
      <point x="1434" y="651" type="curve" smooth="no"/>
      <point x="1536.39" y="464.777"/>
      <point x="1586.82" y="421.268"/>
      <point x="1783.69" y="421.268" type="curve" smooth="yes"/>
      <point x="1798.89" y="421.268"/>
      <point x="1814.96" y="421.527"/>
      <point x="1832" y="422" type="curve" smooth="no"/>
      <point x="1832" y="0" type="line" smooth="no"/>
      <point x="1102" y="0" type="line" smooth="no"/>
      <point x="1010.3" y="155.4"/>
      <point x="960.3" y="330.4"/>
      <point x="928" y="549" type="curve" smooth="no"/>
      <point x="843" y="549" type="line" smooth="no"/>
      <point x="843" y="0" type="line" smooth="no"/>
      <point x="45" y="0" type="line" smooth="no"/>
      <point x="45" y="434" type="line" smooth="no"/>
      <point x="203" y="459" type="line" smooth="no"/>
      <point x="203" y="1077" type="line" smooth="no"/>
      <point x="45" y="1102" type="line" smooth="no"/>
      <point x="45" y="1536" type="line" smooth="no"/>
      <point x="946" y="1536" type="line" smooth="yes"/>
      <point x="1386.6" y="1536"/>
      <point x="1738" y="1492.06"/>
      <point x="1738" y="1055" type="curve" smooth="yes"/>
      <point x="1738" y="811.518"/>
      <point x="1614.22" y="722.296"/>
    </contour>
    <contour>
      <point x="843" y="844" type="line" smooth="no"/>
      <point x="997.449" y="844"/>
      <point x="1099" y="863.866"/>
      <point x="1099" y="1019" type="curve" smooth="yes"/>
      <point x="1099" y="1171.91"/>
      <point x="995.548" y="1196"/>
      <point x="843" y="1196" type="curve" smooth="no"/>
    </contour>
  </outline>
</glyph>
<glyph name="S" format="1">
  <advance width="1444"/>
  <unicode hex="0053"/>
  <outline>
    <contour>
      <point x="683" y="1024" type="curve" smooth="no"/>
      <point x="1092.2" y="1009.97"/>
      <point x="1391" y="899.744"/>
      <point x="1391" y="482" type="curve" smooth="yes"/>
      <point x="1391" y="100.691"/>
      <point x="1088.47" y="-18"/>
      <point x="702" y="-18" type="curve" smooth="yes"/>
      <point x="454.211" y="-18"/>
      <point x="243.93" y="7.75781"/>
      <point x="70" y="99" type="curve" smooth="no"/>
      <point x="70" y="494" type="line" smooth="no"/>
      <point x="371" y="494" type="line" smooth="no"/>
      <point x="426.657" y="416.937"/>
      <point x="506.99" y="354"/>
      <point x="623" y="354" type="curve" smooth="yes"/>
      <point x="715.789" y="354"/>
      <point x="751" y="404.267"/>
      <point x="751" y="502" type="curve" smooth="no"/>
      <point x="391.209" y="535.469"/>
      <point x="57" y="640.224"/>
      <point x="57" y="1033" type="curve" smooth="yes"/>
      <point x="57" y="1426.02"/>
      <point x="342.196" y="1552"/>
      <point x="736" y="1552" type="curve" smooth="yes"/>
      <point x="995.769" y="1552"/>
      <point x="1187.99" y="1510.61"/>
      <point x="1358" y="1433" type="curve" smooth="no"/>
      <point x="1358" y="1043" type="line" smooth="no"/>
      <point x="1057" y="1043" type="line" smooth="no"/>
      <point x="1003.14" y="1119.04"/>
      <point x="927.368" y="1183"/>
      <point x="815" y="1183" type="curve" smooth="yes"/>
      <point x="721.995" y="1183"/>
      <point x="683" y="1121.97"/>
    </contour>
  </outline>
</glyph>
<glyph name="T" format="1">
  <advance width="1564"/>
  <unicode hex="0054"/>
  <outline>
    <contour>
      <point x="462" y="1152" type="line" smooth="no"/>
      <point x="356.789" y="1152"/>
      <point x="292.559" y="1084.25"/>
      <point x="246" y="1024" type="curve" smooth="no"/>
      <point x="78" y="1024" type="line" smooth="no"/>
      <point x="78" y="1536" type="line" smooth="no"/>
      <point x="1486" y="1536" type="line" smooth="no"/>
      <point x="1486" y="1024" type="line" smooth="no"/>
      <point x="1318" y="1024" type="line" smooth="no"/>
      <point x="1271.57" y="1084.08"/>
      <point x="1207.04" y="1152"/>
      <point x="1102" y="1152" type="curve" smooth="no"/>
      <point x="1102" y="459" type="line" smooth="no"/>
      <point x="1260" y="434" type="line" smooth="no"/>
      <point x="1260" y="0" type="line" smooth="no"/>
      <point x="304" y="0" type="line" smooth="no"/>
      <point x="304" y="434" type="line" smooth="no"/>
      <point x="462" y="459" type="line" smooth="no"/>
    </contour>
  </outline>
</glyph>
<glyph name="U" format="1">
  <advance width="1975"/>
  <unicode hex="0055"/>
  <outline>
    <contour>
      <point x="1290" y="1077" type="line" smooth="no"/>
      <point x="1132" y="1102" type="line" smooth="no"/>
      <point x="1132" y="1536" type="line" smooth="no"/>
      <point x="1930" y="1536" type="line" smooth="no"/>
      <point x="1930" y="1102" type="line" smooth="no"/>
      <point x="1772" y="1077" type="line" smooth="no"/>
      <point x="1772" y="734" type="line" smooth="yes"/>
      <point x="1772" y="238.688"/>
      <point x="1527.96" y="-18"/>
      <point x="1041" y="-18" type="curve" smooth="yes"/>
      <point x="504.968" y="-18"/>
      <point x="203" y="198.434"/>
      <point x="203" y="734" type="curve" smooth="yes"/>
      <point x="203" y="1077" type="line" smooth="no"/>
      <point x="45" y="1102" type="line" smooth="no"/>
      <point x="45" y="1536" type="line" smooth="no"/>
      <point x="936" y="1536" type="line" smooth="no"/>
      <point x="936" y="1102" type="line" smooth="no"/>
      <point x="778" y="1077" type="line" smooth="no"/>
      <point x="778" y="754" type="line" smooth="yes"/>
      <point x="778" y="559.717"/>
      <point x="837.353" y="465"/>
      <point x="1034" y="465" type="curve" smooth="yes"/>
      <point x="1230.62" y="465"/>
      <point x="1290" y="559.795"/>
      <point x="1290" y="754" type="curve" smooth="yes"/>
    </contour>
  </outline>
</glyph>
<glyph name="V" format="1">
  <advance width="1987"/>
  <unicode hex="0056"/>
  <outline>
    <contour>
      <point x="638" y="-1" type="line" smooth="no"/>
      <point x="229" y="1078" type="line" smooth="no"/>
      <point x="47" y="1102" type="line" smooth="no"/>
      <point x="47" y="1536" type="line" smooth="no"/>
      <point x="1011" y="1536" type="line" smooth="no"/>
      <point x="1011" y="1102" type="line" smooth="no"/>
      <point x="901" y="1078" type="line" smooth="no"/>
      <point x="1074" y="509" type="line" smooth="no"/>
      <point x="1247" y="1078" type="line" smooth="no"/>
      <point x="1137" y="1102" type="line" smooth="no"/>
      <point x="1137" y="1536" type="line" smooth="no"/>
      <point x="1940" y="1536" type="line" smooth="no"/>
      <point x="1940" y="1102" type="line" smooth="no"/>
      <point x="1759" y="1078" type="line" smooth="no"/>
      <point x="1350" y="-1" type="line" smooth="no"/>
    </contour>
  </outline>
</glyph>
<glyph name="W" format="1">
  <advance width="3084"/>
  <unicode hex="0057"/>
  <outline>
    <contour>
      <point x="638" y="-1" type="line" smooth="no"/>
      <point x="229" y="1078" type="line" smooth="no"/>
      <point x="47" y="1102" type="line" smooth="no"/>
      <point x="47" y="1536" type="line" smooth="no"/>
      <point x="1048" y="1536" type="line" smooth="no"/>
      <point x="1048" y="1102" type="line" smooth="no"/>
      <point x="938" y="1078" type="line" smooth="no"/>
      <point x="1111" y="509" type="line" smooth="no"/>
      <point x="1284" y="1078" type="line" smooth="no"/>
      <point x="1174" y="1102" type="line" smooth="no"/>
      <point x="1174" y="1536" type="line" smooth="no"/>
      <point x="2145" y="1536" type="line" smooth="no"/>
      <point x="2145" y="1102" type="line" smooth="no"/>
      <point x="2035" y="1078" type="line" smooth="no"/>
      <point x="2208" y="509" type="line" smooth="no"/>
      <point x="2381" y="1078" type="line" smooth="no"/>
      <point x="2271" y="1102" type="line" smooth="no"/>
      <point x="2271" y="1536" type="line" smooth="no"/>
      <point x="3037" y="1536" type="line" smooth="no"/>
      <point x="3037" y="1102" type="line" smooth="no"/>
      <point x="2856" y="1078" type="line" smooth="no"/>
      <point x="2447" y="-1" type="line" smooth="no"/>
      <point x="1735" y="-1" type="line" smooth="no"/>
      <point x="1542" y="587" type="line" smooth="no"/>
      <point x="1350" y="-1" type="line" smooth="no"/>
    </contour>
  </outline>
</glyph>
<glyph name="X" format="1">
  <advance width="2060"/>
  <unicode hex="0058"/>
  <outline>
    <contour>
      <point x="1847" y="458" type="line" smooth="no"/>
      <point x="2029" y="434" type="line" smooth="no"/>
      <point x="2029" y="0" type="line" smooth="no"/>
      <point x="985" y="0" type="line" smooth="no"/>
      <point x="985" y="434" type="line" smooth="no"/>
      <point x="1095" y="458" type="line" smooth="no"/>
      <point x="862" y="636" type="line" smooth="no"/>
      <point x="669" y="458" type="line" smooth="no"/>
      <point x="859" y="434" type="line" smooth="no"/>
      <point x="859" y="0" type="line" smooth="no"/>
      <point x="56" y="0" type="line" smooth="no"/>
      <point x="56" y="434" type="line" smooth="no"/>
      <point x="237" y="458" type="line" smooth="no"/>
      <point x="606" y="788" type="line" smooth="no"/>
      <point x="247" y="1078" type="line" smooth="no"/>
      <point x="35" y="1102" type="line" smooth="no"/>
      <point x="35" y="1536" type="line" smooth="no"/>
      <point x="1043" y="1536" type="line" smooth="no"/>
      <point x="1043" y="1102" type="line" smooth="no"/>
      <point x="933" y="1078" type="line" smooth="no"/>
      <point x="1192" y="890" type="line" smooth="no"/>
      <point x="1365" y="1078" type="line" smooth="no"/>
      <point x="1178" y="1102" type="line" smooth="no"/>
      <point x="1178" y="1536" type="line" smooth="no"/>
      <point x="1978" y="1536" type="line" smooth="no"/>
      <point x="1978" y="1102" type="line" smooth="no"/>
      <point x="1767" y="1078" type="line" smooth="no"/>
      <point x="1468" y="768" type="line" smooth="no"/>
    </contour>
  </outline>
</glyph>
<glyph name="Y" format="1">
  <advance width="2067"/>
  <unicode hex="0059"/>
  <outline>
    <contour>
      <point x="550" y="0" type="line" smooth="no"/>
      <point x="550" y="432" type="line" smooth="no"/>
      <point x="678" y="464" type="line" smooth="no"/>
      <point x="239" y="1078" type="line" smooth="no"/>
      <point x="57" y="1102" type="line" smooth="no"/>
      <point x="57" y="1536" type="line" smooth="no"/>
      <point x="931" y="1536" type="line" smooth="no"/>
      <point x="931" y="1102" type="line" smooth="no"/>
      <point x="831" y="1078" type="line" smooth="no"/>
      <point x="1034" y="764" type="line" smooth="no"/>
      <point x="1237" y="1078" type="line" smooth="no"/>
      <point x="1137" y="1102" type="line" smooth="no"/>
      <point x="1137" y="1536" type="line" smooth="no"/>
      <point x="2020" y="1536" type="line" smooth="no"/>
      <point x="2020" y="1102" type="line" smooth="no"/>
      <point x="1829" y="1078" type="line" smooth="no"/>
      <point x="1390" y="464" type="line" smooth="no"/>
      <point x="1518" y="432" type="line" smooth="no"/>
      <point x="1518" y="0" type="line" smooth="no"/>
    </contour>
  </outline>
</glyph>
<glyph name="Z" format="1">
  <advance width="1393"/>
  <unicode hex="005a"/>
  <outline>
    <contour>
      <point x="863" y="399" type="curve" smooth="yes"/>
      <point x="989.751" y="399"/>
      <point x="1081.86" y="452.752"/>
      <point x="1150" y="512" type="curve" smooth="no"/>
      <point x="1318" y="512" type="line" smooth="no"/>
      <point x="1318" y="0" type="line" smooth="no"/>
      <point x="70" y="0" type="line" smooth="no"/>
      <point x="70" y="384" type="line" smooth="no"/>
      <point x="634" y="1152" type="line" smooth="no"/>
      <point x="485.095" y="1152"/>
      <point x="376.692" y="1092.28"/>
      <point x="296" y="1024" type="curve" smooth="no"/>
      <point x="128" y="1024" type="line" smooth="no"/>
      <point x="128" y="1536" type="line" smooth="no"/>
      <point x="1318" y="1536" type="line" smooth="no"/>
      <point x="1318" y="1122" type="line" smooth="no"/>
      <point x="814" y="402" type="line" smooth="no"/>
      <point x="830.667" y="400"/>
      <point x="847" y="399"/>
    </contour>
  </outline>
</glyph>
<glyph name="bracketleft" format="1">
  <advance width="1170"/>
  <unicode hex="005b"/>
  <outline>
    <contour>
      <point x="721" y="316" type="line" smooth="no"/>
      <point x="868.43" y="316"/>
      <point x="1000.63" y="348.878"/>
      <point x="1106" y="384" type="curve" smooth="no"/>
      <point x="1106" y="0" type="line" smooth="no"/>
      <point x="81" y="0" type="line" smooth="no"/>
      <point x="81" y="1536" type="line" smooth="no"/>
      <point x="1106" y="1536" type="line" smooth="no"/>
      <point x="1106" y="1151" type="line" smooth="no"/>
      <point x="995.512" y="1187.83"/>
      <point x="869.005" y="1219"/>
      <point x="721" y="1219" type="curve" smooth="no"/>
    </contour>
  </outline>
</glyph>
<glyph name="backslash" format="1">
  <advance width="1095"/>
  <unicode hex="005c"/>
  <outline>
    <contour>
      <point x="1060" y="0" type="line" smooth="no"/>
      <point x="420" y="0" type="line" smooth="no"/>
      <point x="36" y="1536" type="line" smooth="no"/>
      <point x="676" y="1536" type="line" smooth="no"/>
    </contour>
  </outline>
</glyph>
<glyph name="bracketright" format="1">
  <advance width="1171"/>
  <unicode hex="005d"/>
  <outline>
    <contour>
      <point x="449" y="1219" type="line" smooth="no"/>
      <point x="300.508" y="1219"/>
      <point x="169.932" y="1186.31"/>
      <point x="64" y="1151" type="curve" smooth="no"/>
      <point x="64" y="1536" type="line" smooth="no"/>
      <point x="1089" y="1536" type="line" smooth="no"/>
      <point x="1089" y="0" type="line" smooth="no"/>
      <point x="64" y="0" type="line" smooth="no"/>
      <point x="64" y="384" type="line" smooth="no"/>
      <point x="169.784" y="348.738"/>
      <point x="300.646" y="316"/>
      <point x="449" y="316" type="curve" smooth="no"/>
    </contour>
  </outline>
</glyph>
<glyph name="asciicircum" format="1">
  <advance width="1492"/>
  <unicode hex="005e"/>
  <outline>
    <contour>
      <point x="43" y="201" type="line" smooth="no"/>
      <point x="452" y="1280" type="line" smooth="no"/>
      <point x="1042" y="1280" type="line" smooth="no"/>
      <point x="1451" y="201" type="line" smooth="no"/>
      <point x="939" y="201" type="line" smooth="no"/>
      <point x="747" y="841" type="line" smooth="no"/>
      <point x="555" y="201" type="line" smooth="no"/>
    </contour>
  </outline>
</glyph>
<glyph name="underscore" format="1">
  <advance width="841"/>
  <unicode hex="005f"/>
  <outline>
    <contour>
      <point x="770" y="224" type="line" smooth="no"/>
      <point x="770" y="-32" type="line" smooth="no"/>
      <point x="72" y="-32" type="line" smooth="no"/>
      <point x="72" y="224" type="line" smooth="no"/>
    </contour>
  </outline>
</glyph>
<glyph name="grave" format="1">
  <advance width="996"/>
  <unicode hex="0060"/>
  <outline>
    <contour>
      <point x="83" y="2304" type="line" smooth="no"/>
      <point x="573" y="2304" type="line" smooth="no"/>
      <point x="912" y="1664" type="line" smooth="no"/>
      <point x="487" y="1664" type="line" smooth="no"/>
    </contour>
  </outline>
</glyph>
<glyph name="a" format="1">
  <advance width="1671"/>
  <unicode hex="0061"/>
  <outline>
    <contour>
      <point x="1078" y="0" type="line" smooth="no"/>
      <point x="1028" y="237" type="line" smooth="no"/>
      <point x="635" y="237" type="line" smooth="no"/>
      <point x="585" y="0" type="line" smooth="no"/>
      <point x="50" y="0" type="line" smooth="no"/>
      <point x="50" y="464" type="line" smooth="no"/>
      <point x="166" y="487" type="line" smooth="no"/>
      <point x="443" y="1408" type="line" smooth="no"/>
      <point x="1219" y="1408" type="line" smooth="no"/>
      <point x="1498" y="487" type="line" smooth="no"/>
      <point x="1613" y="464" type="line" smooth="no"/>
      <point x="1613" y="0" type="line" smooth="no"/>
    </contour>
    <contour>
      <point x="696" y="553" type="line" smooth="no"/>
      <point x="967" y="553" type="line" smooth="no"/>
      <point x="831" y="1106" type="line" smooth="no"/>
    </contour>
  </outline>
</glyph>
<glyph name="b" format="1">
  <advance width="1708"/>
  <unicode hex="0062"/>
  <outline>
    <contour>
      <point x="1669" y="422" type="curve" smooth="yes"/>
      <point x="1669" y="109.387"/>
      <point x="1476.59" y="0"/>
      <point x="1155" y="0" type="curve" smooth="yes"/>
      <point x="64" y="0" type="line" smooth="no"/>
      <point x="64" y="399" type="line" smooth="no"/>
      <point x="184" y="422" type="line" smooth="no"/>
      <point x="184" y="1025" type="line" smooth="no"/>
      <point x="64" y="1048" type="line" smooth="no"/>
      <point x="64" y="1408" type="line" smooth="no"/>
      <point x="1278" y="1408" type="line" smooth="no"/>
      <point x="1452.22" y="1366.8"/>
      <point x="1573" y="1283.09"/>
      <point x="1573" y="1083" type="curve" smooth="yes"/>
      <point x="1573" y="890.367"/>
      <point x="1490.8" y="737.034"/>
      <point x="1319.5" y="724.5" type="curve" smooth="yes"/>
      <point x="1299" y="723" type="line" smooth="no"/>
      <point x="1499.14" y="711.869"/>
      <point x="1669" y="634.712"/>
    </contour>
    <contour>
      <point x="874" y="822" type="line" smooth="yes"/>
      <point x="997.73" y="822"/>
      <point x="1067" y="843.17"/>
      <point x="1067" y="970" type="curve" smooth="yes"/>
      <point x="1067" y="1090.23"/>
      <point x="992.189" y="1106"/>
      <point x="874" y="1106" type="curve" smooth="yes"/>
      <point x="786" y="1106" type="line" smooth="no"/>
      <point x="786" y="822" type="line" smooth="no"/>
    </contour>
    <contour>
      <point x="874" y="342" type="line" smooth="yes"/>
      <point x="997.796" y="342"/>
      <point x="1067" y="364.257"/>
      <point x="1067" y="491" type="curve" smooth="yes"/>
      <point x="1067" y="610.688"/>
      <point x="991.613" y="626"/>
      <point x="874" y="626" type="curve" smooth="yes"/>
      <point x="786" y="626" type="line" smooth="no"/>
      <point x="786" y="342" type="line" smooth="no"/>
    </contour>
  </outline>
</glyph>
<glyph name="c" format="1">
  <advance width="1497"/>
  <unicode hex="0063"/>
  <outline>
    <contour>
      <point x="912" y="1024" type="curve" smooth="yes"/>
      <point x="744.315" y="1024"/>
      <point x="637" y="894.46"/>
      <point x="637" y="723" type="curve" smooth="yes"/>
      <point x="637" y="515.626"/>
      <point x="744.423" y="419"/>
      <point x="948" y="419" type="curve" smooth="yes"/>
      <point x="1116.88" y="419"/>
      <point x="1265.35" y="460.69"/>
      <point x="1422" y="508" type="curve" smooth="no"/>
      <point x="1422" y="73" type="line" smooth="no"/>
      <point x="1222" y="12.333"/>
      <point x="1029.67" y="-18"/>
      <point x="845" y="-18" type="curve" smooth="yes"/>
      <point x="348.393" y="-18"/>
      <point x="34" y="225.47"/>
      <point x="34" y="723" type="curve" smooth="yes"/>
      <point x="34" y="1221"/>
      <point x="340.862" y="1446"/>
      <point x="838" y="1446" type="curve" smooth="yes"/>
      <point x="1076.24" y="1446"/>
      <point x="1263.7" y="1401.49"/>
      <point x="1422" y="1330" type="curve" smooth="no"/>
      <point x="1422" y="895" type="line" smooth="no"/>
      <point x="1139" y="895" type="line" smooth="no"/>
      <point x="1087.8" y="965.394"/>
      <point x="1017.8" y="1024"/>
    </contour>
  </outline>
</glyph>
<glyph name="d" format="1">
  <advance width="1779"/>
  <unicode hex="0064"/>
  <outline>
    <contour>
      <point x="1748" y="723" type="curve" smooth="yes"/>
      <point x="1748" y="166.445"/>
      <point x="1343.59" y="0"/>
      <point x="786" y="0" type="curve" smooth="yes"/>
      <point x="64" y="0" type="line" smooth="no"/>
      <point x="64" y="399" type="line" smooth="no"/>
      <point x="184" y="422" type="line" smooth="no"/>
      <point x="184" y="1025" type="line" smooth="no"/>
      <point x="64" y="1048" type="line" smooth="no"/>
      <point x="64" y="1408" type="line" smooth="no"/>
      <point x="1159" y="1408" type="line" smooth="no"/>
      <point x="1508.65" y="1333.44"/>
      <point x="1748" y="1145.71"/>
    </contour>
    <contour>
      <point x="878" y="422" type="line" smooth="yes"/>
      <point x="1097.81" y="422"/>
      <point x="1146" y="501.304"/>
      <point x="1146" y="723" type="curve" smooth="yes"/>
      <point x="1146" y="940.373"/>
      <point x="1098.66" y="1025"/>
      <point x="878" y="1025" type="curve" smooth="yes"/>
      <point x="786" y="1025" type="line" smooth="no"/>
      <point x="786" y="422" type="line" smooth="no"/>
    </contour>
  </outline>
</glyph>
<glyph name="e" format="1">
  <advance width="1378"/>
  <unicode hex="0065"/>
  <outline>
    <contour>
      <point x="788" y="402" type="line" smooth="no"/>
      <point x="943.96" y="402"/>
      <point x="1077.8" y="442.844"/>
      <point x="1165" y="512" type="curve" smooth="no"/>
      <point x="1302" y="512" type="line" smooth="no"/>
      <point x="1302" y="0" type="line" smooth="no"/>
      <point x="66" y="0" type="line" smooth="no"/>
      <point x="66" y="399" type="line" smooth="no"/>
      <point x="186" y="422" type="line" smooth="no"/>
      <point x="186" y="989" type="line" smooth="no"/>
      <point x="66" y="1012" type="line" smooth="no"/>
      <point x="66" y="1408" type="line" smooth="no"/>
      <point x="1302" y="1408" type="line" smooth="no"/>
      <point x="1302" y="896" type="line" smooth="no"/>
      <point x="1165" y="896" type="line" smooth="no"/>
      <point x="1076.36" y="963.242"/>
      <point x="943.099" y="1006"/>
      <point x="788" y="1006" type="curve" smooth="no"/>
      <point x="788" y="789" type="line" smooth="no"/>
      <point x="1065" y="848" type="line" smooth="no"/>
      <point x="1065" y="563" type="line" smooth="no"/>
      <point x="788" y="623" type="line" smooth="no"/>
    </contour>
  </outline>
</glyph>
<glyph name="f" format="1">
  <advance width="1291"/>
  <unicode hex="0066"/>
  <outline>
    <contour>
      <point x="788" y="759" type="line" smooth="no"/>
      <point x="1044" y="818" type="line" smooth="no"/>
      <point x="1044" y="513" type="line" smooth="no"/>
      <point x="788" y="573" type="line" smooth="no"/>
      <point x="788" y="422" type="line" smooth="no"/>
      <point x="908" y="396" type="line" smooth="no"/>
      <point x="908" y="0" type="line" smooth="no"/>
      <point x="66" y="0" type="line" smooth="no"/>
      <point x="66" y="399" type="line" smooth="no"/>
      <point x="186" y="422" type="line" smooth="no"/>
      <point x="186" y="989" type="line" smooth="no"/>
      <point x="66" y="1012" type="line" smooth="no"/>
      <point x="66" y="1408" type="line" smooth="no"/>
      <point x="1229" y="1408" type="line" smooth="no"/>
      <point x="1229" y="896" type="line" smooth="no"/>
      <point x="1062" y="896" type="line" smooth="no"/>
      <point x="1004.34" y="956.334"/>
      <point x="907.36" y="1006"/>
      <point x="788" y="1006" type="curve" smooth="no"/>
    </contour>
  </outline>
</glyph>
<glyph name="g" format="1">
  <advance width="1525"/>
  <unicode hex="0067"/>
  <outline>
    <contour>
      <point x="827" y="-18" type="curve" smooth="yes"/>
      <point x="335.273" y="-18"/>
      <point x="34" y="229.382"/>
      <point x="34" y="723" type="curve" smooth="yes"/>
      <point x="34" y="1221.1"/>
      <point x="340.54" y="1446"/>
      <point x="838" y="1446" type="curve" smooth="yes"/>
      <point x="1076.24" y="1446"/>
      <point x="1263.7" y="1401.49"/>
      <point x="1422" y="1330" type="curve" smooth="no"/>
      <point x="1422" y="895" type="line" smooth="no"/>
      <point x="1139" y="895" type="line" smooth="no"/>
      <point x="1087.64" y="968.684"/>
      <point x="1035.38" y="1024"/>
      <point x="912" y="1024" type="curve" smooth="yes"/>
      <point x="731.409" y="1024"/>
      <point x="637" y="908.483"/>
      <point x="637" y="723" type="curve" smooth="yes"/>
      <point x="637" y="505.922"/>
      <point x="706.812" y="399"/>
      <point x="920" y="399" type="curve" smooth="yes"/>
      <point x="980.07" y="399"/>
      <point x="1026.53" y="406.992"/>
      <point x="1078" y="423" type="curve" smooth="no"/>
      <point x="1078" y="537" type="line" smooth="no"/>
      <point x="877" y="537" type="line" smooth="no"/>
      <point x="877" y="783" type="line" smooth="no"/>
      <point x="1462" y="783" type="line" smooth="no"/>
      <point x="1462" y="119" type="line" smooth="no"/>
      <point x="1281.43" y="43.3535"/>
      <point x="1079.15" y="-18"/>
    </contour>
  </outline>
</glyph>
<glyph name="h" format="1">
  <advance width="2061"/>
  <unicode hex="0068"/>
  <outline>
    <contour>
      <point x="66" y="1408" type="line" smooth="no"/>
      <point x="908" y="1408" type="line" smooth="no"/>
      <point x="908" y="1012" type="line" smooth="no"/>
      <point x="788" y="989" type="line" smooth="no"/>
      <point x="788" y="824" type="line" smooth="no"/>
      <point x="1269" y="824" type="line" smooth="no"/>
      <point x="1269" y="989" type="line" smooth="no"/>
      <point x="1149" y="1012" type="line" smooth="no"/>
      <point x="1149" y="1413" type="line" smooth="no"/>
      <point x="1991" y="1413" type="line" smooth="no"/>
      <point x="1991" y="1012" type="line" smooth="no"/>
      <point x="1871" y="989" type="line" smooth="no"/>
      <point x="1871" y="422" type="line" smooth="no"/>
      <point x="1991" y="399" type="line" smooth="no"/>
      <point x="1991" y="0" type="line" smooth="no"/>
      <point x="1149" y="0" type="line" smooth="no"/>
      <point x="1149" y="399" type="line" smooth="no"/>
      <point x="1269" y="422" type="line" smooth="no"/>
      <point x="1269" y="589" type="line" smooth="no"/>
      <point x="788" y="589" type="line" smooth="no"/>
      <point x="788" y="422" type="line" smooth="no"/>
      <point x="908" y="399" type="line" smooth="no"/>
      <point x="908" y="0" type="line" smooth="no"/>
      <point x="66" y="0" type="line" smooth="no"/>
      <point x="66" y="399" type="line" smooth="no"/>
      <point x="186" y="422" type="line" smooth="no"/>
      <point x="186" y="989" type="line" smooth="no"/>
      <point x="66" y="1012" type="line" smooth="no"/>
    </contour>
  </outline>
</glyph>
<glyph name="j" format="1">
  <advance width="1430"/>
  <unicode hex="006a"/>
  <outline>
    <contour>
      <point x="514" y="389" type="curve" smooth="yes"/>
      <point x="608.538" y="389"/>
      <point x="652" y="489.662"/>
      <point x="652" y="589" type="curve" smooth="yes"/>
      <point x="652" y="991" type="line" smooth="no"/>
      <point x="531" y="1014" type="line" smooth="no"/>
      <point x="531" y="1408" type="line" smooth="no"/>
      <point x="1374" y="1408" type="line" smooth="no"/>
      <point x="1374" y="1014" type="line" smooth="no"/>
      <point x="1253" y="991" type="line" smooth="no"/>
      <point x="1253" y="589" type="line" smooth="yes"/>
      <point x="1253" y="166.225"/>
      <point x="1012.12" y="-18"/>
      <point x="589" y="-18" type="curve" smooth="yes"/>
      <point x="358.198" y="-18"/>
      <point x="195.38" y="12.8594"/>
      <point x="51" y="87" type="curve" smooth="no"/>
      <point x="51" y="518" type="line" smooth="no"/>
      <point x="334" y="518" type="line" smooth="no"/>
      <point x="370.246" y="451.55"/>
      <point x="427.752" y="389"/>
    </contour>
  </outline>
</glyph>
<glyph name="k" format="1">
  <advance width="1783"/>
  <unicode hex="006b"/>
  <outline>
    <contour>
      <point x="1350" y="725" type="curve" smooth="no"/>
      <point x="1463.75" y="544.175"/>
      <point x="1584.92" y="356.087"/>
      <point x="1729" y="204" type="curve" smooth="no"/>
      <point x="1729" y="0" type="line" smooth="no"/>
      <point x="1054" y="0" type="line" smooth="no"/>
      <point x="788" y="590" type="line" smooth="no"/>
      <point x="788" y="0" type="line" smooth="no"/>
      <point x="66" y="0" type="line" smooth="no"/>
      <point x="66" y="399" type="line" smooth="no"/>
      <point x="186" y="422" type="line" smooth="no"/>
      <point x="186" y="991" type="line" smooth="no"/>
      <point x="66" y="1014" type="line" smooth="no"/>
      <point x="66" y="1408" type="line" smooth="no"/>
      <point x="788" y="1408" type="line" smooth="no"/>
      <point x="788" y="846" type="line" smooth="no"/>
      <point x="1054" y="1408" type="line" smooth="no"/>
      <point x="1702" y="1408" type="line" smooth="no"/>
      <point x="1702" y="1154" type="line" smooth="no"/>
      <point x="1562.02" y="1035.37"/>
      <point x="1446.64" y="882.839"/>
    </contour>
  </outline>
</glyph>
<glyph name="m" format="1">
  <advance width="2181"/>
  <unicode hex="006d"/>
  <outline>
    <contour>
      <point x="787" y="689" type="line" smooth="no"/>
      <point x="787" y="0" type="line" smooth="no"/>
      <point x="66" y="0" type="line" smooth="no"/>
      <point x="66" y="399" type="line" smooth="no"/>
      <point x="186" y="422" type="line" smooth="no"/>
      <point x="186" y="991" type="line" smooth="no"/>
      <point x="66" y="1014" type="line" smooth="no"/>
      <point x="66" y="1408" type="line" smooth="no"/>
      <point x="787" y="1408" type="line" smooth="no"/>
      <point x="1090" y="870" type="line" smooth="no"/>
      <point x="1390" y="1408" type="line" smooth="no"/>
      <point x="2111" y="1408" type="line" smooth="no"/>
      <point x="2111" y="1014" type="line" smooth="no"/>
      <point x="1991" y="991" type="line" smooth="no"/>
      <point x="1991" y="422" type="line" smooth="no"/>
      <point x="2111" y="399" type="line" smooth="no"/>
      <point x="2111" y="0" type="line" smooth="no"/>
      <point x="1390" y="0" type="line" smooth="no"/>
      <point x="1390" y="689" type="line" smooth="no"/>
      <point x="1090" y="181" type="line" smooth="no"/>
    </contour>
  </outline>
</glyph>
<glyph name="n" format="1">
  <advance width="1820"/>
  <unicode hex="006e"/>
  <outline>
    <contour>
      <point x="547" y="739" type="line" smooth="no"/>
      <point x="547" y="422" type="line" smooth="no"/>
      <point x="668" y="400" type="line" smooth="no"/>
      <point x="668" y="0" type="line" smooth="no"/>
      <point x="66" y="0" type="line" smooth="no"/>
      <point x="66" y="399" type="line" smooth="no"/>
      <point x="186" y="422" type="line" smooth="no"/>
      <point x="186" y="991" type="line" smooth="no"/>
      <point x="66" y="1014" type="line" smooth="no"/>
      <point x="66" y="1408" type="line" smooth="no"/>
      <point x="788" y="1408" type="line" smooth="no"/>
      <point x="1269" y="649" type="line" smooth="no"/>
      <point x="1269" y="989" type="line" smooth="no"/>
      <point x="1149" y="1014" type="line" smooth="no"/>
      <point x="1149" y="1408" type="line" smooth="no"/>
      <point x="1750" y="1408" type="line" smooth="no"/>
      <point x="1750" y="1014" type="line" smooth="no"/>
      <point x="1630" y="991" type="line" smooth="no"/>
      <point x="1630" y="422" type="line" smooth="no"/>
      <point x="1750" y="399" type="line" smooth="no"/>
      <point x="1750" y="0" type="line" smooth="no"/>
      <point x="1028" y="0" type="line" smooth="no"/>
    </contour>
  </outline>
</glyph>
<glyph name="o" format="1">
  <advance width="1749"/>
  <unicode hex="006f"/>
  <outline>
    <contour>
      <point x="1718" y="723" type="curve" smooth="yes"/>
      <point x="1718" y="208.391"/>
      <point x="1392.4" y="-18"/>
      <point x="875" y="-18" type="curve" smooth="yes"/>
      <point x="362.617" y="-18"/>
      <point x="34" y="209.346"/>
      <point x="34" y="723" type="curve" smooth="yes"/>
      <point x="34" y="1225.88"/>
      <point x="374.845" y="1446"/>
      <point x="875" y="1446" type="curve" smooth="yes"/>
      <point x="1374.71" y="1446"/>
      <point x="1718" y="1225.54"/>
    </contour>
    <contour>
      <point x="1117" y="723" type="curve" smooth="yes"/>
      <point x="1117" y="905.658"/>
      <point x="1059.85" y="1020"/>
      <point x="875" y="1020" type="curve" smooth="yes"/>
      <point x="692.542" y="1020"/>
      <point x="636" y="908.561"/>
      <point x="636" y="728" type="curve" smooth="yes"/>
      <point x="636" y="541.684"/>
      <point x="686.321" y="418"/>
      <point x="875" y="418" type="curve" smooth="yes"/>
      <point x="1060.81" y="418"/>
      <point x="1117" y="539.662"/>
    </contour>
  </outline>
</glyph>
<glyph name="p" format="1">
  <advance width="1667"/>
  <unicode hex="0070"/>
  <outline>
    <contour>
      <point x="1630" y="980" type="curve" smooth="yes"/>
      <point x="1630" y="567.344"/>
      <point x="1210.15" y="543"/>
      <point x="788" y="543" type="curve" smooth="no"/>
      <point x="788" y="422" type="line" smooth="no"/>
      <point x="908" y="399" type="line" smooth="no"/>
      <point x="908" y="0" type="line" smooth="no"/>
      <point x="66" y="0" type="line" smooth="no"/>
      <point x="66" y="399" type="line" smooth="no"/>
      <point x="186" y="422" type="line" smooth="no"/>
      <point x="186" y="991" type="line" smooth="no"/>
      <point x="66" y="1014" type="line" smooth="no"/>
      <point x="66" y="1408" type="line" smooth="no"/>
      <point x="885" y="1408" type="line" smooth="yes"/>
      <point x="1282.33" y="1408"/>
      <point x="1630" y="1370.79"/>
    </contour>
    <contour>
      <point x="788" y="796" type="line" smooth="no"/>
      <point x="945.321" y="796"/>
      <point x="1029" y="829.951"/>
      <point x="1029" y="989" type="curve" smooth="yes"/>
      <point x="1029" y="1141.08"/>
      <point x="939.276" y="1168"/>
      <point x="788" y="1168" type="curve" smooth="no"/>
    </contour>
  </outline>
</glyph>
<glyph name="q" format="1">
  <advance width="1749"/>
  <unicode hex="0071"/>
  <outline>
    <contour>
      <point x="1221" y="10" type="curve" smooth="no"/>
      <point x="1269.42" y="-49.9453"/>
      <point x="1332.46" y="-122.33"/>
      <point x="1380" y="-176" type="curve" smooth="no"/>
      <point x="1380" y="-407" type="line" smooth="no"/>
      <point x="907" y="-407" type="line" smooth="no"/>
      <point x="782.775" y="-305.075"/>
      <point x="662.434" y="-177.394"/>
      <point x="603" y="-9" type="curve" smooth="no"/>
      <point x="257.275" y="68.4424"/>
      <point x="34" y="298.96"/>
      <point x="34" y="723" type="curve" smooth="yes"/>
      <point x="34" y="1225.88"/>
      <point x="374.845" y="1446"/>
      <point x="875" y="1446" type="curve" smooth="yes"/>
      <point x="1374.71" y="1446"/>
      <point x="1718" y="1225.54"/>
      <point x="1718" y="723" type="curve" smooth="yes"/>
      <point x="1718" y="327.372"/>
      <point x="1522.81" y="103.287"/>
    </contour>
    <contour>
      <point x="885" y="1020" type="curve" smooth="yes"/>
      <point x="865" y="1020" type="line" smooth="yes"/>
      <point x="688.184" y="1020"/>
      <point x="636" y="902.464"/>
      <point x="636" y="728" type="curve" smooth="yes"/>
      <point x="636" y="541.684"/>
      <point x="686.321" y="418"/>
      <point x="875" y="418" type="curve" smooth="yes"/>
      <point x="1060.81" y="418"/>
      <point x="1117" y="539.662"/>
      <point x="1117" y="723" type="curve" smooth="yes"/>
      <point x="1117" y="900.559"/>
      <point x="1064.62" y="1020"/>
    </contour>
  </outline>
</glyph>
<glyph name="r" format="1">
  <advance width="1691"/>
  <unicode hex="0072"/>
  <outline>
    <contour>
      <point x="1343" y="599" type="curve" smooth="no"/>
      <point x="1408.99" y="467.012"/>
      <point x="1534.73" y="337.838"/>
      <point x="1629" y="231" type="curve" smooth="no"/>
      <point x="1629" y="0" type="line" smooth="no"/>
      <point x="1031" y="0" type="line" smooth="no"/>
      <point x="949.045" y="152.202"/>
      <point x="865.8" y="315.206"/>
      <point x="821" y="505" type="curve" smooth="no"/>
      <point x="788" y="505" type="line" smooth="no"/>
      <point x="788" y="0" type="line" smooth="no"/>
      <point x="66" y="0" type="line" smooth="no"/>
      <point x="66" y="399" type="line" smooth="no"/>
      <point x="186" y="422" type="line" smooth="no"/>
      <point x="186" y="991" type="line" smooth="no"/>
      <point x="66" y="1014" type="line" smooth="no"/>
      <point x="66" y="1408" type="line" smooth="no"/>
      <point x="885" y="1408" type="line" smooth="yes"/>
      <point x="1231.07" y="1408"/>
      <point x="1569.39" y="1381.75"/>
      <point x="1619" y="1094" type="curve" smooth="yes"/>
      <point x="1625.67" y="1055.33"/>
      <point x="1629" y="1014.33"/>
      <point x="1629" y="971" type="curve" smooth="yes"/>
      <point x="1629" y="745.319"/>
      <point x="1511.69" y="663.729"/>
    </contour>
    <contour>
      <point x="788" y="776" type="line" smooth="no"/>
      <point x="940.521" y="776"/>
      <point x="1029" y="803.251"/>
      <point x="1029" y="957" type="curve" smooth="yes"/>
      <point x="1029" y="1109.71"/>
      <point x="939.965" y="1140"/>
      <point x="788" y="1140" type="curve" smooth="no"/>
    </contour>
  </outline>
</glyph>
<glyph name="s" format="1">
  <advance width="1336"/>
  <unicode hex="0073"/>
  <outline>
    <contour>
      <point x="629" y="932" type="curve" smooth="no"/>
      <point x="1004.91" y="918.33"/>
      <point x="1295" y="827.049"/>
      <point x="1295" y="443" type="curve" smooth="yes"/>
      <point x="1295" y="81.252"/>
      <point x="1012.33" y="-18"/>
      <point x="647" y="-18" type="curve" smooth="yes"/>
      <point x="407.339" y="-18"/>
      <point x="234.377" y="11.3115"/>
      <point x="83" y="87" type="curve" smooth="no"/>
      <point x="83" y="434" type="line" smooth="no"/>
      <point x="366" y="434" type="line" smooth="no"/>
      <point x="410.205" y="364.535"/>
      <point x="475.033" y="306"/>
      <point x="573" y="306" type="curve" smooth="yes"/>
      <point x="668.251" y="306"/>
      <point x="693" y="370.594"/>
      <point x="693" y="472" type="curve" smooth="no"/>
      <point x="361.15" y="500.679"/>
      <point x="41" y="590.514"/>
      <point x="41" y="950" type="curve" smooth="yes"/>
      <point x="41" y="1321.42"/>
      <point x="309.709" y="1446"/>
      <point x="679" y="1446" type="curve" smooth="yes"/>
      <point x="912.141" y="1446"/>
      <point x="1090.54" y="1401"/>
      <point x="1244" y="1330" type="curve" smooth="no"/>
      <point x="1244" y="980" type="line" smooth="no"/>
      <point x="941" y="980" type="line" smooth="no"/>
      <point x="902.803" y="1052.37"/>
      <point x="846.038" y="1118"/>
      <point x="754" y="1118" type="curve" smooth="yes"/>
      <point x="657.161" y="1118"/>
      <point x="629" y="1035.52"/>
    </contour>
  </outline>
</glyph>
<glyph name="t" format="1">
  <advance width="1485"/>
  <unicode hex="0074"/>
  <outline>
    <contour>
      <point x="439" y="1036" type="line" smooth="no"/>
      <point x="340.917" y="1036"/>
      <point x="225" y="987.322"/>
      <point x="225" y="896" type="curve" smooth="no"/>
      <point x="58" y="896" type="line" smooth="no"/>
      <point x="58" y="1408" type="line" smooth="no"/>
      <point x="1422" y="1408" type="line" smooth="no"/>
      <point x="1422" y="896" type="line" smooth="no"/>
      <point x="1255" y="896" type="line" smooth="no"/>
      <point x="1255" y="988.377"/>
      <point x="1137.89" y="1036"/>
      <point x="1041" y="1036" type="curve" smooth="no"/>
      <point x="1041" y="422" type="line" smooth="no"/>
      <point x="1161" y="399" type="line" smooth="no"/>
      <point x="1161" y="0" type="line" smooth="no"/>
      <point x="319" y="0" type="line" smooth="no"/>
      <point x="319" y="399" type="line" smooth="no"/>
      <point x="439" y="422" type="line" smooth="no"/>
    </contour>
  </outline>
</glyph>
<glyph name="u" format="1">
  <advance width="1824"/>
  <unicode hex="0075"/>
  <outline>
    <contour>
      <point x="1194" y="745.5" type="line" smooth="yes"/>
      <point x="1194" y="770.226"/>
      <point x="1193" y="798.455"/>
      <point x="1193" y="825.5" type="curve" smooth="yes"/>
      <point x="1193" y="991" type="line" smooth="no"/>
      <point x="1073" y="1014" type="line" smooth="no"/>
      <point x="1073" y="1408" type="line" smooth="no"/>
      <point x="1767" y="1408" type="line" smooth="no"/>
      <point x="1767" y="1014" type="line" smooth="no"/>
      <point x="1646" y="991" type="line" smooth="no"/>
      <point x="1645.33" y="971"/>
      <point x="1645" y="951.5"/>
      <point x="1645" y="932.5" type="curve" smooth="yes"/>
      <point x="1645" y="723" type="line" smooth="yes"/>
      <point x="1645" y="254.062"/>
      <point x="1414.03" y="-18"/>
      <point x="952" y="-18" type="curve" smooth="yes"/>
      <point x="456.663" y="-18"/>
      <point x="171" y="224.254"/>
      <point x="171" y="723" type="curve" smooth="yes"/>
      <point x="171" y="991" type="line" smooth="no"/>
      <point x="51" y="1014" type="line" smooth="no"/>
      <point x="51" y="1408" type="line" smooth="no"/>
      <point x="832" y="1408" type="line" smooth="no"/>
      <point x="832" y="1014" type="line" smooth="no"/>
      <point x="712" y="991" type="line" smooth="no"/>
      <point x="712" y="823.5" type="line" smooth="yes"/>
      <point x="712" y="795.551"/>
      <point x="713" y="766.836"/>
      <point x="713" y="741.5" type="curve" smooth="yes"/>
      <point x="713" y="721" type="line" smooth="yes"/>
      <point x="713" y="541.288"/>
      <point x="770.164" y="428"/>
      <point x="952" y="428" type="curve" smooth="yes"/>
      <point x="1135.2" y="428"/>
      <point x="1194" y="542.371"/>
      <point x="1194" y="723" type="curve" smooth="yes"/>
    </contour>
  </outline>
</glyph>
<glyph name="v" format="1">
  <advance width="1834"/>
  <unicode hex="0076"/>
  <outline>
    <contour>
      <point x="569" y="-1" type="line" smooth="no"/>
      <point x="195" y="992" type="line" smooth="no"/>
      <point x="52" y="1014" type="line" smooth="no"/>
      <point x="52" y="1408" type="line" smooth="no"/>
      <point x="930" y="1408" type="line" smooth="no"/>
      <point x="930" y="1014" type="line" smooth="no"/>
      <point x="827" y="992" type="line" smooth="no"/>
      <point x="989" y="448" type="line" smooth="no"/>
      <point x="1152" y="992" type="line" smooth="no"/>
      <point x="1048" y="1014" type="line" smooth="no"/>
      <point x="1048" y="1408" type="line" smooth="no"/>
      <point x="1775" y="1408" type="line" smooth="no"/>
      <point x="1775" y="1014" type="line" smooth="no"/>
      <point x="1633" y="992" type="line" smooth="no"/>
      <point x="1259" y="-1" type="line" smooth="no"/>
    </contour>
  </outline>
</glyph>
<glyph name="w" format="1">
  <advance width="2865"/>
  <unicode hex="0077"/>
  <outline>
    <contour>
      <point x="579" y="-1" type="line" smooth="no"/>
      <point x="195" y="992" type="line" smooth="no"/>
      <point x="52" y="1014" type="line" smooth="no"/>
      <point x="52" y="1408" type="line" smooth="no"/>
      <point x="965" y="1408" type="line" smooth="no"/>
      <point x="965" y="1014" type="line" smooth="no"/>
      <point x="861" y="992" type="line" smooth="no"/>
      <point x="1024" y="468" type="line" smooth="no"/>
      <point x="1187" y="992" type="line" smooth="no"/>
      <point x="1083" y="1014" type="line" smooth="no"/>
      <point x="1083" y="1408" type="line" smooth="no"/>
      <point x="1996" y="1408" type="line" smooth="no"/>
      <point x="1996" y="1014" type="line" smooth="no"/>
      <point x="1893" y="992" type="line" smooth="no"/>
      <point x="2055" y="468" type="line" smooth="no"/>
      <point x="2218" y="992" type="line" smooth="no"/>
      <point x="2114" y="1014" type="line" smooth="no"/>
      <point x="2114" y="1413" type="line" smooth="no"/>
      <point x="2806" y="1413" type="line" smooth="no"/>
      <point x="2806" y="1014" type="line" smooth="no"/>
      <point x="2664" y="992" type="line" smooth="no"/>
      <point x="2280" y="-1" type="line" smooth="no"/>
      <point x="1611" y="-1" type="line" smooth="no"/>
      <point x="1429" y="540" type="line" smooth="no"/>
      <point x="1249" y="-1" type="line" smooth="no"/>
    </contour>
  </outline>
</glyph>
<glyph name="x" format="1">
  <advance width="1935"/>
  <unicode hex="0078"/>
  <outline>
    <contour>
      <point x="1735" y="421" type="line" smooth="no"/>
      <point x="1878" y="399" type="line" smooth="no"/>
      <point x="1878" y="0" type="line" smooth="no"/>
      <point x="925" y="0" type="line" smooth="no"/>
      <point x="925" y="399" type="line" smooth="no"/>
      <point x="1028" y="421" type="line" smooth="no"/>
      <point x="809" y="585" type="line" smooth="no"/>
      <point x="628" y="421" type="line" smooth="no"/>
      <point x="806" y="399" type="line" smooth="no"/>
      <point x="806" y="0" type="line" smooth="no"/>
      <point x="80" y="0" type="line" smooth="no"/>
      <point x="80" y="399" type="line" smooth="no"/>
      <point x="222" y="421" type="line" smooth="no"/>
      <point x="569" y="725" type="line" smooth="no"/>
      <point x="231" y="992" type="line" smooth="no"/>
      <point x="60" y="1014" type="line" smooth="no"/>
      <point x="60" y="1408" type="line" smooth="no"/>
      <point x="985" y="1408" type="line" smooth="no"/>
      <point x="985" y="1014" type="line" smooth="no"/>
      <point x="882" y="992" type="line" smooth="no"/>
      <point x="1119" y="819" type="line" smooth="no"/>
      <point x="1282" y="992" type="line" smooth="no"/>
      <point x="1103" y="1014" type="line" smooth="no"/>
      <point x="1103" y="1408" type="line" smooth="no"/>
      <point x="1830" y="1408" type="line" smooth="no"/>
      <point x="1830" y="1014" type="line" smooth="no"/>
      <point x="1660" y="992" type="line" smooth="no"/>
      <point x="1379" y="707" type="line" smooth="no"/>
    </contour>
  </outline>
</glyph>
<glyph name="y" format="1">
  <advance width="1911"/>
  <unicode hex="0079"/>
  <outline>
    <contour>
      <point x="499" y="0" type="line" smooth="no"/>
      <point x="499" y="397" type="line" smooth="no"/>
      <point x="619" y="427" type="line" smooth="no"/>
      <point x="206" y="992" type="line" smooth="no"/>
      <point x="54" y="1014" type="line" smooth="no"/>
      <point x="54" y="1408" type="line" smooth="no"/>
      <point x="857" y="1408" type="line" smooth="no"/>
      <point x="857" y="1014" type="line" smooth="no"/>
      <point x="763" y="992" type="line" smooth="no"/>
      <point x="954" y="703" type="line" smooth="no"/>
      <point x="1144" y="992" type="line" smooth="no"/>
      <point x="1050" y="1014" type="line" smooth="no"/>
      <point x="1050" y="1408" type="line" smooth="no"/>
      <point x="1852" y="1408" type="line" smooth="no"/>
      <point x="1852" y="1014" type="line" smooth="no"/>
      <point x="1701" y="992" type="line" smooth="no"/>
      <point x="1288" y="427" type="line" smooth="no"/>
      <point x="1409" y="397" type="line" smooth="no"/>
      <point x="1409" y="0" type="line" smooth="no"/>
    </contour>
  </outline>
</glyph>
<glyph name="z" format="1">
  <advance width="1261"/>
  <unicode hex="007a"/>
  <outline>
    <contour>
      <point x="772" y="365" type="curve" smooth="yes"/>
      <point x="887.878" y="365"/>
      <point x="972.298" y="415.255"/>
      <point x="1035" y="469" type="curve" smooth="no"/>
      <point x="1189" y="469" type="line" smooth="no"/>
      <point x="1189" y="0" type="line" smooth="no"/>
      <point x="46" y="0" type="line" smooth="no"/>
      <point x="46" y="352" type="line" smooth="no"/>
      <point x="563" y="1055" type="line" smooth="no"/>
      <point x="426.797" y="1055"/>
      <point x="325.688" y="1001.6"/>
      <point x="253" y="938" type="curve" smooth="no"/>
      <point x="99" y="938" type="line" smooth="no"/>
      <point x="99" y="1408" type="line" smooth="no"/>
      <point x="1189" y="1408" type="line" smooth="no"/>
      <point x="1189" y="1028" type="line" smooth="no"/>
      <point x="728" y="368" type="line" smooth="no"/>
      <point x="742.67" y="366"/>
      <point x="757.336" y="365"/>
    </contour>
  </outline>
</glyph>
<glyph name="braceleft" format="1">
  <advance width="1013"/>
  <unicode hex="007b"/>
  <outline>
    <contour>
      <point x="958" y="-21" type="line" smooth="no"/>
      <point x="875.48" y="-34.1553"/>
      <point x="794.119" y="-41"/>
      <point x="705" y="-41" type="curve" smooth="yes"/>
      <point x="401.996" y="-41"/>
      <point x="385.308" y="198.073"/>
      <point x="321" y="434.5" type="curve" smooth="yes"/>
      <point x="286.472" y="561.443"/>
      <point x="216.097" y="655"/>
      <point x="53" y="655" type="curve" smooth="no"/>
      <point x="53" y="1024" type="line" smooth="no"/>
      <point x="503.311" y="1024"/>
      <point x="183.251" y="1720"/>
      <point x="705" y="1720" type="curve" smooth="yes"/>
      <point x="793.964" y="1720"/>
      <point x="875.618" y="1713.13"/>
      <point x="958" y="1700" type="curve" smooth="no"/>
      <point x="958" y="1348" type="line" smooth="no"/>
      <point x="755.903" y="1348"/>
      <point x="740.902" y="1209.48"/>
      <point x="722.5" y="1027.5" type="curve" smooth="yes"/>
      <point x="712.676" y="930.351"/>
      <point x="677.023" y="860.557"/>
      <point x="589" y="839" type="curve" smooth="no"/>
      <point x="835.902" y="778.536"/>
      <point x="585" y="331"/>
      <point x="958" y="331" type="curve" smooth="no"/>
    </contour>
  </outline>
</glyph>
<glyph name="bar" format="1">
  <advance width="671"/>
  <unicode hex="007c"/>
  <outline>
    <contour>
      <point x="78" y="1664" type="line" smooth="no"/>
      <point x="591" y="1664" type="line" smooth="no"/>
      <point x="591" y="-128" type="line" smooth="no"/>
      <point x="78" y="-128" type="line" smooth="no"/>
    </contour>
  </outline>
</glyph>
<glyph name="braceright" format="1">
  <advance width="1012"/>
  <unicode hex="007d"/>
  <outline>
    <contour>
      <point x="53" y="1700" type="line" smooth="no"/>
      <point x="135.52" y="1713.16"/>
      <point x="216.881" y="1720"/>
      <point x="306" y="1720" type="curve" smooth="yes"/>
      <point x="653.208" y="1720"/>
      <point x="609.58" y="1416.21"/>
      <point x="715.5" y="1174.5" type="curve" smooth="yes"/>
      <point x="755.249" y="1083.79"/>
      <point x="826.562" y="1024"/>
      <point x="958" y="1024" type="curve" smooth="no"/>
      <point x="958" y="655" type="line" smooth="no"/>
      <point x="510.783" y="655"/>
      <point x="818.457" y="-41"/>
      <point x="306" y="-41" type="curve" smooth="yes"/>
      <point x="217.036" y="-41"/>
      <point x="135.382" y="-34.1338"/>
      <point x="53" y="-21" type="curve" smooth="no"/>
      <point x="53" y="331" type="line" smooth="no"/>
      <point x="257.421" y="331"/>
      <point x="267.498" y="467.973"/>
      <point x="288" y="650.5" type="curve" smooth="yes"/>
      <point x="298.873" y="747.272"/>
      <point x="333.5" y="817.326"/>
      <point x="422" y="839" type="curve" smooth="no"/>
      <point x="176.744" y="899.062"/>
      <point x="423.139" y="1348"/>
      <point x="53" y="1348" type="curve" smooth="no"/>
    </contour>
  </outline>
</glyph>
<glyph name="asciitilde" format="1">
  <advance width="1015"/>
  <unicode hex="007e"/>
  <outline>
    <contour>
      <point x="292" y="1153" type="curve" smooth="yes"/>
      <point x="440.391" y="1153"/>
      <point x="526.466" y="1038"/>
      <point x="677" y="1038" type="curve" smooth="yes"/>
      <point x="800.697" y="1038"/>
      <point x="878.317" y="1087.62"/>
      <point x="956" y="1159" type="curve" smooth="no"/>
      <point x="896" y="742" type="line" smooth="no"/>
      <point x="860.604" y="692.224"/>
      <point x="810.211" y="661"/>
      <point x="735" y="661" type="curve" smooth="yes"/>
      <point x="587.036" y="661"/>
      <point x="492.438" y="757"/>
      <point x="343" y="757" type="curve" smooth="yes"/>
      <point x="221.036" y="757"/>
      <point x="139.809" y="715.631"/>
      <point x="60" y="652" type="curve" smooth="no"/>
      <point x="122" y="1078" type="line" smooth="no"/>
      <point x="163.636" y="1125.26"/>
      <point x="213.185" y="1153"/>
    </contour>
  </outline>
</glyph>
<glyph name="exclamdown" format="1">
  <advance width="867"/>
  <unicode hex="00a1"/>
  <outline>
    <contour>
      <point x="112" y="1536" type="line" smooth="no"/>
      <point x="752" y="1536" type="line" smooth="no"/>
      <point x="752" y="1152" type="line" smooth="no"/>
      <point x="112" y="1152" type="line" smooth="no"/>
    </contour>
    <contour>
      <point x="176" y="1024" type="line" smooth="no"/>
      <point x="688" y="1024" type="line" smooth="no"/>
      <point x="816" y="399" type="line" smooth="no"/>
      <point x="816" y="0" type="line" smooth="no"/>
      <point x="112" y="0" type="line" smooth="no"/>
      <point x="47" y="399" type="line" smooth="no"/>
    </contour>
  </outline>
</glyph>
<glyph name="cent" format="1">
  <advance width="1505"/>
  <unicode hex="00a2"/>
  <outline>
    <contour>
      <point x="964" y="419" type="curve" smooth="yes"/>
      <point x="1130.94" y="419"/>
      <point x="1285.72" y="460.74"/>
      <point x="1438" y="508" type="curve" smooth="no"/>
      <point x="1438" y="65" type="line" smooth="no"/>
      <point x="1306" y="21"/>
      <point x="1176.67" y="-9"/>
      <point x="1050" y="-25" type="curve" smooth="no"/>
      <point x="1050" y="-258" type="line" smooth="no"/>
      <point x="665" y="-258" type="line" smooth="no"/>
      <point x="665" y="-21" type="line" smooth="no"/>
      <point x="292.717" y="42.4258"/>
      <point x="50" y="286.542"/>
      <point x="50" y="723" type="curve" smooth="yes"/>
      <point x="50" y="1159.59"/>
      <point x="282.337" y="1383.1"/>
      <point x="665" y="1437" type="curve" smooth="no"/>
      <point x="665" y="1664" type="line" smooth="no"/>
      <point x="1050" y="1664" type="line" smooth="no"/>
      <point x="1050" y="1438" type="line" smooth="no"/>
      <point x="1198.87" y="1419.89"/>
      <point x="1331.45" y="1389.25"/>
      <point x="1438" y="1334" type="curve" smooth="no"/>
      <point x="1438" y="895" type="line" smooth="no"/>
      <point x="1155" y="895" type="line" smooth="no"/>
      <point x="1103.8" y="965.394"/>
      <point x="1033.8" y="1024"/>
      <point x="928" y="1024" type="curve" smooth="yes"/>
      <point x="760.315" y="1024"/>
      <point x="653" y="894.46"/>
      <point x="653" y="723" type="curve" smooth="yes"/>
      <point x="653" y="515.626"/>
      <point x="760.423" y="419"/>
    </contour>
  </outline>
</glyph>
<glyph name="sterling" format="1">
  <advance width="1418"/>
  <unicode hex="00a3"/>
  <outline>
    <contour>
      <point x="708" y="344" type="line" smooth="no"/>
      <point x="900.342" y="344"/>
      <point x="1065.62" y="397.011"/>
      <point x="1183" y="472" type="curve" smooth="no"/>
      <point x="1350" y="472" type="line" smooth="no"/>
      <point x="1350" y="0" type="line" smooth="no"/>
      <point x="70" y="0" type="line" smooth="no"/>
      <point x="70" y="434" type="line" smooth="no"/>
      <point x="107.882" y="493.529"/>
      <point x="162.861" y="551.473"/>
      <point x="209" y="606" type="curve" smooth="no"/>
      <point x="70" y="606" type="line" smooth="no"/>
      <point x="70" y="832" type="line" smooth="no"/>
      <point x="217" y="832" type="line" smooth="no"/>
      <point x="123.667" y="949.333"/>
      <point x="77" y="1060"/>
      <point x="77" y="1164" type="curve" smooth="yes"/>
      <point x="77" y="1499.6"/>
      <point x="489.171" y="1576"/>
      <point x="839" y="1576" type="curve" smooth="yes"/>
      <point x="1052.09" y="1576"/>
      <point x="1220.08" y="1527.95"/>
      <point x="1350" y="1450" type="curve" smooth="no"/>
      <point x="1350" y="973" type="line" smooth="no"/>
      <point x="1050" y="973" type="line" smooth="no"/>
      <point x="1029.73" y="1058.58"/>
      <point x="965.578" y="1113"/>
      <point x="862" y="1113" type="curve" smooth="yes"/>
      <point x="786.324" y="1113"/>
      <point x="713" y="1055.55"/>
      <point x="713" y="980" type="curve" smooth="yes"/>
      <point x="713" y="920.753"/>
      <point x="741.486" y="872.131"/>
      <point x="770" y="832" type="curve" smooth="no"/>
      <point x="1094" y="832" type="line" smooth="no"/>
      <point x="1094" y="606" type="line" smooth="no"/>
      <point x="768" y="606" type="line" smooth="no"/>
    </contour>
  </outline>
</glyph>
<glyph name="currency" format="1">
  <advance width="1256"/>
  <unicode hex="00a4"/>
  <outline>
    <contour>
      <point x="1075" y="1226" type="line" smooth="no"/>
      <point x="1116.22" y="1156.44"/>
      <point x="1142" y="1068.76"/>
      <point x="1142" y="960" type="curve" smooth="yes"/>
      <point x="1142" y="849.34"/>
      <point x="1116.43" y="763.754"/>
      <point x="1076" y="692" type="curve" smooth="no"/>
      <point x="1216" y="553" type="line" smooth="no"/>
      <point x="1035" y="372" type="line" smooth="no"/>
      <point x="894" y="513" type="line" smooth="no"/>
      <point x="821.437" y="472.555"/>
      <point x="733.591" y="446"/>
      <point x="628" y="446" type="curve" smooth="yes"/>
      <point x="524.082" y="446"/>
      <point x="433.913" y="473.816"/>
      <point x="363" y="514" type="curve" smooth="no"/>
      <point x="221" y="372" type="line" smooth="no"/>
      <point x="40" y="553" type="line" smooth="no"/>
      <point x="182" y="695" type="line" smooth="no"/>
      <point x="143.244" y="764.761"/>
      <point x="118" y="853.16"/>
      <point x="118" y="960" type="curve" smooth="yes"/>
      <point x="118" y="1066.88"/>
      <point x="143.223" y="1154.2"/>
      <point x="182" y="1224" type="curve" smooth="no"/>
      <point x="40" y="1367" type="line" smooth="no"/>
      <point x="221" y="1548" type="line" smooth="no"/>
      <point x="365" y="1403" type="line" smooth="no"/>
      <point x="436.41" y="1442.28"/>
      <point x="524.352" y="1469"/>
      <point x="628" y="1469" type="curve" smooth="yes"/>
      <point x="730.97" y="1469"/>
      <point x="819.479" y="1442.14"/>
      <point x="891" y="1404" type="curve" smooth="no"/>
      <point x="1035" y="1548" type="line" smooth="no"/>
      <point x="1216" y="1367" type="line" smooth="no"/>
    </contour>
    <contour>
      <point x="629" y="718" type="curve" smooth="yes"/>
      <point x="764.815" y="718"/>
      <point x="851" y="815.129"/>
      <point x="851" y="954" type="curve" smooth="yes"/>
      <point x="851" y="1091.87"/>
      <point x="762.867" y="1188"/>
      <point x="628" y="1188" type="curve" smooth="yes"/>
      <point x="494.318" y="1188"/>
      <point x="409" y="1090.76"/>
      <point x="409" y="954" type="curve" smooth="yes"/>
      <point x="409" y="815.422"/>
      <point x="493.508" y="718"/>
    </contour>
  </outline>
</glyph>
<glyph name="yen" format="1">
  <advance width="2021"/>
  <unicode hex="00a5"/>
  <outline>
    <contour>
      <point x="242" y="768" type="line" smooth="no"/>
      <point x="456" y="768" type="line" smooth="no"/>
      <point x="215" y="1078" type="line" smooth="no"/>
      <point x="53" y="1102" type="line" smooth="no"/>
      <point x="53" y="1536" type="line" smooth="no"/>
      <point x="907" y="1536" type="line" smooth="no"/>
      <point x="907" y="1102" type="line" smooth="no"/>
      <point x="807" y="1078" type="line" smooth="no"/>
      <point x="1010" y="768" type="line" smooth="no"/>
      <point x="1213" y="1078" type="line" smooth="no"/>
      <point x="1113" y="1102" type="line" smooth="no"/>
      <point x="1113" y="1536" type="line" smooth="no"/>
      <point x="1966" y="1536" type="line" smooth="no"/>
      <point x="1966" y="1102" type="line" smooth="no"/>
      <point x="1805" y="1078" type="line" smooth="no"/>
      <point x="1563" y="768" type="line" smooth="no"/>
      <point x="1778" y="768" type="line" smooth="no"/>
      <point x="1778" y="512" type="line" smooth="no"/>
      <point x="1366" y="512" type="line" smooth="no"/>
      <point x="1366" y="384" type="line" smooth="no"/>
      <point x="1778" y="384" type="line" smooth="no"/>
      <point x="1778" y="128" type="line" smooth="no"/>
      <point x="1366" y="128" type="line" smooth="no"/>
      <point x="1366" y="0" type="line" smooth="no"/>
      <point x="654" y="0" type="line" smooth="no"/>
      <point x="654" y="128" type="line" smooth="no"/>
      <point x="242" y="128" type="line" smooth="no"/>
      <point x="242" y="384" type="line" smooth="no"/>
      <point x="654" y="384" type="line" smooth="no"/>
      <point x="654" y="512" type="line" smooth="no"/>
      <point x="242" y="512" type="line" smooth="no"/>
    </contour>
  </outline>
</glyph>
<glyph name="brokenbar" format="1">
  <advance width="670"/>
  <unicode hex="00a6"/>
  <outline>
    <contour>
      <point x="78" y="1664" type="line" smooth="no"/>
      <point x="591" y="1664" type="line" smooth="no"/>
      <point x="591" y="896" type="line" smooth="no"/>
      <point x="78" y="896" type="line" smooth="no"/>
    </contour>
    <contour>
      <point x="78" y="704" type="line" smooth="no"/>
      <point x="591" y="704" type="line" smooth="no"/>
      <point x="591" y="-128" type="line" smooth="no"/>
      <point x="78" y="-128" type="line" smooth="no"/>
    </contour>
  </outline>
</glyph>
<glyph name="section" format="1">
  <advance width="1133"/>
  <unicode hex="00a7"/>
  <outline>
    <contour>
      <point x="598" y="375" type="curve" smooth="no"/>
      <point x="323.057" y="383.332"/>
      <point x="63" y="431.559"/>
      <point x="63" y="707" type="curve" smooth="yes"/>
      <point x="63" y="825.727"/>
      <point x="100.335" y="902.335"/>
      <point x="160" y="962" type="curve" smooth="no"/>
      <point x="104.128" y="1009.18"/>
      <point x="63" y="1075.7"/>
      <point x="63" y="1175" type="curve" smooth="yes"/>
      <point x="63" y="1476.3"/>
      <point x="277.951" y="1576"/>
      <point x="575" y="1576" type="curve" smooth="yes"/>
      <point x="765.211" y="1576"/>
      <point x="919.813" y="1543.21"/>
      <point x="1044" y="1483" type="curve" smooth="no"/>
      <point x="1044" y="1199" type="line" smooth="no"/>
      <point x="818" y="1199" type="line" smooth="no"/>
      <point x="777.912" y="1259.13"/>
      <point x="721.609" y="1310"/>
      <point x="635" y="1310" type="curve" smooth="yes"/>
      <point x="557.111" y="1310"/>
      <point x="535" y="1243.3"/>
      <point x="535" y="1160" type="curve" smooth="no"/>
      <point x="809.848" y="1149.59"/>
      <point x="1070" y="1105.61"/>
      <point x="1070" y="828" type="curve" smooth="yes"/>
      <point x="1070" y="709.342"/>
      <point x="1031.61" y="631.611"/>
      <point x="972" y="572" type="curve" smooth="no"/>
      <point x="1027.85" y="524.838"/>
      <point x="1070" y="459.262"/>
      <point x="1070" y="360" type="curve" smooth="yes"/>
      <point x="1070" y="59.0684"/>
      <point x="857.22" y="-41"/>
      <point x="558" y="-41" type="curve" smooth="yes"/>
      <point x="368.948" y="-41"/>
      <point x="211.683" y="-9.34082"/>
      <point x="89" y="52" type="curve" smooth="no"/>
      <point x="89" y="336" type="line" smooth="no"/>
      <point x="315" y="336" type="line" smooth="no"/>
      <point x="355.088" y="275.869"/>
      <point x="411.391" y="225"/>
      <point x="498" y="225" type="curve" smooth="yes"/>
      <point x="575.889" y="225"/>
      <point x="598" y="291.703"/>
    </contour>
    <contour>
      <point x="622" y="660" type="line" smooth="no"/>
      <point x="673.707" y="673.937"/>
      <point x="723" y="713.285"/>
      <point x="723" y="776" type="curve" smooth="yes"/>
      <point x="723" y="831.25"/>
      <point x="643.392" y="847.738"/>
      <point x="582" y="853" type="curve" smooth="yes"/>
      <point x="512" y="859" type="line" smooth="no"/>
      <point x="466.821" y="843.94"/>
      <point x="417" y="800.793"/>
      <point x="417" y="743" type="curve" smooth="yes"/>
      <point x="417" y="687.552"/>
      <point x="505.381" y="676.566"/>
      <point x="568" y="667" type="curve" smooth="no"/>
    </contour>
  </outline>
</glyph>
<glyph name="dieresis" format="1">
  <advance width="1346"/>
  <unicode hex="00a8"/>
  <outline>
    <contour>
      <point x="833" y="2048" type="line" smooth="no"/>
      <point x="1258" y="2048" type="line" smooth="no"/>
      <point x="1258" y="1664" type="line" smooth="no"/>
      <point x="833" y="1664" type="line" smooth="no"/>
    </contour>
    <contour>
      <point x="514" y="2048" type="line" smooth="no"/>
      <point x="514" y="1664" type="line" smooth="no"/>
      <point x="89" y="1664" type="line" smooth="no"/>
      <point x="89" y="2048" type="line" smooth="no"/>
    </contour>
  </outline>
</glyph>
<glyph name="copyright" format="1">
  <advance width="1722"/>
  <unicode hex="00a9"/>
  <outline>
    <contour>
      <point x="53" y="767" type="curve" smooth="yes"/>
      <point x="53" y="1183.97"/>
      <point x="319.504" y="1454.07"/>
      <point x="646" y="1546" type="curve" smooth="yes"/>
      <point x="714.667" y="1565.33"/>
      <point x="786.334" y="1575"/>
      <point x="861" y="1575" type="curve" smooth="yes"/>
      <point x="1277.15" y="1575"/>
      <point x="1548.24" y="1307.92"/>
      <point x="1640" y="982" type="curve" smooth="yes"/>
      <point x="1659.33" y="913.333"/>
      <point x="1669" y="841.667"/>
      <point x="1669" y="767" type="curve" smooth="yes"/>
      <point x="1669" y="350.038"/>
      <point x="1401.46" y="79.916"/>
      <point x="1075" y="-12" type="curve" smooth="yes"/>
      <point x="1006.33" y="-31.333"/>
      <point x="935" y="-41"/>
      <point x="861" y="-41" type="curve" smooth="yes"/>
      <point x="444.419" y="-41"/>
      <point x="173.825" y="225.861"/>
      <point x="82" y="552" type="curve" smooth="yes"/>
      <point x="62.667" y="620.667"/>
      <point x="53" y="692.334"/>
    </contour>
    <contour>
      <point x="199" y="767" type="curve" smooth="yes"/>
      <point x="199" y="425.601"/>
      <point x="416.562" y="203.016"/>
      <point x="684.5" y="128.5" type="curve" smooth="yes"/>
      <point x="740.833" y="112.833"/>
      <point x="799.667" y="105"/>
      <point x="861" y="105" type="curve" smooth="yes"/>
      <point x="1202.4" y="105"/>
      <point x="1424.98" y="322.562"/>
      <point x="1499.5" y="590.5" type="curve" smooth="yes"/>
      <point x="1515.17" y="646.833"/>
      <point x="1523" y="705.667"/>
      <point x="1523" y="767" type="curve" smooth="yes"/>
      <point x="1523" y="1108.49"/>
      <point x="1305.37" y="1331.3"/>
      <point x="1037" y="1405.5" type="curve" smooth="yes"/>
      <point x="980.333" y="1421.17"/>
      <point x="921.667" y="1429"/>
      <point x="861" y="1429" type="curve" smooth="yes"/>
      <point x="519.513" y="1429"/>
      <point x="296.696" y="1211.37"/>
      <point x="222.5" y="943" type="curve" smooth="yes"/>
      <point x="206.833" y="886.333"/>
      <point x="199" y="827.667"/>
    </contour>
    <contour>
      <point x="916" y="947" type="curve" smooth="yes"/>
      <point x="817.191" y="947"/>
      <point x="753" y="869.943"/>
      <point x="753" y="769" type="curve" smooth="yes"/>
      <point x="753" y="643.707"/>
      <point x="813.979" y="588"/>
      <point x="937" y="588" type="curve" smooth="yes"/>
      <point x="1033.87" y="588"/>
      <point x="1130.56" y="613.949"/>
      <point x="1219" y="641" type="curve" smooth="no"/>
      <point x="1219" y="378" type="line" smooth="no"/>
      <point x="1116.21" y="344.128"/>
      <point x="1002.72" y="318"/>
      <point x="877" y="318" type="curve" smooth="yes"/>
      <point x="582.627" y="318"/>
      <point x="395" y="472.838"/>
      <point x="395" y="769" type="curve" smooth="yes"/>
      <point x="395" y="1065.03"/>
      <point x="576.507" y="1200"/>
      <point x="872" y="1200" type="curve" smooth="yes"/>
      <point x="1013.33" y="1200"/>
      <point x="1125.57" y="1173.82"/>
      <point x="1219" y="1131" type="curve" smooth="no"/>
      <point x="1219" y="870" type="line" smooth="no"/>
      <point x="1051" y="870" type="line" smooth="no"/>
      <point x="1021.22" y="912.549"/>
      <point x="978.813" y="947"/>
    </contour>
  </outline>
</glyph>
<glyph name="ordfeminine" format="1">
  <advance width="1283"/>
  <unicode hex="00aa"/>
  <outline>
    <contour>
      <point x="627" y="1535" type="curve" smooth="yes"/>
      <point x="835.913" y="1535"/>
      <point x="1033.37" y="1487.46"/>
      <point x="1208" y="1430" type="curve" smooth="no"/>
      <point x="1208" y="544" type="line" smooth="no"/>
      <point x="766" y="544" type="line" smooth="no"/>
      <point x="766" y="640" type="line" smooth="no"/>
      <point x="675.855" y="571.648"/>
      <point x="582.532" y="512"/>
      <point x="457" y="512" type="curve" smooth="yes"/>
      <point x="203.204" y="512"/>
      <point x="56" y="730.743"/>
      <point x="56" y="980" type="curve" smooth="yes"/>
      <point x="56" y="1341.25"/>
      <point x="268.091" y="1535"/>
    </contour>
    <contour>
      <point x="697" y="1310" type="curve" smooth="yes"/>
      <point x="556.465" y="1310"/>
      <point x="525" y="1196.31"/>
      <point x="525" y="1039" type="curve" smooth="yes"/>
      <point x="525" y="857.949"/>
      <point x="587.653" y="796"/>
      <point x="766" y="796" type="curve" smooth="no"/>
      <point x="766" y="1303" type="line" smooth="no"/>
      <point x="746.667" y="1307.67"/>
      <point x="723.667" y="1310"/>
    </contour>
  </outline>
</glyph>
<glyph name="guillemotleft" format="1">
  <advance width="1779"/>
  <unicode hex="00ab"/>
  <outline>
    <contour>
      <point x="1366" y="627" type="line" smooth="no"/>
      <point x="1700" y="464" type="line" smooth="no"/>
      <point x="1700" y="-17" type="line" smooth="no"/>
      <point x="967" y="357" type="line" smooth="no"/>
      <point x="967" y="1047" type="line" smooth="no"/>
      <point x="1700" y="1421" type="line" smooth="no"/>
      <point x="1700" y="789" type="line" smooth="no"/>
    </contour>
    <contour>
      <point x="472" y="627" type="line" smooth="no"/>
      <point x="806" y="464" type="line" smooth="no"/>
      <point x="806" y="-17" type="line" smooth="no"/>
      <point x="73" y="357" type="line" smooth="no"/>
      <point x="73" y="1047" type="line" smooth="no"/>
      <point x="806" y="1421" type="line" smooth="no"/>
      <point x="806" y="789" type="line" smooth="no"/>
    </contour>
  </outline>
</glyph>
<glyph name="logicalnot" format="1">
  <advance width="917"/>
  <unicode hex="00ac"/>
  <outline>
    <contour>
      <point x="71" y="896" type="line" smooth="no"/>
      <point x="839" y="896" type="line" smooth="no"/>
      <point x="839" y="256" type="line" smooth="no"/>
      <point x="583" y="256" type="line" smooth="no"/>
      <point x="583" y="512" type="line" smooth="no"/>
      <point x="71" y="512" type="line" smooth="no"/>
    </contour>
  </outline>
</glyph>
<glyph name="registered" format="1">
  <advance width="1722"/>
  <unicode hex="00ae"/>
  <outline>
    <contour>
      <point x="53" y="767" type="curve" smooth="yes"/>
      <point x="53" y="1183.97"/>
      <point x="319.504" y="1454.07"/>
      <point x="646" y="1546" type="curve" smooth="yes"/>
      <point x="714.667" y="1565.33"/>
      <point x="786.334" y="1575"/>
      <point x="861" y="1575" type="curve" smooth="yes"/>
      <point x="1277.15" y="1575"/>
      <point x="1548.24" y="1307.92"/>
      <point x="1640" y="982" type="curve" smooth="yes"/>
      <point x="1659.33" y="913.333"/>
      <point x="1669" y="841.667"/>
      <point x="1669" y="767" type="curve" smooth="yes"/>
      <point x="1669" y="350.038"/>
      <point x="1401.46" y="79.916"/>
      <point x="1075" y="-12" type="curve" smooth="yes"/>
      <point x="1006.33" y="-31.333"/>
      <point x="935" y="-41"/>
      <point x="861" y="-41" type="curve" smooth="yes"/>
      <point x="444.419" y="-41"/>
      <point x="173.825" y="225.861"/>
      <point x="82" y="552" type="curve" smooth="yes"/>
      <point x="62.667" y="620.667"/>
      <point x="53" y="692.334"/>
    </contour>
    <contour>
      <point x="199" y="767" type="curve" smooth="yes"/>
      <point x="199" y="425.601"/>
      <point x="416.562" y="203.016"/>
      <point x="684.5" y="128.5" type="curve" smooth="yes"/>
      <point x="740.833" y="112.833"/>
      <point x="799.667" y="105"/>
      <point x="861" y="105" type="curve" smooth="yes"/>
      <point x="1202.4" y="105"/>
      <point x="1424.98" y="322.562"/>
      <point x="1499.5" y="590.5" type="curve" smooth="yes"/>
      <point x="1515.17" y="646.833"/>
      <point x="1523" y="705.667"/>
      <point x="1523" y="767" type="curve" smooth="yes"/>
      <point x="1523" y="1108.49"/>
      <point x="1305.37" y="1331.3"/>
      <point x="1037" y="1405.5" type="curve" smooth="yes"/>
      <point x="980.333" y="1421.17"/>
      <point x="921.667" y="1429"/>
      <point x="861" y="1429" type="curve" smooth="yes"/>
      <point x="519.513" y="1429"/>
      <point x="296.696" y="1211.37"/>
      <point x="222.5" y="943" type="curve" smooth="yes"/>
      <point x="206.833" y="886.333"/>
      <point x="199" y="827.667"/>
    </contour>
    <contour>
      <point x="1175" y="729" type="curve" smooth="no"/>
      <point x="1211.45" y="648.803"/>
      <point x="1287.06" y="572.096"/>
      <point x="1342" y="508" type="curve" smooth="no"/>
      <point x="1342" y="371" type="line" smooth="no"/>
      <point x="993" y="371" type="line" smooth="no"/>
      <point x="948.193" y="457.898"/>
      <point x="894.762" y="563.801"/>
      <point x="869" y="672" type="curve" smooth="no"/>
      <point x="851" y="672" type="line" smooth="no"/>
      <point x="851" y="371" type="line" smooth="no"/>
      <point x="429" y="371" type="line" smooth="no"/>
      <point x="429" y="609" type="line" smooth="no"/>
      <point x="500" y="623" type="line" smooth="no"/>
      <point x="500" y="962" type="line" smooth="no"/>
      <point x="429" y="976" type="line" smooth="no"/>
      <point x="429" y="1214" type="line" smooth="no"/>
      <point x="907" y="1214" type="line" smooth="yes"/>
      <point x="1154.61" y="1214"/>
      <point x="1342" y="1185.84"/>
      <point x="1342" y="950" type="curve" smooth="yes"/>
      <point x="1342" y="816.676"/>
      <point x="1274.79" y="766.92"/>
    </contour>
    <contour>
      <point x="851" y="834" type="line" smooth="no"/>
      <point x="935.426" y="834"/>
      <point x="991" y="845.051"/>
      <point x="991" y="930" type="curve" smooth="yes"/>
      <point x="991" y="1013.38"/>
      <point x="934.436" y="1028"/>
      <point x="851" y="1028" type="curve" smooth="no"/>
    </contour>
  </outline>
</glyph>
<glyph name="macron" format="1">
  <advance width="633"/>
  <unicode hex="00af"/>
  <outline>
    <contour>
      <point x="572" y="1752" type="line" smooth="no"/>
      <point x="572" y="1536" type="line" smooth="no"/>
      <point x="60" y="1536" type="line" smooth="no"/>
      <point x="60" y="1752" type="line" smooth="no"/>
    </contour>
  </outline>
</glyph>
<glyph name="degree" format="1">
  <advance width="917"/>
  <unicode hex="00b0"/>
  <outline>
    <contour>
      <point x="457" y="1576" type="curve" smooth="yes"/>
      <point x="691.846" y="1576"/>
      <point x="860" y="1428.12"/>
      <point x="860" y="1190" type="curve" smooth="yes"/>
      <point x="860" y="949.794"/>
      <point x="693.619" y="800"/>
      <point x="457" y="800" type="curve" smooth="yes"/>
      <point x="221.689" y="800"/>
      <point x="56" y="950.905"/>
      <point x="56" y="1190" type="curve" smooth="yes"/>
      <point x="56" y="1427.74"/>
      <point x="222.324" y="1576"/>
    </contour>
    <contour>
      <point x="458" y="988" type="curve" smooth="yes"/>
      <point x="567.135" y="988"/>
      <point x="631" y="1073.03"/>
      <point x="631" y="1185" type="curve" smooth="yes"/>
      <point x="631" y="1296.05"/>
      <point x="565.254" y="1380"/>
      <point x="457" y="1380" type="curve" smooth="yes"/>
      <point x="348.555" y="1380"/>
      <point x="285" y="1296.27"/>
      <point x="285" y="1185" type="curve" smooth="yes"/>
      <point x="285" y="1072.41"/>
      <point x="348.139" y="988"/>
    </contour>
  </outline>
</glyph>
<glyph name="plusminus" format="1">
  <advance width="1143"/>
  <unicode hex="00b1"/>
  <outline>
    <contour>
      <point x="59" y="1024" type="line" smooth="no"/>
      <point x="443" y="1024" type="line" smooth="no"/>
      <point x="443" y="1408" type="line" smooth="no"/>
      <point x="699" y="1408" type="line" smooth="no"/>
      <point x="699" y="1024" type="line" smooth="no"/>
      <point x="1083" y="1024" type="line" smooth="no"/>
      <point x="1083" y="768" type="line" smooth="no"/>
      <point x="699" y="768" type="line" smooth="no"/>
      <point x="699" y="384" type="line" smooth="no"/>
      <point x="443" y="384" type="line" smooth="no"/>
      <point x="443" y="768" type="line" smooth="no"/>
      <point x="59" y="768" type="line" smooth="no"/>
    </contour>
    <contour>
      <point x="184" y="256" type="line" smooth="no"/>
      <point x="952" y="256" type="line" smooth="no"/>
      <point x="952" y="0" type="line" smooth="no"/>
      <point x="184" y="0" type="line" smooth="no"/>
    </contour>
  </outline>
</glyph>
<glyph name="twosuperior" format="1">
  <advance width="1015"/>
  <unicode hex="00b2"/>
  <outline>
    <contour>
      <point x="946" y="1203" type="curve" smooth="yes"/>
      <point x="946" y="966.604"/>
      <point x="745.95" y="850.537"/>
      <point x="557" y="802" type="curve" smooth="no"/>
      <point x="940" y="802" type="line" smooth="no"/>
      <point x="940" y="512" type="line" smooth="no"/>
      <point x="75" y="512" type="line" smooth="no"/>
      <point x="75" y="860" type="line" smooth="no"/>
      <point x="223.247" y="913.908"/>
      <point x="403.119" y="951.185"/>
      <point x="487.5" y="1069" type="curve" smooth="yes"/>
      <point x="505.167" y="1093.67"/>
      <point x="514" y="1121"/>
      <point x="514" y="1151" type="curve" smooth="yes"/>
      <point x="514" y="1222.55"/>
      <point x="470.733" y="1263"/>
      <point x="400" y="1263" type="curve" smooth="yes"/>
      <point x="343.23" y="1263"/>
      <point x="301.686" y="1213.38"/>
      <point x="279" y="1169" type="curve" smooth="no"/>
      <point x="75" y="1169" type="line" smooth="no"/>
      <point x="75" y="1491" type="line" smooth="no"/>
      <point x="172.53" y="1545.62"/>
      <point x="298.111" y="1576"/>
      <point x="455" y="1576" type="curve" smooth="yes"/>
      <point x="730.02" y="1576"/>
      <point x="946" y="1475.87"/>
    </contour>
  </outline>
</glyph>
<glyph name="threesuperior" format="1">
  <advance width="1097"/>
  <unicode hex="00b3"/>
  <outline>
    <contour>
      <point x="275" y="839" type="line" smooth="no"/>
      <point x="316.391" y="783.449"/>
      <point x="375.67" y="743"/>
      <point x="461" y="743" type="curve" smooth="yes"/>
      <point x="530.167" y="743"/>
      <point x="595" y="774.43"/>
      <point x="595" y="841" type="curve" smooth="yes"/>
      <point x="595" y="889.116"/>
      <point x="558.118" y="920"/>
      <point x="509" y="920" type="curve" smooth="yes"/>
      <point x="332" y="920" type="line" smooth="no"/>
      <point x="332" y="1123" type="line" smooth="no"/>
      <point x="509" y="1123" type="line" smooth="yes"/>
      <point x="558.123" y="1123"/>
      <point x="595" y="1153.9"/>
      <point x="595" y="1202" type="curve" smooth="yes"/>
      <point x="595" y="1268.57"/>
      <point x="530.155" y="1300"/>
      <point x="461" y="1300" type="curve" smooth="yes"/>
      <point x="377.075" y="1300"/>
      <point x="316.341" y="1257.3"/>
      <point x="275" y="1204" type="curve" smooth="no"/>
      <point x="69" y="1204" type="line" smooth="no"/>
      <point x="69" y="1489" type="line" smooth="no"/>
      <point x="197.074" y="1543.35"/>
      <point x="351.178" y="1576"/>
      <point x="540" y="1576" type="curve" smooth="yes"/>
      <point x="797.331" y="1576"/>
      <point x="1034" y="1473.85"/>
      <point x="1034" y="1227" type="curve" smooth="yes"/>
      <point x="1034" y="1118.46"/>
      <point x="983.016" y="1050.46"/>
      <point x="907" y="1021" type="curve" smooth="no"/>
      <point x="980.545" y="987.904"/>
      <point x="1034" y="924.945"/>
      <point x="1034" y="816" type="curve" smooth="yes"/>
      <point x="1034" y="570.501"/>
      <point x="794.07" y="469"/>
      <point x="540" y="469" type="curve" smooth="yes"/>
      <point x="353.761" y="469"/>
      <point x="191.36" y="494.793"/>
      <point x="69" y="554" type="curve" smooth="no"/>
      <point x="69" y="839" type="line" smooth="no"/>
    </contour>
  </outline>
</glyph>
<glyph name="acute" format="1">
  <advance width="996"/>
  <unicode hex="00b4"/>
  <outline>
    <contour>
      <point x="510" y="1664" type="line" smooth="no"/>
      <point x="85" y="1664" type="line" smooth="no"/>
      <point x="424" y="2304" type="line" smooth="no"/>
      <point x="914" y="2304" type="line" smooth="no"/>
    </contour>
  </outline>
</glyph>
<glyph name="paragraph" format="1">
  <advance width="1653"/>
  <unicode hex="00b6"/>
  <outline>
    <contour>
      <point x="56" y="980" type="curve" smooth="yes"/>
      <point x="56" y="1364.4"/>
      <point x="375.902" y="1408"/>
      <point x="766" y="1408" type="curve" smooth="yes"/>
      <point x="1585" y="1408" type="line" smooth="no"/>
      <point x="1585" y="1014" type="line" smooth="no"/>
      <point x="1465" y="991" type="line" smooth="no"/>
      <point x="1465" y="422" type="line" smooth="no"/>
      <point x="1585" y="399" type="line" smooth="no"/>
      <point x="1585" y="0" type="line" smooth="no"/>
      <point x="1081" y="0" type="line" smooth="no"/>
      <point x="1081" y="896" type="line" smooth="no"/>
      <point x="953" y="896" type="line" smooth="no"/>
      <point x="953" y="0" type="line" smooth="no"/>
      <point x="449" y="0" type="line" smooth="no"/>
      <point x="449" y="399" type="line" smooth="no"/>
      <point x="569" y="422" type="line" smooth="no"/>
      <point x="569" y="543" type="line" smooth="no"/>
      <point x="226.437" y="543"/>
      <point x="56" y="637.426"/>
    </contour>
  </outline>
</glyph>
<glyph name="cedilla" format="1">
  <advance width="724"/>
  <unicode hex="00b8"/>
  <outline>
    <contour>
      <point x="275" y="-573" type="curve" smooth="yes"/>
      <point x="364.472" y="-573"/>
      <point x="411" y="-532.694"/>
      <point x="411" y="-442" type="curve" smooth="yes"/>
      <point x="411" y="-367.9"/>
      <point x="364.21" y="-311"/>
      <point x="292" y="-311" type="curve" smooth="yes"/>
      <point x="246.604" y="-311"/>
      <point x="215.231" y="-337.214"/>
      <point x="194" y="-368" type="curve" smooth="no"/>
      <point x="72" y="-368" type="line" smooth="no"/>
      <point x="72" y="128" type="line" smooth="no"/>
      <point x="293" y="128" type="line" smooth="no"/>
      <point x="293" y="-129" type="line" smooth="no"/>
      <point x="304" y="-129" type="line" smooth="yes"/>
      <point x="310.67" y="-129"/>
      <point x="317.333" y="-128"/>
      <point x="324" y="-128" type="curve" smooth="no"/>
      <point x="312.67" y="-117.748"/>
      <point x="307.604" y="-110.751"/>
      <point x="307.604" y="-106.691" type="curve" smooth="yes"/>
      <point x="307.604" y="-103.771"/>
      <point x="310.225" y="-102.371"/>
      <point x="315.021" y="-102.371" type="curve" smooth="yes"/>
      <point x="366.705" y="-102.371"/>
      <point x="671" y="-265"/>
      <point x="671" y="-442" type="curve" smooth="yes"/>
      <point x="671" y="-657.302"/>
      <point x="534.172" y="-769"/>
      <point x="320" y="-769" type="curve" smooth="yes"/>
      <point x="228.99" y="-769"/>
      <point x="145.958" y="-750.423"/>
      <point x="72" y="-725" type="curve" smooth="no"/>
      <point x="72" y="-535" type="line" smooth="no"/>
      <point x="136.845" y="-554.557"/>
      <point x="205.35" y="-573"/>
    </contour>
  </outline>
</glyph>
<glyph name="onesuperior" format="1">
  <advance width="727"/>
  <unicode hex="00b9"/>
  <outline>
    <contour>
      <point x="72" y="1484" type="line" smooth="no"/>
      <point x="583" y="1536" type="line" smooth="no"/>
      <point x="583" y="818" type="line" smooth="no"/>
      <point x="669" y="801" type="line" smooth="no"/>
      <point x="669" y="512" type="line" smooth="no"/>
      <point x="72" y="512" type="line" smooth="no"/>
      <point x="72" y="801" type="line" smooth="no"/>
      <point x="157" y="818" type="line" smooth="no"/>
      <point x="157" y="1195" type="line" smooth="no"/>
      <point x="72" y="1195" type="line" smooth="no"/>
    </contour>
  </outline>
</glyph>
<glyph name="ordmasculine" format="1">
  <advance width="1353"/>
  <unicode hex="00ba"/>
  <outline>
    <contour>
      <point x="1297" y="1039" type="curve" smooth="yes"/>
      <point x="1297" y="659.629"/>
      <point x="1052.39" y="479"/>
      <point x="676" y="479" type="curve" smooth="yes"/>
      <point x="299.104" y="479"/>
      <point x="56" y="659.132"/>
      <point x="56" y="1039" type="curve" smooth="yes"/>
      <point x="56" y="1411.06"/>
      <point x="306.19" y="1575"/>
      <point x="676" y="1575" type="curve" smooth="yes"/>
      <point x="1045.49" y="1575"/>
      <point x="1297" y="1410.6"/>
    </contour>
    <contour>
      <point x="854" y="1039" type="curve" smooth="yes"/>
      <point x="854" y="1172.4"/>
      <point x="811.23" y="1254"/>
      <point x="676" y="1254" type="curve" smooth="yes"/>
      <point x="541.41" y="1254"/>
      <point x="499" y="1171.79"/>
      <point x="499" y="1039" type="curve" smooth="yes"/>
      <point x="499" y="908.165"/>
      <point x="540.135" y="822"/>
      <point x="676" y="822" type="curve" smooth="yes"/>
      <point x="812.295" y="822"/>
      <point x="854" y="907.646"/>
    </contour>
  </outline>
</glyph>
<glyph name="guillemotright" format="1">
  <advance width="1776"/>
  <unicode hex="00bb"/>
  <outline>
    <contour>
      <point x="972" y="789" type="line" smooth="no"/>
      <point x="972" y="1421" type="line" smooth="no"/>
      <point x="1705" y="1047" type="line" smooth="no"/>
      <point x="1705" y="357" type="line" smooth="no"/>
      <point x="972" y="-17" type="line" smooth="no"/>
      <point x="972" y="464" type="line" smooth="no"/>
      <point x="1306" y="627" type="line" smooth="no"/>
    </contour>
    <contour>
      <point x="78" y="789" type="line" smooth="no"/>
      <point x="78" y="1421" type="line" smooth="no"/>
      <point x="811" y="1047" type="line" smooth="no"/>
      <point x="811" y="357" type="line" smooth="no"/>
      <point x="78" y="-17" type="line" smooth="no"/>
      <point x="78" y="464" type="line" smooth="no"/>
      <point x="412" y="627" type="line" smooth="no"/>
    </contour>
  </outline>
</glyph>
<glyph name="onequarter" format="1">
  <advance width="2668"/>
  <unicode hex="00bc"/>
  <outline>
    <contour>
      <point x="1010" y="1536" type="line" smooth="no"/>
      <point x="1650" y="1536" type="line" smooth="no"/>
      <point x="1266" y="0" type="line" smooth="no"/>
      <point x="626" y="0" type="line" smooth="no"/>
    </contour>
    <contour>
      <point x="66" y="1484" type="line" smooth="no"/>
      <point x="577" y="1536" type="line" smooth="no"/>
      <point x="577" y="818" type="line" smooth="no"/>
      <point x="663" y="801" type="line" smooth="no"/>
      <point x="663" y="512" type="line" smooth="no"/>
      <point x="66" y="512" type="line" smooth="no"/>
      <point x="66" y="801" type="line" smooth="no"/>
      <point x="151" y="818" type="line" smooth="no"/>
      <point x="151" y="1195" type="line" smooth="no"/>
      <point x="66" y="1195" type="line" smooth="no"/>
    </contour>
    <contour>
      <point x="1542" y="573" type="line" smooth="no"/>
      <point x="1975" y="1037" type="line" smooth="no"/>
      <point x="2407" y="1064" type="line" smooth="no"/>
      <point x="2407" y="573" type="line" smooth="no"/>
      <point x="2623" y="573" type="line" smooth="no"/>
      <point x="2623" y="400" type="line" smooth="no"/>
      <point x="2407" y="400" type="line" smooth="no"/>
      <point x="2407" y="310" type="line" smooth="no"/>
      <point x="2494" y="293" type="line" smooth="no"/>
      <point x="2494" y="0" type="line" smooth="no"/>
      <point x="1888" y="0" type="line" smooth="no"/>
      <point x="1888" y="293" type="line" smooth="no"/>
      <point x="1975" y="310" type="line" smooth="no"/>
      <point x="1975" y="400" type="line" smooth="no"/>
      <point x="1542" y="400" type="line" smooth="no"/>
    </contour>
    <contour>
      <point x="1791" y="573" type="line" smooth="no"/>
      <point x="1975" y="573" type="line" smooth="no"/>
      <point x="1975" y="789" type="line" smooth="no"/>
    </contour>
  </outline>
</glyph>
<glyph name="onehalf" format="1">
  <advance width="2548"/>
  <unicode hex="00bd"/>
  <outline>
    <contour>
      <point x="1010" y="1536" type="line" smooth="no"/>
      <point x="1650" y="1536" type="line" smooth="no"/>
      <point x="1266" y="0" type="line" smooth="no"/>
      <point x="626" y="0" type="line" smooth="no"/>
    </contour>
    <contour>
      <point x="66" y="1484" type="line" smooth="no"/>
      <point x="577" y="1536" type="line" smooth="no"/>
      <point x="577" y="818" type="line" smooth="no"/>
      <point x="663" y="801" type="line" smooth="no"/>
      <point x="663" y="512" type="line" smooth="no"/>
      <point x="66" y="512" type="line" smooth="no"/>
      <point x="66" y="801" type="line" smooth="no"/>
      <point x="151" y="818" type="line" smooth="no"/>
      <point x="151" y="1195" type="line" smooth="no"/>
      <point x="66" y="1195" type="line" smooth="no"/>
    </contour>
    <contour>
      <point x="2487" y="690" type="curve" smooth="yes"/>
      <point x="2487" y="453.607"/>
      <point x="2286.94" y="337.534"/>
      <point x="2098" y="289" type="curve" smooth="no"/>
      <point x="2481" y="289" type="line" smooth="no"/>
      <point x="2481" y="-1" type="line" smooth="no"/>
      <point x="1616" y="-1" type="line" smooth="no"/>
      <point x="1616" y="347" type="line" smooth="no"/>
      <point x="1764.25" y="400.908"/>
      <point x="1944.12" y="438.185"/>
      <point x="2028.5" y="556" type="curve" smooth="yes"/>
      <point x="2046.17" y="580.667"/>
      <point x="2055" y="608"/>
      <point x="2055" y="638" type="curve" smooth="yes"/>
      <point x="2055" y="709.539"/>
      <point x="2011.73" y="750"/>
      <point x="1941" y="750" type="curve" smooth="yes"/>
      <point x="1884.23" y="750"/>
      <point x="1842.69" y="700.384"/>
      <point x="1820" y="656" type="curve" smooth="no"/>
      <point x="1616" y="656" type="line" smooth="no"/>
      <point x="1616" y="978" type="line" smooth="no"/>
      <point x="1713.53" y="1032.62"/>
      <point x="1839.11" y="1063"/>
      <point x="1996" y="1063" type="curve" smooth="yes"/>
      <point x="2271.02" y="1063"/>
      <point x="2487" y="962.877"/>
    </contour>
  </outline>
</glyph>
<glyph name="threequarters" format="1">
  <advance width="3020"/>
  <unicode hex="00be"/>
  <outline>
    <contour>
      <point x="271" y="839" type="line" smooth="no"/>
      <point x="312.391" y="783.449"/>
      <point x="371.67" y="743"/>
      <point x="457" y="743" type="curve" smooth="yes"/>
      <point x="526.167" y="743"/>
      <point x="591" y="774.43"/>
      <point x="591" y="841" type="curve" smooth="yes"/>
      <point x="591" y="889.116"/>
      <point x="554.118" y="920"/>
      <point x="505" y="920" type="curve" smooth="yes"/>
      <point x="328" y="920" type="line" smooth="no"/>
      <point x="328" y="1123" type="line" smooth="no"/>
      <point x="505" y="1123" type="line" smooth="yes"/>
      <point x="554.123" y="1123"/>
      <point x="591" y="1153.9"/>
      <point x="591" y="1202" type="curve" smooth="yes"/>
      <point x="591" y="1268.57"/>
      <point x="526.155" y="1300"/>
      <point x="457" y="1300" type="curve" smooth="yes"/>
      <point x="373.075" y="1300"/>
      <point x="312.341" y="1257.3"/>
      <point x="271" y="1204" type="curve" smooth="no"/>
      <point x="65" y="1204" type="line" smooth="no"/>
      <point x="65" y="1489" type="line" smooth="no"/>
      <point x="193.074" y="1543.35"/>
      <point x="347.178" y="1576"/>
      <point x="536" y="1576" type="curve" smooth="yes"/>
      <point x="793.331" y="1576"/>
      <point x="1030" y="1473.85"/>
      <point x="1030" y="1227" type="curve" smooth="yes"/>
      <point x="1030" y="1118.46"/>
      <point x="979.019" y="1050.46"/>
      <point x="903" y="1021" type="curve" smooth="no"/>
      <point x="976.548" y="987.903"/>
      <point x="1030" y="924.946"/>
      <point x="1030" y="816" type="curve" smooth="yes"/>
      <point x="1030" y="570.501"/>
      <point x="790.07" y="469"/>
      <point x="536" y="469" type="curve" smooth="yes"/>
      <point x="349.761" y="469"/>
      <point x="187.36" y="494.793"/>
      <point x="65" y="554" type="curve" smooth="no"/>
      <point x="65" y="839" type="line" smooth="no"/>
    </contour>
    <contour>
      <point x="1362" y="1536" type="line" smooth="no"/>
      <point x="2002" y="1536" type="line" smooth="no"/>
      <point x="1618" y="0" type="line" smooth="no"/>
      <point x="978" y="0" type="line" smooth="no"/>
    </contour>
    <contour>
      <point x="1894" y="573" type="line" smooth="no"/>
      <point x="2327" y="1037" type="line" smooth="no"/>
      <point x="2759" y="1064" type="line" smooth="no"/>
      <point x="2759" y="573" type="line" smooth="no"/>
      <point x="2975" y="573" type="line" smooth="no"/>
      <point x="2975" y="400" type="line" smooth="no"/>
      <point x="2759" y="400" type="line" smooth="no"/>
      <point x="2759" y="310" type="line" smooth="no"/>
      <point x="2846" y="293" type="line" smooth="no"/>
      <point x="2846" y="0" type="line" smooth="no"/>
      <point x="2240" y="0" type="line" smooth="no"/>
      <point x="2240" y="293" type="line" smooth="no"/>
      <point x="2327" y="310" type="line" smooth="no"/>
      <point x="2327" y="400" type="line" smooth="no"/>
      <point x="1894" y="400" type="line" smooth="no"/>
    </contour>
    <contour>
      <point x="2143" y="573" type="line" smooth="no"/>
      <point x="2327" y="573" type="line" smooth="no"/>
      <point x="2327" y="789" type="line" smooth="no"/>
    </contour>
  </outline>
</glyph>
<glyph name="questiondown" format="1">
  <advance width="1382"/>
  <unicode hex="00bf"/>
  <outline>
    <contour>
      <point x="1143" y="1153" type="line" smooth="no"/>
      <point x="503" y="1153" type="line" smooth="no"/>
      <point x="503" y="1537" type="line" smooth="no"/>
      <point x="1143" y="1537" type="line" smooth="no"/>
    </contour>
    <contour>
      <point x="51" y="449" type="curve" smooth="yes"/>
      <point x="51" y="747.463"/>
      <point x="258.435" y="852.363"/>
      <point x="503" y="907" type="curve" smooth="no"/>
      <point x="503" y="1024" type="line" smooth="no"/>
      <point x="1140" y="1024" type="line" smooth="yes"/>
      <point x="1140.67" y="1024.67"/>
      <point x="1141.67" y="1025"/>
      <point x="1143" y="1025" type="curve" smooth="no"/>
      <point x="1143" y="680" type="line" smooth="no"/>
      <point x="1006.48" y="620.273"/>
      <point x="817.229" y="608.22"/>
      <point x="721" y="512" type="curve" smooth="yes"/>
      <point x="701.667" y="492.667"/>
      <point x="692" y="471.667"/>
      <point x="692" y="449" type="curve" smooth="yes"/>
      <point x="692" y="371.774"/>
      <point x="743.685" y="322"/>
      <point x="820" y="322" type="curve" smooth="yes"/>
      <point x="915.239" y="322"/>
      <point x="985.575" y="370.46"/>
      <point x="1032" y="432" type="curve" smooth="no"/>
      <point x="1333" y="432" type="line" smooth="no"/>
      <point x="1333" y="86" type="line" smooth="no"/>
      <point x="1181.99" y="5.91895"/>
      <point x="980.535" y="-40"/>
      <point x="741" y="-40" type="curve" smooth="yes"/>
      <point x="361.845" y="-40"/>
      <point x="51" y="75.0391"/>
    </contour>
  </outline>
</glyph>
<glyph name="AE" format="1">
  <advance width="2383"/>
  <unicode hex="00c6"/>
  <outline>
    <contour>
      <point x="1721" y="384" type="line" smooth="no"/>
      <point x="1899.23" y="384"/>
      <point x="2038.43" y="439.12"/>
      <point x="2143" y="512" type="curve" smooth="no"/>
      <point x="2310" y="512" type="line" smooth="no"/>
      <point x="2310" y="0" type="line" smooth="no"/>
      <point x="1121" y="0" type="line" smooth="no"/>
      <point x="1142" y="258" type="line" smooth="no"/>
      <point x="724" y="258" type="line" smooth="no"/>
      <point x="596" y="0" type="line" smooth="no"/>
      <point x="27" y="0" type="line" smooth="no"/>
      <point x="174" y="504" type="line" smooth="no"/>
      <point x="304" y="529" type="line" smooth="no"/>
      <point x="895" y="1536" type="line" smooth="no"/>
      <point x="2310" y="1536" type="line" smooth="no"/>
      <point x="2310" y="1024" type="line" smooth="no"/>
      <point x="2149" y="1024" type="line" smooth="no"/>
      <point x="2042.08" y="1095.28"/>
      <point x="1899.67" y="1152"/>
      <point x="1721" y="1152" type="curve" smooth="no"/>
      <point x="1721" y="879" type="line" smooth="no"/>
      <point x="2021" y="944" type="line" smooth="no"/>
      <point x="2021" y="590" type="line" smooth="no"/>
      <point x="1721" y="655" type="line" smooth="no"/>
    </contour>
    <contour>
      <point x="911" y="601" type="line" smooth="no"/>
      <point x="1157" y="601" type="line" smooth="no"/>
      <point x="1203" y="1180" type="line" smooth="no"/>
    </contour>
  </outline>
</glyph>
<glyph name="Eth" format="1">
  <advance width="1896"/>
  <unicode hex="00d0"/>
  <outline>
    <contour>
      <point x="1864" y="786" type="curve" smooth="yes"/>
      <point x="1864" y="187.053"/>
      <point x="1440.09" y="0"/>
      <point x="840" y="0" type="curve" smooth="yes"/>
      <point x="72" y="0" type="line" smooth="no"/>
      <point x="72" y="434" type="line" smooth="no"/>
      <point x="200" y="459" type="line" smooth="no"/>
      <point x="200" y="640" type="line" smooth="no"/>
      <point x="76" y="640" type="line" smooth="no"/>
      <point x="76" y="896" type="line" smooth="no"/>
      <point x="200" y="896" type="line" smooth="no"/>
      <point x="200" y="1114" type="line" smooth="no"/>
      <point x="72" y="1139" type="line" smooth="no"/>
      <point x="72" y="1536" type="line" smooth="no"/>
      <point x="1237" y="1536" type="line" smooth="no"/>
      <point x="1613.6" y="1455.48"/>
      <point x="1864" y="1241.89"/>
    </contour>
    <contour>
      <point x="938" y="459" type="line" smooth="yes"/>
      <point x="1107.88" y="459"/>
      <point x="1207.29" y="502.535"/>
      <point x="1218.5" y="652" type="curve" smooth="yes"/>
      <point x="1221.5" y="692"/>
      <point x="1223" y="736.667"/>
      <point x="1223" y="786" type="curve" smooth="yes"/>
      <point x="1223" y="1020.52"/>
      <point x="1178.73" y="1114"/>
      <point x="938" y="1114" type="curve" smooth="yes"/>
      <point x="840" y="1114" type="line" smooth="no"/>
      <point x="840" y="896" type="line" smooth="no"/>
      <point x="972" y="896" type="line" smooth="no"/>
      <point x="972" y="640" type="line" smooth="no"/>
      <point x="840" y="640" type="line" smooth="no"/>
      <point x="840" y="459" type="line" smooth="no"/>
    </contour>
  </outline>
</glyph>
<glyph name="multiply" format="1">
  <advance width="967"/>
  <unicode hex="00d7"/>
  <outline>
    <contour>
      <point x="34" y="496" type="line" smooth="no"/>
      <point x="306" y="768" type="line" smooth="no"/>
      <point x="34" y="1040" type="line" smooth="no"/>
      <point x="215" y="1221" type="line" smooth="no"/>
      <point x="487" y="949" type="line" smooth="no"/>
      <point x="759" y="1221" type="line" smooth="no"/>
      <point x="940" y="1040" type="line" smooth="no"/>
      <point x="668" y="768" type="line" smooth="no"/>
      <point x="940" y="496" type="line" smooth="no"/>
      <point x="759" y="315" type="line" smooth="no"/>
      <point x="487" y="587" type="line" smooth="no"/>
      <point x="215" y="315" type="line" smooth="no"/>
    </contour>
  </outline>
</glyph>
<glyph name="Oslash" format="1">
  <advance width="1859"/>
  <unicode hex="00d8"/>
  <outline>
    <contour>
      <point x="1827" y="786" type="curve" smooth="yes"/>
      <point x="1827" y="231.249"/>
      <point x="1480.06" y="-40"/>
      <point x="930" y="-40" type="curve" smooth="yes"/>
      <point x="840" y="-40"/>
      <point x="754.667" y="-32"/>
      <point x="674" y="-16" type="curve" smooth="no"/>
      <point x="583" y="-208" type="line" smooth="no"/>
      <point x="391" y="-128" type="line" smooth="no"/>
      <point x="474" y="44" type="line" smooth="no"/>
      <point x="203.318" y="161.569"/>
      <point x="35" y="397.319"/>
      <point x="35" y="786" type="curve" smooth="yes"/>
      <point x="35" y="1329.1"/>
      <point x="388.275" y="1576"/>
      <point x="930" y="1576" type="curve" smooth="yes"/>
      <point x="1028.98" y="1576"/>
      <point x="1118.21" y="1568.08"/>
      <point x="1201" y="1551" type="curve" smooth="no"/>
      <point x="1287" y="1728" type="line" smooth="no"/>
      <point x="1479" y="1664" type="line" smooth="no"/>
      <point x="1396" y="1492" type="line" smooth="no"/>
      <point x="1658.27" y="1381.14"/>
      <point x="1827" y="1159.09"/>
    </contour>
    <contour>
      <point x="983" y="1098" type="line" smooth="no"/>
      <point x="967.531" y="1100.81"/>
      <point x="948.843" y="1102"/>
      <point x="930" y="1102" type="curve" smooth="yes"/>
      <point x="733.971" y="1102"/>
      <point x="675" y="979.712"/>
      <point x="675" y="786" type="curve" smooth="yes"/>
      <point x="675" y="693.843"/>
      <point x="685.686" y="615.971"/>
      <point x="723" y="560" type="curve" smooth="no"/>
    </contour>
    <contour>
      <point x="930" y="465" type="line" smooth="yes"/>
      <point x="1126.62" y="465"/>
      <point x="1187" y="591.795"/>
      <point x="1187" y="786" type="curve" smooth="yes"/>
      <point x="1187" y="862.379"/>
      <point x="1177.57" y="929.765"/>
      <point x="1153" y="983" type="curve" smooth="no"/>
      <point x="905" y="466" type="line" smooth="no"/>
      <point x="909" y="465.333"/>
      <point x="913" y="465"/>
      <point x="917" y="465" type="curve" smooth="yes"/>
    </contour>
  </outline>
</glyph>
<glyph name="Thorn" format="1">
  <advance width="1771"/>
  <unicode hex="00de"/>
  <outline>
    <contour>
      <point x="1726" y="1005" type="curve" smooth="yes"/>
      <point x="1726" y="579.943"/>
      <point x="1268.05" y="543"/>
      <point x="830" y="543" type="curve" smooth="no"/>
      <point x="830" y="459" type="line" smooth="no"/>
      <point x="958" y="434" type="line" smooth="no"/>
      <point x="958" y="0" type="line" smooth="no"/>
      <point x="62" y="0" type="line" smooth="no"/>
      <point x="62" y="434" type="line" smooth="no"/>
      <point x="190" y="459" type="line" smooth="no"/>
      <point x="190" y="1158" type="line" smooth="no"/>
      <point x="62" y="1183" type="line" smooth="no"/>
      <point x="62" y="1664" type="line" smooth="no"/>
      <point x="830" y="1664" type="line" smooth="no"/>
      <point x="830" y="1489" type="line" smooth="no"/>
      <point x="933" y="1489" type="line" smooth="yes"/>
      <point x="1307.53" y="1489"/>
      <point x="1660.73" y="1465.25"/>
      <point x="1714.5" y="1152" type="curve" smooth="yes"/>
      <point x="1722.17" y="1107.33"/>
      <point x="1726" y="1058.33"/>
    </contour>
    <contour>
      <point x="830" y="818" type="line" smooth="no"/>
      <point x="989.026" y="818"/>
      <point x="1086" y="845.726"/>
      <point x="1086" y="1006" type="curve" smooth="yes"/>
      <point x="1086" y="1163.94"/>
      <point x="987.254" y="1190"/>
      <point x="830" y="1190" type="curve" smooth="no"/>
    </contour>
  </outline>
</glyph>
<glyph name="germandbls" format="1">
  <advance width="1791"/>
  <unicode hex="00df"/>
  <outline>
    <contour>
      <point x="1755" y="459" type="curve" smooth="yes"/>
      <point x="1755" y="122.635"/>
      <point x="1554.55" y="0"/>
      <point x="1209" y="0" type="curve" smooth="yes"/>
      <point x="944" y="0" type="line" smooth="no"/>
      <point x="944" y="385" type="line" smooth="no"/>
      <point x="1060.09" y="385"/>
      <point x="1137" y="421.674"/>
      <point x="1137" y="533" type="curve" smooth="yes"/>
      <point x="1137" y="643.851"/>
      <point x="1059.83" y="680"/>
      <point x="944" y="680" type="curve" smooth="no"/>
      <point x="944" y="895" type="line" smooth="no"/>
      <point x="1062.19" y="895"/>
      <point x="1137" y="932.571"/>
      <point x="1137" y="1046" type="curve" smooth="yes"/>
      <point x="1137" y="1152.5"/>
      <point x="1073.37" y="1190"/>
      <point x="963" y="1190" type="curve" smooth="yes"/>
      <point x="874.782" y="1190"/>
      <point x="816" y="1133.75"/>
      <point x="816" y="1044" type="curve" smooth="yes"/>
      <point x="816" y="0" type="line" smooth="no"/>
      <point x="48" y="0" type="line" smooth="no"/>
      <point x="48" y="434" type="line" smooth="no"/>
      <point x="176" y="459" type="line" smooth="no"/>
      <point x="176" y="1177" type="line" smooth="yes"/>
      <point x="176" y="1394.65"/>
      <point x="305.358" y="1490.87"/>
      <point x="493" y="1536" type="curve" smooth="no"/>
      <point x="1099" y="1536" type="line" smooth="yes"/>
      <point x="1378.09" y="1536"/>
      <point x="1611" y="1414.99"/>
      <point x="1611" y="1147" type="curve" smooth="yes"/>
      <point x="1611" y="964.025"/>
      <point x="1497.91" y="837.551"/>
      <point x="1362" y="786" type="curve" smooth="no"/>
      <point x="1577.24" y="774.962"/>
      <point x="1755" y="687.054"/>
    </contour>
  </outline>
</glyph>
<glyph name="ae" format="1">
  <advance width="2342"/>
  <unicode hex="00e6"/>
  <outline>
    <contour>
      <point x="1712" y="402" type="line" smooth="no"/>
      <point x="1871.52" y="402"/>
      <point x="2008.51" y="442.632"/>
      <point x="2099" y="512" type="curve" smooth="no"/>
      <point x="2266" y="512" type="line" smooth="no"/>
      <point x="2266" y="0" type="line" smooth="no"/>
      <point x="1052" y="0" type="line" smooth="no"/>
      <point x="1074" y="237" type="line" smooth="no"/>
      <point x="681" y="237" type="line" smooth="no"/>
      <point x="559" y="0" type="line" smooth="no"/>
      <point x="27" y="0" type="line" smooth="no"/>
      <point x="164" y="464" type="line" smooth="no"/>
      <point x="286" y="487" type="line" smooth="no"/>
      <point x="842" y="1408" type="line" smooth="no"/>
      <point x="2266" y="1408" type="line" smooth="no"/>
      <point x="2266" y="896" type="line" smooth="no"/>
      <point x="2099" y="896" type="line" smooth="no"/>
      <point x="2007.08" y="963.41"/>
      <point x="1870.67" y="1006"/>
      <point x="1712" y="1006" type="curve" smooth="no"/>
      <point x="1712" y="789" type="line" smooth="no"/>
      <point x="1989" y="848" type="line" smooth="no"/>
      <point x="1989" y="563" type="line" smooth="no"/>
      <point x="1712" y="623" type="line" smooth="no"/>
    </contour>
    <contour>
      <point x="837" y="553" type="line" smooth="no"/>
      <point x="1138" y="553" type="line" smooth="no"/>
      <point x="1138" y="1106" type="line" smooth="no"/>
    </contour>
  </outline>
</glyph>
<glyph name="eth" format="1">
  <advance width="1789"/>
  <unicode hex="00f0"/>
  <outline>
    <contour>
      <point x="1758" y="723" type="curve" smooth="yes"/>
      <point x="1758" y="166.445"/>
      <point x="1353.59" y="0"/>
      <point x="796" y="0" type="curve" smooth="yes"/>
      <point x="74" y="0" type="line" smooth="no"/>
      <point x="74" y="399" type="line" smooth="no"/>
      <point x="194" y="422" type="line" smooth="no"/>
      <point x="194" y="592" type="line" smooth="no"/>
      <point x="77" y="592" type="line" smooth="no"/>
      <point x="77" y="848" type="line" smooth="no"/>
      <point x="194" y="848" type="line" smooth="no"/>
      <point x="194" y="1025" type="line" smooth="no"/>
      <point x="74" y="1048" type="line" smooth="no"/>
      <point x="74" y="1408" type="line" smooth="no"/>
      <point x="1169" y="1408" type="line" smooth="no"/>
      <point x="1518.65" y="1333.44"/>
      <point x="1758" y="1145.71"/>
    </contour>
    <contour>
      <point x="888" y="422" type="line" smooth="yes"/>
      <point x="1107.81" y="422"/>
      <point x="1156" y="501.304"/>
      <point x="1156" y="723" type="curve" smooth="yes"/>
      <point x="1156" y="940.373"/>
      <point x="1108.66" y="1025"/>
      <point x="888" y="1025" type="curve" smooth="yes"/>
      <point x="796" y="1025" type="line" smooth="no"/>
      <point x="796" y="848" type="line" smooth="no"/>
      <point x="973" y="848" type="line" smooth="no"/>
      <point x="973" y="592" type="line" smooth="no"/>
      <point x="796" y="592" type="line" smooth="no"/>
      <point x="796" y="422" type="line" smooth="no"/>
    </contour>
  </outline>
</glyph>
<glyph name="divide" format="1">
  <advance width="833"/>
  <unicode hex="00f7"/>
  <outline>
    <contour>
      <point x="225" y="1280" type="line" smooth="no"/>
      <point x="609" y="1280" type="line" smooth="no"/>
      <point x="609" y="896" type="line" smooth="no"/>
      <point x="225" y="896" type="line" smooth="no"/>
    </contour>
    <contour>
      <point x="33" y="768" type="line" smooth="no"/>
      <point x="801" y="768" type="line" smooth="no"/>
      <point x="801" y="512" type="line" smooth="no"/>
      <point x="33" y="512" type="line" smooth="no"/>
    </contour>
    <contour>
      <point x="225" y="384" type="line" smooth="no"/>
      <point x="609" y="384" type="line" smooth="no"/>
      <point x="609" y="0" type="line" smooth="no"/>
      <point x="225" y="0" type="line" smooth="no"/>
    </contour>
  </outline>
</glyph>
<glyph name="oslash" format="1">
  <advance width="1749"/>
  <unicode hex="00f8"/>
  <outline>
    <contour>
      <point x="1718" y="723" type="curve" smooth="yes"/>
      <point x="1718" y="208.292"/>
      <point x="1388.48" y="-37"/>
      <point x="875" y="-37" type="curve" smooth="yes"/>
      <point x="788.374" y="-37"/>
      <point x="715.81" y="-30.125"/>
      <point x="641" y="-17" type="curve" smooth="no"/>
      <point x="550" y="-208" type="line" smooth="no"/>
      <point x="358" y="-128" type="line" smooth="no"/>
      <point x="440" y="43" type="line" smooth="no"/>
      <point x="190.92" y="151.296"/>
      <point x="34" y="365.454"/>
      <point x="34" y="723" type="curve" smooth="yes"/>
      <point x="34" y="1227.83"/>
      <point x="372.965" y="1450"/>
      <point x="875" y="1450" type="curve" smooth="yes"/>
      <point x="959.318" y="1450"/>
      <point x="1035.9" y="1444.11"/>
      <point x="1108" y="1431" type="curve" smooth="no"/>
      <point x="1190" y="1600" type="line" smooth="no"/>
      <point x="1382" y="1536" type="line" smooth="no"/>
      <point x="1305" y="1376" type="line" smooth="no"/>
      <point x="1553.3" y="1274.54"/>
      <point x="1718" y="1072.32"/>
    </contour>
    <contour>
      <point x="907" y="1012" type="line" smooth="no"/>
      <point x="896.783" y="1013.27"/>
      <point x="886.176" y="1014"/>
      <point x="875" y="1014" type="curve" smooth="yes"/>
      <point x="693.443" y="1014"/>
      <point x="636" y="904.385"/>
      <point x="636" y="725" type="curve" smooth="yes"/>
      <point x="636" y="647.438"/>
      <point x="643.938" y="576.82"/>
      <point x="673" y="527" type="curve" smooth="no"/>
    </contour>
    <contour>
      <point x="875" y="428" type="line" smooth="yes"/>
      <point x="1058.2" y="428"/>
      <point x="1117" y="542.371"/>
      <point x="1117" y="723" type="curve" smooth="yes"/>
      <point x="1117" y="796.039"/>
      <point x="1108.76" y="860.643"/>
      <point x="1082" y="908" type="curve" smooth="no"/>
      <point x="853" y="428" type="line" smooth="no"/>
    </contour>
  </outline>
</glyph>
<glyph name="thorn" format="1">
  <advance width="1657"/>
  <unicode hex="00fe"/>
  <outline>
    <contour>
      <point x="1626" y="910" type="curve" smooth="yes"/>
      <point x="1626" y="497.344"/>
      <point x="1206.15" y="473"/>
      <point x="784" y="473" type="curve" smooth="no"/>
      <point x="784" y="422" type="line" smooth="no"/>
      <point x="904" y="399" type="line" smooth="no"/>
      <point x="904" y="0" type="line" smooth="no"/>
      <point x="62" y="0" type="line" smooth="no"/>
      <point x="62" y="399" type="line" smooth="no"/>
      <point x="182" y="422" type="line" smooth="no"/>
      <point x="182" y="1119" type="line" smooth="no"/>
      <point x="62" y="1142" type="line" smooth="no"/>
      <point x="62" y="1536" type="line" smooth="no"/>
      <point x="784" y="1536" type="line" smooth="no"/>
      <point x="784" y="1338" type="line" smooth="no"/>
      <point x="881" y="1338" type="line" smooth="yes"/>
      <point x="1278.33" y="1338"/>
      <point x="1626" y="1300.79"/>
    </contour>
    <contour>
      <point x="784" y="726" type="line" smooth="no"/>
      <point x="941.319" y="726"/>
      <point x="1025" y="759.951"/>
      <point x="1025" y="919" type="curve" smooth="yes"/>
      <point x="1025" y="1071.08"/>
      <point x="935.276" y="1098"/>
      <point x="784" y="1098" type="curve" smooth="no"/>
    </contour>
  </outline>
</glyph>
<glyph name="Dcroat" format="1">
  <advance width="1898"/>
  <unicode hex="0110"/>
  <outline>
    <contour>
      <point x="1866" y="786" type="curve" smooth="yes"/>
      <point x="1866" y="187.053"/>
      <point x="1442.09" y="0"/>
      <point x="842" y="0" type="curve" smooth="yes"/>
      <point x="74" y="0" type="line" smooth="no"/>
      <point x="74" y="434" type="line" smooth="no"/>
      <point x="202" y="459" type="line" smooth="no"/>
      <point x="202" y="656" type="line" smooth="no"/>
      <point x="74" y="656" type="line" smooth="no"/>
      <point x="74" y="913" type="line" smooth="no"/>
      <point x="202" y="913" type="line" smooth="no"/>
      <point x="202" y="1114" type="line" smooth="no"/>
      <point x="74" y="1139" type="line" smooth="no"/>
      <point x="74" y="1536" type="line" smooth="no"/>
      <point x="1239" y="1536" type="line" smooth="no"/>
      <point x="1615.6" y="1455.48"/>
      <point x="1866" y="1241.89"/>
    </contour>
    <contour>
      <point x="940" y="459" type="line" smooth="yes"/>
      <point x="1109.88" y="459"/>
      <point x="1209.29" y="502.535"/>
      <point x="1220.5" y="652" type="curve" smooth="yes"/>
      <point x="1223.5" y="692"/>
      <point x="1225" y="736.667"/>
      <point x="1225" y="786" type="curve" smooth="yes"/>
      <point x="1225" y="1020.52"/>
      <point x="1180.73" y="1114"/>
      <point x="940" y="1114" type="curve" smooth="yes"/>
      <point x="842" y="1114" type="line" smooth="no"/>
      <point x="842" y="913" type="line" smooth="no"/>
      <point x="978" y="913" type="line" smooth="no"/>
      <point x="978" y="656" type="line" smooth="no"/>
      <point x="842" y="656" type="line" smooth="no"/>
      <point x="842" y="459" type="line" smooth="no"/>
    </contour>
  </outline>
</glyph>
<glyph name="dcroat" format="1">
  <advance width="1790"/>
  <unicode hex="0111"/>
  <outline>
    <contour>
      <point x="1759" y="723" type="curve" smooth="yes"/>
      <point x="1759" y="166.445"/>
      <point x="1354.59" y="0"/>
      <point x="797" y="0" type="curve" smooth="yes"/>
      <point x="75" y="0" type="line" smooth="no"/>
      <point x="75" y="399" type="line" smooth="no"/>
      <point x="195" y="422" type="line" smooth="no"/>
      <point x="195" y="598" type="line" smooth="no"/>
      <point x="74" y="598" type="line" smooth="no"/>
      <point x="74" y="854" type="line" smooth="no"/>
      <point x="195" y="854" type="line" smooth="no"/>
      <point x="195" y="1025" type="line" smooth="no"/>
      <point x="75" y="1048" type="line" smooth="no"/>
      <point x="75" y="1408" type="line" smooth="no"/>
      <point x="1170" y="1408" type="line" smooth="no"/>
      <point x="1519.65" y="1333.44"/>
      <point x="1759" y="1145.71"/>
    </contour>
    <contour>
      <point x="889" y="422" type="line" smooth="yes"/>
      <point x="1108.81" y="422"/>
      <point x="1157" y="501.304"/>
      <point x="1157" y="723" type="curve" smooth="yes"/>
      <point x="1157" y="940.373"/>
      <point x="1109.66" y="1025"/>
      <point x="889" y="1025" type="curve" smooth="yes"/>
      <point x="797" y="1025" type="line" smooth="no"/>
      <point x="797" y="854" type="line" smooth="no"/>
      <point x="925" y="854" type="line" smooth="no"/>
      <point x="925" y="598" type="line" smooth="no"/>
      <point x="797" y="598" type="line" smooth="no"/>
      <point x="797" y="422" type="line" smooth="no"/>
    </contour>
  </outline>
</glyph>
<glyph name="dotlessi" format="1">
  <advance width="978"/>
  <unicode hex="0131"/>
  <outline>
    <contour>
      <point x="66" y="1408" type="line" smooth="no"/>
      <point x="908" y="1408" type="line" smooth="no"/>
      <point x="908" y="1014" type="line" smooth="no"/>
      <point x="788" y="991" type="line" smooth="no"/>
      <point x="788" y="422" type="line" smooth="no"/>
      <point x="908" y="399" type="line" smooth="no"/>
      <point x="908" y="0" type="line" smooth="no"/>
      <point x="66" y="0" type="line" smooth="no"/>
      <point x="66" y="399" type="line" smooth="no"/>
      <point x="186" y="422" type="line" smooth="no"/>
      <point x="186" y="991" type="line" smooth="no"/>
      <point x="66" y="1014" type="line" smooth="no"/>
    </contour>
  </outline>
</glyph>
<glyph name="Lslash" format="1">
  <advance width="1353"/>
  <unicode hex="0141"/>
  <outline>
    <contour>
      <point x="842" y="384" type="line" smooth="no"/>
      <point x="971.026" y="384"/>
      <point x="1063.4" y="445.517"/>
      <point x="1127" y="512" type="curve" smooth="no"/>
      <point x="1294" y="512" type="line" smooth="no"/>
      <point x="1294" y="0" type="line" smooth="no"/>
      <point x="74" y="0" type="line" smooth="no"/>
      <point x="74" y="434" type="line" smooth="no"/>
      <point x="202" y="459" type="line" smooth="no"/>
      <point x="202" y="640" type="line" smooth="no"/>
      <point x="74" y="640" type="line" smooth="no"/>
      <point x="74" y="896" type="line" smooth="no"/>
      <point x="202" y="896" type="line" smooth="no"/>
      <point x="202" y="1077" type="line" smooth="no"/>
      <point x="74" y="1102" type="line" smooth="no"/>
      <point x="74" y="1536" type="line" smooth="no"/>
      <point x="970" y="1536" type="line" smooth="no"/>
      <point x="970" y="1102" type="line" smooth="no"/>
      <point x="842" y="1077" type="line" smooth="no"/>
      <point x="842" y="896" type="line" smooth="no"/>
      <point x="1014" y="896" type="line" smooth="no"/>
      <point x="1014" y="640" type="line" smooth="no"/>
      <point x="842" y="640" type="line" smooth="no"/>
    </contour>
  </outline>
</glyph>
<glyph name="lslash" format="1">
  <advance width="1279"/>
  <unicode hex="0142"/>
  <outline>
    <contour>
      <point x="797" y="384" type="line" smooth="no"/>
      <point x="914.421" y="384"/>
      <point x="997.647" y="448.345"/>
      <point x="1053" y="512" type="curve" smooth="no"/>
      <point x="1220" y="512" type="line" smooth="no"/>
      <point x="1220" y="0" type="line" smooth="no"/>
      <point x="76" y="0" type="line" smooth="no"/>
      <point x="76" y="399" type="line" smooth="no"/>
      <point x="196" y="422" type="line" smooth="no"/>
      <point x="196" y="640" type="line" smooth="no"/>
      <point x="76" y="640" type="line" smooth="no"/>
      <point x="76" y="896" type="line" smooth="no"/>
      <point x="196" y="896" type="line" smooth="no"/>
      <point x="196" y="991" type="line" smooth="no"/>
      <point x="76" y="1014" type="line" smooth="no"/>
      <point x="76" y="1413" type="line" smooth="no"/>
      <point x="918" y="1413" type="line" smooth="no"/>
      <point x="918" y="1014" type="line" smooth="no"/>
      <point x="797" y="991" type="line" smooth="no"/>
      <point x="797" y="896" type="line" smooth="no"/>
      <point x="886" y="896" type="line" smooth="no"/>
      <point x="886" y="640" type="line" smooth="no"/>
      <point x="797" y="640" type="line" smooth="no"/>
    </contour>
  </outline>
</glyph>
<glyph name="OE" format="1">
  <advance width="2494"/>
  <unicode hex="0152"/>
  <outline>
    <contour>
      <point x="1827" y="459" type="line" smooth="no"/>
      <point x="2058.07" y="459"/>
      <point x="2252.7" y="481.679"/>
      <point x="2416" y="540" type="curve" smooth="no"/>
      <point x="2416" y="0" type="line" smooth="no"/>
      <point x="1257" y="0" type="line" smooth="no"/>
      <point x="1158.33" y="-26.667"/>
      <point x="1049.33" y="-40"/>
      <point x="930" y="-40" type="curve" smooth="yes"/>
      <point x="377.599" y="-40"/>
      <point x="35" y="231.517"/>
      <point x="35" y="786" type="curve" smooth="yes"/>
      <point x="35" y="1329.1"/>
      <point x="388.275" y="1576"/>
      <point x="930" y="1576" type="curve" smooth="yes"/>
      <point x="1052" y="1576"/>
      <point x="1164" y="1562.67"/>
      <point x="1266" y="1536" type="curve" smooth="no"/>
      <point x="2422" y="1536" type="line" smooth="no"/>
      <point x="2422" y="984" type="line" smooth="no"/>
      <point x="2263.73" y="1047.82"/>
      <point x="2060.64" y="1075"/>
      <point x="1827" y="1075" type="curve" smooth="no"/>
      <point x="1827" y="879" type="line" smooth="no"/>
      <point x="2121" y="944" type="line" smooth="no"/>
      <point x="2121" y="590" type="line" smooth="no"/>
      <point x="1827" y="655" type="line" smooth="no"/>
    </contour>
    <contour>
      <point x="1187" y="1060" type="line" smooth="no"/>
      <point x="1117.18" y="1088.75"/>
      <point x="1033.44" y="1102"/>
      <point x="930" y="1102" type="curve" smooth="yes"/>
      <point x="733.971" y="1102"/>
      <point x="675" y="979.712"/>
      <point x="675" y="786" type="curve" smooth="yes"/>
      <point x="675" y="591.717"/>
      <point x="733.353" y="465"/>
      <point x="930" y="465" type="curve" smooth="yes"/>
      <point x="1030.52" y="465"/>
      <point x="1111.52" y="473.147"/>
      <point x="1187" y="492" type="curve" smooth="no"/>
    </contour>
  </outline>
</glyph>
<glyph name="oe" format="1">
  <advance width="2346"/>
  <unicode hex="0153"/>
  <outline>
    <contour>
      <point x="875" y="-37" type="curve" smooth="yes"/>
      <point x="361.501" y="-37"/>
      <point x="34" y="207.93"/>
      <point x="34" y="723" type="curve" smooth="yes"/>
      <point x="34" y="1228.78"/>
      <point x="372.6" y="1450"/>
      <point x="875" y="1450" type="curve" smooth="yes"/>
      <point x="995" y="1450"/>
      <point x="1106.67" y="1436"/>
      <point x="1210" y="1408" type="curve" smooth="no"/>
      <point x="2270" y="1408" type="line" smooth="no"/>
      <point x="2270" y="896" type="line" smooth="no"/>
      <point x="2103" y="896" type="line" smooth="no"/>
      <point x="2011.08" y="963.41"/>
      <point x="1874.67" y="1006"/>
      <point x="1716" y="1006" type="curve" smooth="no"/>
      <point x="1716" y="789" type="line" smooth="no"/>
      <point x="1992" y="848" type="line" smooth="no"/>
      <point x="1992" y="563" type="line" smooth="no"/>
      <point x="1716" y="623" type="line" smooth="no"/>
      <point x="1716" y="402" type="line" smooth="no"/>
      <point x="1875.52" y="402"/>
      <point x="2012.51" y="442.632"/>
      <point x="2103" y="512" type="curve" smooth="no"/>
      <point x="2270" y="512" type="line" smooth="no"/>
      <point x="2270" y="0" type="line" smooth="no"/>
      <point x="1183" y="0" type="line" smooth="no"/>
      <point x="1089" y="-24.667"/>
      <point x="986.333" y="-37"/>
    </contour>
    <contour>
      <point x="1114" y="987" type="line" smooth="no"/>
      <point x="1045.44" y="1006.04"/>
      <point x="966.119" y="1014"/>
      <point x="875" y="1014" type="curve" smooth="yes"/>
      <point x="693.443" y="1014"/>
      <point x="636" y="904.385"/>
      <point x="636" y="725" type="curve" smooth="yes"/>
      <point x="636" y="543.006"/>
      <point x="690.732" y="428"/>
      <point x="875" y="428" type="curve" smooth="yes"/>
      <point x="975.242" y="428"/>
      <point x="1049.77" y="435.928"/>
      <point x="1114" y="458" type="curve" smooth="no"/>
    </contour>
  </outline>
</glyph>
<glyph name="florin" format="1">
  <advance width="1472"/>
  <unicode hex="0192"/>
  <outline>
    <contour>
      <point x="404" y="214" type="curve" smooth="yes"/>
      <point x="441.942" y="214"/>
      <point x="443.004" y="338.13"/>
      <point x="443.004" y="398.062" type="curve" smooth="yes"/>
      <point x="443" y="408" type="line" smooth="no"/>
      <point x="443" y="808" type="line" smooth="no"/>
      <point x="211" y="808" type="line" smooth="no"/>
      <point x="231" y="995" type="line" smooth="no"/>
      <point x="443" y="995" type="line" smooth="no"/>
      <point x="452.171" y="1383.85"/>
      <point x="596.936" y="1605"/>
      <point x="997" y="1605" type="curve" smooth="yes"/>
      <point x="1280.92" y="1605"/>
      <point x="1424" y="1453.59"/>
      <point x="1424" y="1164" type="curve" smooth="yes"/>
      <point x="1424" y="1153.44"/>
      <point x="1423" y="1141.56"/>
      <point x="1423" y="1131" type="curve" smooth="no"/>
      <point x="1106" y="1131" type="line" smooth="no"/>
      <point x="1111.22" y="1144.91"/>
      <point x="1114" y="1172.82"/>
      <point x="1114" y="1194" type="curve" smooth="yes"/>
      <point x="1114" y="1231.27"/>
      <point x="1107.96" y="1284"/>
      <point x="1072" y="1284" type="curve" smooth="yes"/>
      <point x="1036.06" y="1284"/>
      <point x="1031" y="1208.09"/>
      <point x="1031" y="1150" type="curve" smooth="yes"/>
      <point x="1031" y="995" type="line" smooth="no"/>
      <point x="1280" y="995" type="line" smooth="no"/>
      <point x="1260" y="808" type="line" smooth="no"/>
      <point x="1031" y="808" type="line" smooth="no"/>
      <point x="1031" y="412" type="line" smooth="yes"/>
      <point x="1031" y="83.5322"/>
      <point x="824.936" y="-128"/>
      <point x="493" y="-128" type="curve" smooth="yes"/>
      <point x="255.158" y="-128"/>
      <point x="41" y="-7.74609"/>
      <point x="41" y="229" type="curve" smooth="yes"/>
      <point x="41" y="269.667"/>
      <point x="48" y="313.667"/>
      <point x="62" y="361" type="curve" smooth="no"/>
      <point x="376" y="361" type="line" smooth="no"/>
      <point x="373.413" y="345.476"/>
      <point x="371" y="313.542"/>
      <point x="371" y="292" type="curve" smooth="yes"/>
      <point x="371" y="260.69"/>
      <point x="373.863" y="214"/>
    </contour>
  </outline>
</glyph>
<glyph name="circumflex" format="1">
  <advance width="1338"/>
  <unicode hex="02c6"/>
  <outline>
    <contour>
      <point x="85" y="1664" type="line" smooth="no"/>
      <point x="425" y="2303" type="line" smooth="no"/>
      <point x="915" y="2303" type="line" smooth="no"/>
      <point x="1254" y="1664" type="line" smooth="no"/>
      <point x="829" y="1664" type="line" smooth="no"/>
      <point x="670" y="2047" type="line" smooth="no"/>
      <point x="510" y="1664" type="line" smooth="no"/>
    </contour>
  </outline>
</glyph>
<glyph name="caron" format="1">
  <advance width="1334"/>
  <unicode hex="02c7"/>
  <outline>
    <contour>
      <point x="508" y="2303" type="line" smooth="no"/>
      <point x="668" y="1920" type="line" smooth="no"/>
      <point x="827" y="2303" type="line" smooth="no"/>
      <point x="1252" y="2303" type="line" smooth="no"/>
      <point x="913" y="1664" type="line" smooth="no"/>
      <point x="423" y="1664" type="line" smooth="no"/>
      <point x="83" y="2303" type="line" smooth="no"/>
    </contour>
  </outline>
</glyph>
<glyph name="breve" format="1">
  <advance width="899"/>
  <unicode hex="02d8"/>
  <outline>
    <contour>
      <point x="852" y="1980" type="line" smooth="no"/>
      <point x="852" y="1721.33"/>
      <point x="701.391" y="1535"/>
      <point x="449" y="1535" type="curve" smooth="yes"/>
      <point x="197.227" y="1535"/>
      <point x="48" y="1724.36"/>
      <point x="48" y="1980" type="curve" smooth="no"/>
      <point x="317" y="1980" type="line" smooth="no"/>
      <point x="317" y="1894.02"/>
      <point x="366.162" y="1828"/>
      <point x="450" y="1828" type="curve" smooth="yes"/>
      <point x="533.32" y="1828"/>
      <point x="583" y="1894.36"/>
      <point x="583" y="1980" type="curve" smooth="no"/>
    </contour>
  </outline>
</glyph>
<glyph name="dotaccent" format="1">
  <advance width="817"/>
  <unicode hex="02d9"/>
  <outline>
    <contour>
      <point x="89" y="2176" type="line" smooth="no"/>
      <point x="729" y="2176" type="line" smooth="no"/>
      <point x="729" y="1664" type="line" smooth="no"/>
      <point x="89" y="1664" type="line" smooth="no"/>
    </contour>
  </outline>
</glyph>
<glyph name="ring" format="1">
  <advance width="899"/>
  <unicode hex="02da"/>
  <outline>
    <contour>
      <point x="449" y="2312" type="curve" smooth="yes"/>
      <point x="683.846" y="2312"/>
      <point x="852" y="2164.11"/>
      <point x="852" y="1926" type="curve" smooth="yes"/>
      <point x="852" y="1685.79"/>
      <point x="685.619" y="1536"/>
      <point x="449" y="1536" type="curve" smooth="yes"/>
      <point x="213.689" y="1536"/>
      <point x="48" y="1686.91"/>
      <point x="48" y="1926" type="curve" smooth="yes"/>
      <point x="48" y="2163.73"/>
      <point x="214.324" y="2312"/>
    </contour>
    <contour>
      <point x="450" y="1724" type="curve" smooth="yes"/>
      <point x="559.135" y="1724"/>
      <point x="623" y="1809.03"/>
      <point x="623" y="1921" type="curve" smooth="yes"/>
      <point x="623" y="2032.04"/>
      <point x="557.254" y="2116"/>
      <point x="449" y="2116" type="curve" smooth="yes"/>
      <point x="340.555" y="2116"/>
      <point x="277" y="2032.27"/>
      <point x="277" y="1921" type="curve" smooth="yes"/>
      <point x="277" y="1808.41"/>
      <point x="340.139" y="1724"/>
    </contour>
  </outline>
</glyph>
<glyph name="ogonek" format="1">
  <advance width="750"/>
  <unicode hex="02db"/>
  <outline>
    <contour>
      <point x="437" y="-876" type="curve" smooth="yes"/>
      <point x="191.524" y="-876"/>
      <point x="54" y="-739.561"/>
      <point x="54" y="-492" type="curve" smooth="yes"/>
      <point x="54" y="-340.83"/>
      <point x="119.321" y="-227.518"/>
      <point x="181" y="-135" type="curve" smooth="yes"/>
      <point x="217.667" y="-80.333"/>
      <point x="260.333" y="-28.667"/>
      <point x="309" y="20" type="curve" smooth="no"/>
      <point x="643" y="20" type="line" smooth="no"/>
      <point x="540.415" y="-79.8857"/>
      <point x="432.092" y="-197.54"/>
      <point x="385.5" y="-349.5" type="curve" smooth="yes"/>
      <point x="377.833" y="-374.5"/>
      <point x="374" y="-398.667"/>
      <point x="374" y="-422" type="curve" smooth="yes"/>
      <point x="374" y="-512.698"/>
      <point x="420.523" y="-553"/>
      <point x="510" y="-553" type="curve" smooth="yes"/>
      <point x="554.667" y="-553"/>
      <point x="615.667" y="-540.333"/>
      <point x="693" y="-515" type="curve" smooth="no"/>
      <point x="693" y="-832" type="line" smooth="no"/>
      <point x="619.482" y="-856.123"/>
      <point x="527.106" y="-876"/>
    </contour>
  </outline>
</glyph>
<glyph name="tilde" format="1">
  <advance width="1001"/>
  <unicode hex="02dc"/>
  <outline>
    <contour>
      <point x="290" y="2030" type="curve" smooth="yes"/>
      <point x="438.391" y="2030"/>
      <point x="524.466" y="1915"/>
      <point x="675" y="1915" type="curve" smooth="yes"/>
      <point x="798.697" y="1915"/>
      <point x="876.317" y="1964.62"/>
      <point x="954" y="2036" type="curve" smooth="no"/>
      <point x="894" y="1619" type="line" smooth="no"/>
      <point x="858.604" y="1569.22"/>
      <point x="808.211" y="1538"/>
      <point x="733" y="1538" type="curve" smooth="yes"/>
      <point x="585.036" y="1538"/>
      <point x="490.438" y="1634"/>
      <point x="341" y="1634" type="curve" smooth="yes"/>
      <point x="219.036" y="1634"/>
      <point x="137.809" y="1592.63"/>
      <point x="58" y="1529" type="curve" smooth="no"/>
      <point x="120" y="1955" type="line" smooth="no"/>
      <point x="161.636" y="2002.26"/>
      <point x="211.185" y="2030"/>
    </contour>
  </outline>
</glyph>
<glyph name="hungarumlaut" format="1">
  <advance width="1701"/>
  <unicode hex="02dd"/>
  <outline>
    <contour>
      <point x="1159" y="1664" type="line" smooth="no"/>
      <point x="724" y="1664" type="line" smooth="no"/>
      <point x="1129" y="2304" type="line" smooth="no"/>
      <point x="1619" y="2304" type="line" smooth="no"/>
    </contour>
    <contour>
      <point x="491" y="1664" type="line" smooth="no"/>
      <point x="86" y="1664" type="line" smooth="no"/>
      <point x="335" y="2304" type="line" smooth="no"/>
      <point x="825" y="2304" type="line" smooth="no"/>
    </contour>
  </outline>
</glyph>
<glyph name="uni030F" format="1">
  <advance width="1548"/>
  <unicode hex="030f"/>
  <outline>
    <contour>
      <point x="734" y="2304" type="line" smooth="no"/>
      <point x="1224" y="2304" type="line" smooth="no"/>
      <point x="1463" y="1664" type="line" smooth="no"/>
      <point x="1038" y="1664" type="line" smooth="no"/>
    </contour>
    <contour>
      <point x="83" y="2304" type="line" smooth="no"/>
      <point x="573" y="2304" type="line" smooth="no"/>
      <point x="912" y="1664" type="line" smooth="no"/>
      <point x="487" y="1664" type="line" smooth="no"/>
    </contour>
  </outline>
</glyph>
<glyph name="uni0311" format="1">
  <advance width="920"/>
  <unicode hex="0311"/>
  <outline>
    <contour>
      <point x="460" y="1687" type="curve" smooth="yes"/>
      <point x="376.25" y="1687"/>
      <point x="327" y="1620.69"/>
      <point x="327" y="1535" type="curve" smooth="no"/>
      <point x="58" y="1535" type="line" smooth="no"/>
      <point x="58" y="1792.48"/>
      <point x="208.029" y="1980"/>
      <point x="459" y="1980" type="curve" smooth="yes"/>
      <point x="712.145" y="1980"/>
      <point x="862" y="1791.87"/>
      <point x="862" y="1535" type="curve" smooth="no"/>
      <point x="593" y="1535" type="line" smooth="no"/>
      <point x="593" y="1620.37"/>
      <point x="543.234" y="1687"/>
    </contour>
  </outline>
</glyph>
<glyph name="Delta" format="1">
  <advance width="1424"/>
  <unicode hex="0394"/>
  <unicode hex="2206"/>
  <outline>
    <contour>
      <point x="1363" y="0" type="line" smooth="no"/>
      <point x="31" y="0" type="line" smooth="no"/>
      <point x="317" y="1171" type="line" smooth="no"/>
      <point x="1063" y="1171" type="line" smooth="no"/>
    </contour>
    <contour>
      <point x="560" y="216" type="line" smooth="no"/>
      <point x="831" y="216" type="line" smooth="no"/>
      <point x="695" y="869" type="line" smooth="no"/>
    </contour>
  </outline>
</glyph>
